{"glyphs":{"0":{"ha":729,"x_min":0,"x_max":0,"o":"m 729 424 b 508 864 772 682 661 864 b 140 425 353 864 182 678 b 361 -15 97 167 208 -15 b 729 424 517 -15 688 171 z m 636 439 b 375 69 601 233 483 69 b 239 439 267 69 204 233 b 494 779 272 642 392 779 b 636 439 596 779 669 643 z "},"1":{"ha":729,"x_min":0,"x_max":0,"o":"m 621 42 b 572 85 628 85 594 85 l 446 85 l 567 807 b 535 864 571 829 576 864 b 488 831 508 864 497 847 b 313 694 415 713 340 697 b 254 651 290 693 261 690 b 293 610 249 617 272 610 b 449 671 319 610 378 618 l 350 85 l 224 85 b 161 42 201 85 168 85 b 210 0 154 0 189 0 l 558 0 b 621 42 579 0 614 0 z "},"2":{"ha":729,"x_min":0,"x_max":0,"o":"m 665 57 l 671 93 b 633 150 675 119 681 150 b 574 85 585 150 581 124 l 243 85 b 557 315 338 156 488 260 b 754 593 657 393 736 482 b 490 864 782 760 660 864 b 178 632 326 864 197 750 b 229 565 169 581 206 565 b 300 628 258 565 294 589 b 289 672 303 644 300 663 b 469 779 319 736 393 779 b 658 593 583 779 679 715 b 457 339 643 496 561 415 l 107 81 b 79 43 92 69 83 63 b 129 0 72 0 107 0 l 600 0 b 665 57 646 0 658 13 z "},"3":{"ha":729,"x_min":0,"x_max":0,"o":"m 707 242 b 588 464 724 340 672 422 b 738 668 674 514 725 593 b 510 864 756 771 669 864 b 218 701 343 864 235 797 b 269 636 211 656 242 636 b 342 699 299 636 335 660 b 335 736 344 718 339 732 b 497 779 386 779 485 779 b 642 667 592 779 653 729 b 564 546 635 625 606 576 b 428 504 513 510 478 507 b 319 458 347 499 326 499 b 368 415 313 415 346 415 l 432 415 b 611 242 569 415 625 322 b 378 69 597 157 504 69 b 193 150 322 69 218 85 b 217 193 201 157 213 165 b 167 254 222 226 201 254 b 93 189 135 254 100 233 b 364 -15 72 65 193 -15 b 707 242 546 -15 686 113 z "},"4":{"ha":729,"x_min":0,"x_max":0,"o":"m 733 276 b 685 319 740 319 707 319 l 576 319 l 658 808 b 611 865 667 854 658 865 l 572 865 b 508 836 539 865 532 864 l 110 339 b 89 290 94 321 93 318 b 135 235 81 244 92 235 l 485 235 l 460 85 l 374 85 b 311 42 351 85 318 85 b 360 0 304 0 339 0 l 610 0 b 672 42 631 0 665 0 b 624 85 679 85 646 85 l 538 85 l 563 235 l 671 235 b 733 276 692 235 726 235 z m 499 319 l 190 319 l 581 804 z "},"5":{"ha":729,"x_min":0,"x_max":0,"o":"m 700 264 b 475 540 724 404 639 540 b 301 500 426 540 364 531 l 346 764 l 679 764 b 742 806 700 764 735 764 b 693 849 749 849 715 849 l 319 849 b 254 792 274 849 261 836 l 193 422 b 228 365 189 397 183 365 b 272 386 253 365 260 372 b 460 456 318 431 379 456 b 604 264 574 456 619 354 b 356 69 585 153 472 69 b 204 157 317 69 231 81 b 229 201 213 164 225 174 b 179 264 236 242 208 264 b 106 197 158 264 114 251 b 342 -15 86 82 186 -15 b 700 264 515 -15 674 110 z "},"6":{"ha":729,"x_min":0,"x_max":0,"o":"m 699 268 b 471 550 725 426 624 550 b 250 469 399 550 322 526 b 575 779 303 665 453 779 b 647 757 622 779 642 764 b 626 717 639 750 631 742 b 678 656 621 683 642 656 b 751 721 713 656 744 679 b 590 864 763 789 725 864 b 143 415 404 864 190 696 b 364 -15 88 86 226 -15 b 699 268 515 -15 671 101 z m 603 268 b 378 69 583 149 478 69 b 232 222 288 69 246 138 b 235 308 224 256 232 289 b 450 464 249 394 344 464 b 603 268 563 464 621 371 z "},"7":{"ha":729,"x_min":0,"x_max":0,"o":"m 801 806 b 753 849 808 849 775 849 l 294 849 b 254 871 290 871 265 871 b 197 814 207 871 201 840 l 188 756 b 225 699 183 729 178 699 b 285 764 274 699 278 725 l 651 764 b 244 50 368 508 269 203 b 282 -15 242 31 233 -15 b 339 40 306 -15 332 0 b 763 758 411 435 664 676 b 801 806 794 783 797 786 z "},"8":{"ha":729,"x_min":0,"x_max":0,"o":"m 707 242 b 550 457 725 346 647 428 b 754 642 667 494 742 563 b 508 864 774 756 674 864 b 188 642 342 864 207 754 b 331 457 175 563 226 493 b 101 242 221 428 119 346 b 361 -15 79 107 188 -15 b 707 242 536 -15 685 107 z m 658 640 b 447 500 644 561 549 500 b 283 640 346 500 271 563 b 494 779 296 713 385 779 b 658 640 603 779 671 713 z m 611 243 b 375 69 596 147 490 69 b 197 243 260 69 182 147 b 433 415 211 328 307 415 b 611 243 561 415 625 328 z "},"9":{"ha":729,"x_min":0,"x_max":0,"o":"m 726 433 b 513 864 782 768 644 864 b 171 581 358 864 199 749 b 399 299 144 422 246 299 b 619 379 471 299 547 322 b 311 69 576 207 444 69 b 224 93 299 69 250 71 b 243 132 231 100 239 108 b 192 193 249 165 228 193 b 118 128 157 193 125 169 b 297 -15 111 83 119 -15 b 726 433 481 -15 681 158 z m 636 540 b 419 385 624 464 535 385 b 267 581 307 385 249 478 b 499 779 286 701 399 779 b 608 719 558 779 592 747 b 636 540 644 665 653 639 z "}," ":{"ha":729,"x_min":0,"x_max":0,"o":""},"!":{"ha":729,"x_min":0,"x_max":0,"o":"m 564 785 b 508 864 576 858 521 864 b 425 785 496 864 438 858 l 381 460 l 357 292 b 407 256 353 256 389 256 b 475 322 457 256 463 267 l 521 563 b 564 785 533 635 551 711 z m 444 69 b 388 139 451 108 426 139 b 306 69 349 139 313 108 b 364 0 300 31 325 0 b 444 69 403 0 439 31 z "},"\"":{"ha":729,"x_min":0,"x_max":0,"o":"m 681 788 b 632 864 694 853 650 864 b 557 788 606 864 563 849 l 528 506 b 564 456 525 485 525 456 b 615 504 599 456 610 481 z m 435 788 b 386 864 449 853 404 864 b 311 788 360 864 317 849 l 282 506 b 318 456 279 485 279 456 b 369 504 353 456 364 481 z "},"#":{"ha":729,"x_min":0,"x_max":0,"o":"m 725 275 b 668 324 733 324 685 324 l 576 324 l 635 526 l 701 526 b 775 575 718 526 767 526 b 718 624 783 624 735 624 l 665 624 l 711 783 b 675 849 726 835 696 849 b 615 792 632 849 619 808 l 567 624 l 424 624 l 469 783 b 433 849 485 835 454 849 b 374 792 390 849 378 808 l 325 624 l 218 624 b 144 575 201 624 153 624 b 201 526 136 526 185 526 l 294 526 l 236 324 l 168 324 b 94 275 151 324 103 324 b 151 226 86 226 135 226 l 206 226 b 154 49 156 56 154 49 b 194 0 150 24 165 0 b 254 57 238 0 249 40 l 304 226 l 447 226 b 396 49 397 56 396 49 b 436 0 392 24 407 0 b 496 57 479 0 490 40 l 546 226 l 651 226 b 725 275 668 226 717 226 z m 536 526 l 478 324 l 335 324 l 393 526 z "},"$":{"ha":729,"x_min":0,"x_max":0,"o":"m 688 238 b 488 481 699 306 682 443 l 535 769 b 657 674 581 764 646 744 b 628 628 642 663 632 646 b 679 567 624 596 642 567 b 753 635 708 567 744 583 b 550 856 771 742 711 842 l 558 907 b 526 964 563 929 568 964 b 474 907 483 964 478 929 l 465 854 b 185 628 308 836 203 731 b 389 401 179 594 163 444 l 336 79 b 214 189 275 88 222 118 b 244 238 222 194 239 206 b 193 300 250 276 221 300 b 119 231 181 300 129 294 b 321 -7 100 115 163 8 l 313 -58 b 346 -115 308 -81 303 -115 b 397 -58 388 -115 393 -81 l 406 -6 b 688 238 581 21 671 140 z m 406 499 b 275 633 329 513 264 563 b 450 769 286 700 363 756 z m 597 232 b 421 81 585 161 513 96 l 471 383 b 597 232 560 365 608 303 z "},"%":{"ha":729,"x_min":0,"x_max":0,"o":"m 419 778 b 331 964 438 886 397 964 b 179 779 263 964 196 883 b 268 593 161 671 201 593 b 419 778 336 593 403 674 z m 760 915 b 719 964 764 940 747 964 b 663 921 686 964 672 938 l 124 -36 b 110 -67 115 -50 111 -57 b 150 -115 106 -93 124 -115 b 206 -75 183 -115 197 -90 l 746 885 b 760 915 754 899 758 906 z m 690 69 b 601 254 708 172 671 254 b 449 69 532 254 467 172 b 539 -115 432 -33 469 -115 b 690 69 608 -115 674 -33 z m 343 779 b 283 679 332 718 300 679 b 257 779 267 679 246 718 b 315 878 265 836 297 878 b 343 779 333 878 351 836 z m 613 69 b 553 -29 603 8 569 -29 b 526 69 536 -29 517 8 b 586 168 538 131 569 168 b 613 69 603 168 624 131 z "},"&":{"ha":729,"x_min":0,"x_max":0,"o":"m 774 556 b 725 599 781 599 747 599 l 597 599 b 535 557 576 599 542 599 b 585 514 528 514 561 514 b 415 222 531 415 465 296 b 344 414 401 251 360 339 b 528 674 508 560 522 642 b 432 864 542 758 531 864 b 254 663 363 864 276 801 b 256 438 243 603 240 525 b 143 336 242 426 147 338 b 71 190 111 303 82 254 b 207 -15 53 85 101 -15 b 396 82 279 -15 344 29 b 542 -15 414 56 461 -15 b 701 146 633 -15 690 79 b 669 192 708 192 669 192 b 624 149 633 192 625 156 b 556 69 608 88 578 69 b 453 150 504 69 463 133 b 549 297 490 199 529 263 l 668 514 l 711 514 b 774 556 732 514 767 514 z m 450 674 b 328 506 443 633 410 583 b 332 663 318 578 329 651 b 418 779 344 743 388 779 b 450 674 465 779 451 686 z m 357 150 b 222 69 293 76 242 69 b 167 194 160 69 161 157 b 274 350 178 261 196 278 b 313 250 279 328 299 282 b 357 150 335 196 339 183 z "},"'":{"ha":729,"x_min":0,"x_max":0,"o":"m 556 785 b 508 864 569 843 542 864 b 435 801 474 864 440 836 l 433 774 l 406 507 b 440 456 403 485 400 456 b 492 507 481 456 486 485 z "},"(":{"ha":729,"x_min":0,"x_max":0,"o":"m 594 -75 b 567 -32 597 -54 589 -49 b 407 425 414 85 381 269 b 722 883 431 564 515 757 b 761 925 747 899 758 904 b 725 964 763 936 761 964 b 311 425 685 964 371 781 b 364 65 283 260 326 135 b 544 -114 421 -36 511 -114 b 594 -75 581 -114 593 -86 z "},")":{"ha":729,"x_min":0,"x_max":0,"o":"m 560 425 b 507 785 588 590 544 715 b 326 964 450 886 360 964 b 276 925 292 964 278 936 b 293 890 274 904 286 894 b 464 425 496 739 479 515 b 149 -33 440 286 357 93 b 110 -75 125 -47 113 -54 b 146 -114 108 -86 111 -114 b 560 425 186 -114 500 69 z "},"*":{"ha":729,"x_min":0,"x_max":0,"o":"m 683 297 b 669 335 688 321 672 333 b 519 424 639 358 553 404 l 683 506 b 725 551 701 515 721 525 b 678 597 726 557 733 597 l 489 497 b 521 665 497 533 514 625 b 485 724 522 678 531 724 b 429 665 439 724 431 678 b 406 497 422 625 408 533 l 269 585 b 240 597 253 597 250 597 b 186 551 213 597 190 572 b 213 507 182 525 196 517 l 350 425 l 186 343 b 144 297 168 333 149 325 b 192 251 143 292 136 251 l 381 351 b 349 183 372 315 356 224 b 385 125 347 171 339 125 b 440 183 431 125 439 171 b 464 351 447 224 461 315 b 582 274 542 304 494 332 b 629 251 615 251 618 251 b 683 297 657 251 679 276 z "},"+":{"ha":729,"x_min":0,"x_max":0,"o":"m 746 425 b 689 474 754 474 706 474 l 492 474 l 525 672 b 488 738 528 689 536 738 b 428 672 439 738 431 689 l 394 474 l 197 474 b 124 425 181 474 132 474 b 181 376 115 376 164 376 l 378 376 l 344 178 b 383 113 342 161 335 113 b 442 178 432 113 439 161 l 475 376 l 672 376 b 746 425 689 376 738 376 z "},",":{"ha":729,"x_min":0,"x_max":0,"o":"m 486 35 b 394 174 500 119 456 174 b 293 88 339 174 300 132 b 364 0 283 35 318 0 b 393 4 372 0 382 1 b 271 -110 357 -82 288 -104 b 225 -149 256 -114 229 -121 b 263 -193 222 -169 239 -193 b 486 35 307 -193 461 -118 z "},"-":{"ha":729,"x_min":0,"x_max":0,"o":"m 721 425 b 664 474 729 474 681 474 l 222 474 b 149 425 206 474 157 474 b 206 376 140 376 189 376 l 647 376 b 721 425 664 376 713 376 z "},".":{"ha":729,"x_min":0,"x_max":0,"o":"m 465 86 b 394 174 475 138 439 174 b 293 88 342 174 300 131 b 364 0 283 36 319 0 b 465 86 417 0 458 43 z "},"/":{"ha":729,"x_min":0,"x_max":0,"o":"m 800 915 b 760 964 804 940 788 964 b 704 925 729 964 715 943 l 86 -33 b 69 -67 72 -56 71 -56 b 110 -115 65 -92 82 -115 b 165 -76 140 -115 154 -94 l 783 882 b 800 915 797 904 799 904 z "},":":{"ha":729,"x_min":0,"x_max":0,"o":"m 536 511 b 465 599 546 563 510 599 b 364 513 413 599 371 556 b 435 425 354 461 390 425 b 536 511 488 425 529 468 z m 465 86 b 394 174 475 138 439 174 b 293 88 342 174 300 131 b 364 0 283 36 319 0 b 465 86 417 0 458 43 z "},";":{"ha":729,"x_min":0,"x_max":0,"o":"m 536 511 b 465 599 546 563 510 599 b 364 513 413 599 371 556 b 435 425 354 461 390 425 b 536 511 488 425 529 468 z m 465 38 b 393 174 481 129 446 174 b 293 88 343 174 300 135 b 369 0 286 49 301 0 b 258 -112 339 -75 282 -101 b 225 -149 250 -117 229 -126 b 263 -193 222 -169 239 -193 b 465 38 293 -193 439 -118 z "},"<":{"ha":729,"x_min":0,"x_max":0,"o":"m 671 126 b 646 174 675 153 660 164 l 289 425 l 729 676 b 771 724 746 686 767 697 b 731 772 776 756 753 772 b 692 758 718 772 714 771 l 188 471 b 149 425 174 463 153 451 b 167 382 146 407 154 392 l 581 92 b 614 78 599 79 601 78 b 671 126 636 78 665 94 z "},"=":{"ha":729,"x_min":0,"x_max":0,"o":"m 764 531 b 701 579 772 579 721 579 l 221 579 b 142 531 201 579 150 579 b 196 482 133 482 179 482 l 693 482 b 764 531 710 482 756 482 z m 728 319 b 674 368 736 368 690 368 l 176 368 b 106 319 160 368 114 368 b 169 271 99 271 150 271 l 650 271 b 728 319 669 271 721 271 z "},">":{"ha":729,"x_min":0,"x_max":0,"o":"m 721 425 b 703 468 724 443 715 458 l 289 758 b 256 772 272 771 268 772 b 199 724 233 772 204 756 b 224 676 194 697 210 686 l 581 425 l 140 174 b 99 126 124 164 103 153 b 139 78 93 94 117 78 b 178 92 151 78 157 79 l 683 379 b 721 425 697 388 717 399 z "},"?":{"ha":729,"x_min":0,"x_max":0,"o":"m 756 685 b 493 857 764 736 750 857 b 201 688 297 857 214 765 b 253 622 193 643 224 622 b 324 685 282 622 318 646 b 317 724 326 701 322 715 b 479 772 358 763 425 772 b 660 685 621 772 667 728 b 592 618 654 649 621 632 b 342 328 372 507 351 383 b 386 256 333 274 331 256 b 450 311 428 256 443 264 l 454 335 b 642 550 465 400 501 479 b 756 685 686 572 744 613 z m 424 69 b 367 139 431 108 406 139 b 285 69 328 139 292 108 b 343 0 279 31 304 0 b 424 69 382 0 418 31 z "},"@":{"ha":729,"x_min":0,"x_max":0,"o":"m 685 111 b 639 150 692 150 653 150 b 594 136 615 150 611 150 b 436 76 539 92 483 76 b 210 424 286 76 176 226 b 551 772 244 631 408 772 b 668 674 590 772 650 758 b 583 701 664 676 629 701 b 336 425 472 701 363 582 b 490 147 308 260 388 147 b 742 446 558 147 701 206 b 565 857 756 536 810 857 b 132 425 376 857 174 675 b 424 -8 90 176 229 -8 b 685 111 549 -8 679 71 z m 660 424 b 506 232 640 311 565 232 b 414 424 440 232 396 315 b 568 617 433 540 510 617 b 660 424 631 617 678 536 z "},"A":{"ha":729,"x_min":0,"x_max":0,"o":"m 697 42 b 681 81 700 60 696 74 b 621 85 672 85 642 85 l 574 811 b 508 865 571 864 551 865 b 425 813 468 865 446 865 l 135 85 b 75 82 115 85 83 85 b 44 42 58 74 47 60 b 97 0 38 0 74 0 l 239 0 b 304 42 264 0 297 0 b 233 85 311 85 283 85 l 290 229 l 515 229 l 522 85 b 438 42 472 85 444 85 b 489 0 431 0 464 0 l 631 0 b 697 42 654 0 690 0 z m 508 314 l 325 314 l 489 750 z "},"B":{"ha":729,"x_min":0,"x_max":0,"o":"m 708 232 b 564 444 724 328 672 418 b 746 633 658 475 732 547 b 543 849 763 735 697 849 l 229 849 b 167 807 210 849 174 849 b 217 764 160 764 194 764 l 254 764 l 140 85 l 103 85 b 39 42 81 85 46 85 b 88 0 32 0 68 0 l 429 0 b 708 232 586 0 690 124 z m 650 632 b 446 483 640 575 581 483 l 303 483 l 350 764 l 524 764 b 650 632 642 764 657 678 z m 613 235 b 413 85 601 167 533 85 l 236 85 l 289 399 l 481 399 b 613 235 599 399 624 297 z "},"C":{"ha":729,"x_min":0,"x_max":0,"o":"m 711 233 b 671 279 719 279 686 279 b 617 239 658 279 626 279 b 408 69 583 103 465 69 b 222 425 282 69 188 217 b 526 779 257 632 403 779 b 675 603 610 779 675 715 b 717 557 676 579 675 557 b 775 614 765 557 769 586 l 807 807 b 775 864 811 829 817 864 b 732 840 750 864 740 850 b 704 797 728 835 728 832 b 535 864 664 836 606 864 b 126 425 356 864 168 678 b 389 -15 85 171 208 -15 b 711 233 550 -15 690 108 z "},"D":{"ha":729,"x_min":0,"x_max":0,"o":"m 743 418 b 511 849 781 640 696 849 l 225 849 b 161 806 203 849 168 849 b 211 764 154 764 190 764 l 242 764 l 128 85 l 97 85 b 33 42 75 85 40 85 b 83 0 26 0 63 0 l 369 0 b 743 418 551 0 706 194 z m 647 418 b 357 85 621 256 511 85 l 224 85 l 338 764 l 471 764 b 647 418 628 764 675 579 z "},"E":{"ha":729,"x_min":0,"x_max":0,"o":"m 707 57 l 728 181 b 690 238 732 207 738 238 b 632 181 642 238 636 208 l 615 85 l 244 85 l 297 397 l 479 397 b 514 318 469 340 465 318 b 571 375 561 318 567 349 l 593 504 b 554 561 597 531 601 561 b 493 482 506 561 503 539 l 311 482 l 358 764 l 699 764 l 686 690 b 724 633 682 664 676 633 b 782 690 772 633 778 663 l 799 792 b 753 849 806 835 800 849 l 235 849 b 171 807 214 849 178 849 b 221 764 164 764 200 764 l 263 764 l 149 85 l 107 85 b 43 42 85 85 50 85 b 93 0 36 0 72 0 l 642 0 b 707 57 688 0 700 13 z "},"F":{"ha":729,"x_min":0,"x_max":0,"o":"m 796 690 l 813 792 b 767 849 819 835 814 849 l 238 849 b 174 806 215 849 181 849 b 224 764 167 764 203 764 l 269 764 l 156 85 l 110 85 b 46 42 88 85 53 85 b 96 0 39 0 75 0 l 310 0 b 372 42 331 0 365 0 b 324 85 379 85 346 85 l 251 85 l 301 382 l 490 382 b 525 303 481 325 476 303 b 582 360 572 303 578 333 l 604 489 b 567 546 608 515 614 546 b 504 467 518 546 514 524 l 315 467 l 365 764 l 713 764 l 700 690 b 738 633 696 664 690 633 b 796 690 786 633 792 663 z "},"G":{"ha":729,"x_min":0,"x_max":0,"o":"m 744 333 b 694 375 751 375 715 375 l 529 375 b 467 333 508 375 474 375 b 515 290 460 290 493 290 l 574 290 b 378 69 531 135 451 69 b 219 424 265 69 185 219 b 499 779 254 636 390 779 b 628 597 547 779 629 747 b 668 557 626 574 632 557 b 726 614 717 557 721 586 l 758 807 b 726 864 763 829 768 864 b 658 801 697 864 688 849 b 507 864 617 843 565 864 b 124 425 340 864 165 676 b 360 -15 81 169 194 -15 b 538 58 439 -15 504 26 b 576 0 532 28 528 0 b 633 57 624 0 629 31 l 672 290 b 744 333 706 290 738 290 z "},"H":{"ha":729,"x_min":0,"x_max":0,"o":"m 704 42 b 656 85 711 85 678 85 l 621 85 l 735 764 l 769 764 b 832 806 790 764 825 764 b 783 849 839 849 806 849 l 618 849 b 556 807 597 849 563 849 b 604 764 549 764 582 764 l 639 764 l 592 483 l 297 483 l 344 764 l 379 764 b 442 806 400 764 435 764 b 393 849 449 849 415 849 l 228 849 b 165 806 206 849 172 849 b 214 764 158 764 193 764 l 249 764 l 135 85 l 100 85 b 38 42 78 85 44 85 b 86 0 31 0 65 0 l 251 0 b 314 42 272 0 307 0 b 265 85 321 85 288 85 l 231 85 l 283 399 l 578 399 l 525 85 l 490 85 b 428 43 469 85 435 85 b 476 0 421 0 454 0 l 642 0 b 704 42 663 0 697 0 z "},"I":{"ha":729,"x_min":0,"x_max":0,"o":"m 626 42 b 576 85 633 85 597 85 l 426 85 l 540 764 l 690 764 b 754 806 711 764 747 764 b 704 849 761 849 725 849 l 308 849 b 244 807 288 849 251 849 b 294 764 238 764 274 764 l 444 764 l 331 85 l 181 85 b 117 43 160 85 124 85 b 167 0 110 0 146 0 l 563 0 b 626 42 583 0 619 0 z "},"J":{"ha":729,"x_min":0,"x_max":0,"o":"m 799 807 b 749 849 806 849 769 849 l 497 849 b 433 807 476 849 440 849 b 483 764 426 764 463 764 l 597 764 l 501 194 b 340 69 482 76 367 69 b 229 106 329 69 263 69 b 246 142 236 113 242 119 b 194 203 251 175 229 203 b 122 138 163 203 129 182 b 326 -15 107 50 188 -15 b 596 186 450 -15 575 60 l 693 764 l 735 764 b 799 807 757 764 792 764 z "},"K":{"ha":729,"x_min":0,"x_max":0,"o":"m 694 42 b 629 85 701 85 669 85 b 622 101 628 90 624 99 l 467 497 l 722 764 b 808 807 772 764 801 764 b 758 849 815 849 778 849 l 636 849 b 572 806 615 849 579 849 b 622 764 565 764 603 764 l 267 394 l 329 764 l 360 764 b 424 806 381 764 417 764 b 374 849 431 849 396 849 l 235 849 b 171 807 214 849 178 849 b 221 764 164 764 199 764 l 251 764 l 138 85 l 107 85 b 43 43 86 85 50 85 b 93 0 36 0 71 0 l 232 0 b 296 42 253 0 289 0 b 246 85 303 85 268 85 l 215 85 l 246 269 l 403 432 l 539 85 b 476 43 519 85 483 85 b 526 0 469 0 504 0 l 631 0 b 694 42 651 0 688 0 z "},"L":{"ha":729,"x_min":0,"x_max":0,"o":"m 688 57 l 708 181 b 671 238 713 208 718 238 b 613 181 622 238 617 210 l 596 85 l 261 85 l 375 764 l 453 764 b 517 806 472 764 510 764 b 467 849 524 849 488 849 l 242 849 b 179 806 219 849 186 849 b 228 764 172 764 207 764 l 279 764 l 165 85 l 114 85 b 51 42 92 85 58 85 b 100 0 44 0 79 0 l 622 0 b 688 57 668 0 681 13 z "},"M":{"ha":729,"x_min":0,"x_max":0,"o":"m 711 42 b 644 85 718 85 689 85 l 758 764 b 839 807 803 764 832 764 b 790 849 846 849 811 849 l 713 849 b 628 793 656 849 647 829 l 489 513 b 429 382 464 463 444 422 l 428 382 b 361 815 425 447 363 807 b 299 849 353 849 318 849 l 221 849 b 158 807 200 849 165 849 b 225 764 151 764 181 764 l 111 85 b 31 42 67 85 38 85 b 79 0 24 0 58 0 l 193 0 b 256 42 214 0 249 0 b 189 85 263 85 233 85 l 300 747 l 301 747 b 353 399 306 683 350 417 b 374 304 358 367 368 314 b 411 283 379 293 394 283 b 465 314 429 283 450 294 b 676 747 471 322 647 674 l 678 747 l 567 85 b 486 42 522 85 493 85 b 535 0 479 0 514 0 l 649 0 b 711 42 669 0 704 0 z "},"N":{"ha":729,"x_min":0,"x_max":0,"o":"m 824 806 b 775 849 831 849 797 849 l 628 849 b 565 806 606 849 572 849 b 614 764 558 764 593 764 l 649 764 l 539 104 l 538 104 l 397 799 b 331 849 388 844 368 849 l 236 849 b 174 807 215 849 181 849 b 222 764 167 764 200 764 l 257 764 l 143 85 l 108 85 b 46 43 88 85 53 85 b 94 0 39 0 72 0 l 242 0 b 304 42 263 0 297 0 b 256 85 311 85 278 85 l 221 85 l 331 744 l 332 744 l 472 50 b 540 0 482 1 504 0 b 608 57 582 0 600 4 l 726 764 l 761 764 b 824 806 782 764 817 764 z "},"O":{"ha":729,"x_min":0,"x_max":0,"o":"m 721 424 b 508 864 788 825 765 864 b 149 424 251 864 215 826 b 361 -15 82 22 104 -15 b 721 424 617 -15 654 22 z m 626 436 b 568 176 613 350 596 251 b 375 69 540 99 499 69 b 218 168 253 69 224 99 b 246 436 214 239 233 360 b 303 681 261 522 276 617 b 494 779 335 763 381 779 b 653 690 599 779 644 767 b 626 436 658 625 642 521 z "},"P":{"ha":729,"x_min":0,"x_max":0,"o":"m 765 594 b 546 849 788 724 706 849 l 235 849 b 171 807 214 849 178 849 b 221 764 164 764 200 764 l 263 764 l 149 85 l 107 85 b 43 42 85 85 50 85 b 93 0 36 0 72 0 l 272 0 b 336 42 293 0 329 0 b 286 85 343 85 307 85 l 244 85 l 288 340 l 461 340 b 765 594 622 340 744 465 z m 669 594 b 449 425 658 521 582 425 l 301 425 l 358 764 l 506 764 b 669 594 639 764 682 668 z "},"Q":{"ha":729,"x_min":0,"x_max":0,"o":"m 721 424 b 508 864 788 825 765 864 b 149 424 251 864 215 826 b 361 -15 82 22 104 -15 b 439 -14 379 -15 424 -15 l 497 -176 b 543 -193 506 -193 521 -193 l 556 -193 b 604 -167 576 -193 600 -193 b 576 -78 606 -158 586 -108 b 544 6 568 -60 550 -12 b 674 192 610 31 643 79 b 721 424 694 267 710 360 z m 625 425 b 511 94 576 135 546 115 l 465 215 b 428 238 456 236 456 238 l 413 238 b 363 211 393 238 368 238 b 365 193 363 204 363 200 l 408 69 l 364 69 b 217 183 239 69 218 108 b 244 424 217 254 232 349 b 300 675 257 501 275 608 b 494 779 331 751 367 779 b 653 665 618 779 653 756 b 625 425 653 594 638 500 z "},"R":{"ha":729,"x_min":0,"x_max":0,"o":"m 747 129 b 706 174 754 174 721 174 b 651 132 692 174 660 174 b 614 69 650 121 638 69 b 599 207 575 69 586 133 b 608 338 613 294 615 306 b 554 422 597 378 571 407 b 704 615 654 474 694 558 b 474 849 724 735 638 849 l 228 849 b 165 806 206 849 172 849 b 214 764 158 764 193 764 l 249 764 l 135 85 l 100 85 b 38 42 78 85 44 85 b 86 0 31 0 65 0 l 251 0 b 314 42 272 0 307 0 b 265 85 321 85 288 85 l 231 85 l 281 382 l 389 382 b 494 343 415 382 457 382 b 506 225 521 314 515 283 b 503 49 490 135 483 93 b 601 -15 519 7 554 -15 b 747 129 689 -15 738 76 z m 608 615 b 394 467 597 547 521 467 l 294 467 l 344 764 l 444 764 b 608 615 572 764 619 682 z "},"S":{"ha":729,"x_min":0,"x_max":0,"o":"m 694 231 b 656 396 708 319 668 378 b 467 486 607 451 571 461 l 358 511 b 269 642 303 528 258 576 b 460 779 282 713 361 779 b 624 606 624 779 622 649 b 664 567 622 575 636 567 b 722 624 713 567 718 596 l 753 807 b 721 864 757 829 763 864 b 658 799 688 864 676 840 b 475 864 610 847 538 864 b 178 636 321 864 199 754 b 321 418 163 543 211 451 l 475 381 b 603 224 513 372 622 344 b 407 69 590 151 517 69 b 253 113 368 69 301 75 b 207 233 200 150 204 208 b 168 282 210 257 213 282 b 110 225 119 282 114 253 l 79 42 b 111 -15 75 19 69 -15 b 174 49 142 -15 154 4 b 392 -15 222 7 303 -15 b 694 231 553 -15 674 107 z "},"T":{"ha":729,"x_min":0,"x_max":0,"o":"m 807 690 l 824 792 b 778 849 831 835 825 849 l 235 849 b 168 792 189 849 176 838 l 151 690 b 189 633 147 664 142 633 b 247 690 238 633 243 663 l 260 764 l 444 764 l 331 85 l 258 85 b 196 43 238 85 203 85 b 244 0 189 0 222 0 l 485 0 b 547 42 506 0 540 0 b 499 85 554 85 521 85 l 426 85 l 540 764 l 724 764 l 711 690 b 749 633 707 664 701 633 b 807 690 797 633 803 663 z "},"U":{"ha":729,"x_min":0,"x_max":0,"o":"m 857 807 b 807 849 864 849 828 849 l 628 849 b 564 807 607 849 571 849 b 614 764 557 764 593 764 l 656 764 l 576 290 b 375 69 551 142 447 69 b 249 290 301 69 224 142 l 328 764 l 369 764 b 433 807 390 764 426 764 b 383 849 440 849 404 849 l 204 849 b 140 807 183 849 147 849 b 190 764 133 764 169 764 l 232 764 l 151 283 b 361 -15 124 113 222 -15 b 671 283 500 -15 643 113 l 751 764 l 793 764 b 857 807 815 764 850 764 z "},"V":{"ha":729,"x_min":0,"x_max":0,"o":"m 838 807 b 788 849 844 849 808 849 l 646 849 b 582 807 625 849 589 849 b 653 764 575 764 604 764 l 475 339 b 381 100 444 265 400 160 l 379 100 b 375 224 381 149 379 172 l 331 764 b 415 807 379 764 408 764 b 365 849 422 849 386 849 l 224 849 b 160 807 203 849 167 849 b 232 764 153 764 182 764 l 294 42 b 363 -11 300 -11 322 -11 b 447 40 400 -11 426 -11 l 751 764 b 838 807 801 764 831 764 z "},"W":{"ha":729,"x_min":0,"x_max":0,"o":"m 847 806 b 797 849 854 849 818 849 l 688 849 b 625 806 665 849 632 849 b 674 764 618 764 653 764 l 708 764 l 569 301 b 515 106 544 217 522 144 l 514 106 b 500 478 519 194 500 469 b 449 510 493 510 461 510 b 389 479 435 510 407 510 b 250 106 382 469 271 192 l 249 106 b 256 214 250 113 253 139 l 275 764 l 310 764 b 372 806 331 764 365 764 b 324 849 379 849 346 849 l 214 849 b 150 806 193 849 157 849 b 194 764 143 764 182 764 l 196 764 l 175 38 b 224 -11 174 -11 207 -11 b 282 17 236 -11 264 -11 b 432 407 288 26 417 351 l 433 407 b 451 24 428 344 450 26 b 501 -11 456 -11 492 -11 b 567 38 518 -11 551 -11 l 788 764 b 847 806 803 764 840 764 z "},"X":{"ha":729,"x_min":0,"x_max":0,"o":"m 696 42 b 646 85 703 85 667 85 l 614 85 l 479 453 l 689 764 l 719 764 b 783 806 740 764 776 764 b 733 849 790 849 754 849 l 589 849 b 526 807 568 849 533 849 b 583 764 519 764 551 764 l 450 561 l 378 764 b 444 807 406 764 438 764 b 396 849 451 849 417 849 l 251 849 b 188 807 231 849 194 849 b 238 764 181 764 217 764 l 269 764 l 383 451 l 138 85 l 107 85 b 44 42 85 85 51 85 b 93 0 38 0 72 0 l 238 0 b 301 42 258 0 294 0 b 243 85 308 85 275 85 l 417 354 l 508 85 b 439 42 476 85 446 85 b 488 0 432 0 467 0 l 632 0 b 696 42 653 0 689 0 z "},"Y":{"ha":729,"x_min":0,"x_max":0,"o":"m 836 806 b 788 849 843 849 810 849 l 643 849 b 581 807 622 849 588 849 b 638 764 574 764 604 764 l 436 436 b 346 764 429 507 354 735 b 417 807 379 764 410 764 b 368 849 424 849 389 849 l 224 849 b 161 807 203 849 168 849 b 210 764 154 764 188 764 l 239 764 l 374 339 l 331 85 l 296 85 b 233 43 275 85 240 85 b 282 0 226 0 260 0 l 447 0 b 510 42 468 0 503 0 b 461 85 517 85 483 85 l 426 85 l 469 339 l 744 764 l 774 764 b 836 806 794 764 829 764 z "},"Z":{"ha":729,"x_min":0,"x_max":0,"o":"m 678 57 l 699 185 b 661 242 703 211 708 242 b 603 185 613 242 608 213 l 586 85 l 204 85 l 774 758 b 794 801 792 779 793 788 b 746 849 803 849 772 849 l 282 849 b 215 792 236 849 224 838 l 199 690 b 236 633 194 664 189 633 b 294 690 285 633 290 663 l 307 764 l 665 764 l 96 90 b 75 47 78 69 76 61 b 124 0 67 0 97 0 l 613 0 b 678 57 658 0 671 13 z "},"[":{"ha":729,"x_min":0,"x_max":0,"o":"m 658 -74 b 610 -31 665 -31 632 -31 l 399 -31 l 551 879 l 763 879 b 825 921 783 879 818 879 b 776 964 832 964 799 964 l 525 964 b 460 907 479 964 467 951 l 299 -58 b 344 -115 292 -101 297 -115 l 596 -115 b 658 -74 617 -115 651 -115 z "},"\\":{"ha":729,"x_min":0,"x_max":0,"o":"m 636 -67 b 632 -33 638 -56 635 -42 l 332 926 b 290 964 328 940 321 964 b 233 915 263 964 238 940 b 238 882 232 904 235 890 l 538 -78 b 579 -115 542 -92 549 -115 b 636 -67 607 -115 632 -92 z "},"]":{"ha":729,"x_min":0,"x_max":0,"o":"m 410 -58 l 571 907 b 525 964 578 950 572 964 l 274 964 b 211 922 253 964 218 964 b 260 879 204 879 238 879 l 471 879 l 318 -31 l 107 -31 b 44 -72 86 -31 51 -31 b 93 -115 38 -115 71 -115 l 344 -115 b 410 -58 390 -115 403 -103 z "},"^":{"ha":729,"x_min":0,"x_max":0,"o":"m 733 754 l 525 864 b 493 864 515 868 503 868 l 249 754 b 268 679 196 731 217 658 l 492 769 l 688 679 b 733 754 732 658 778 731 z "},"_":{"ha":729,"x_min":0,"x_max":0,"o":"m 619 -183 b 563 -135 628 -135 579 -135 l 121 -135 b 47 -183 104 -135 56 -135 b 104 -232 39 -232 88 -232 l 546 -232 b 619 -183 563 -232 611 -232 z "},"`":{"ha":729,"x_min":0,"x_max":0,"o":"m 633 733 b 606 774 638 758 624 765 l 435 857 b 410 864 421 864 410 864 b 353 815 382 864 357 843 b 383 767 350 800 353 782 l 554 685 b 578 678 563 681 568 678 b 633 733 614 678 632 722 z "},"a":{"ha":729,"x_min":0,"x_max":0,"o":"m 735 43 b 686 85 742 85 707 85 b 606 96 628 85 615 92 l 656 396 b 415 611 671 494 615 611 b 197 510 356 611 214 611 b 250 446 190 468 217 446 b 321 510 271 446 311 458 b 353 525 324 521 325 522 b 403 526 372 526 390 526 b 557 385 508 526 574 483 b 106 178 311 381 128 311 b 304 -8 90 82 163 -8 b 515 44 356 -8 443 1 b 658 0 539 1 606 0 b 735 43 697 0 728 0 z m 524 186 b 456 100 519 154 514 125 b 328 76 401 76 339 76 b 201 178 242 76 193 124 b 543 303 214 246 342 297 z "},"b":{"ha":729,"x_min":0,"x_max":0,"o":"m 728 300 b 508 607 757 471 656 607 b 321 539 442 607 375 582 l 363 792 b 317 849 369 835 364 849 l 215 849 b 151 806 193 849 158 849 b 200 764 144 764 181 764 l 263 764 l 144 57 b 183 0 140 29 135 0 b 242 63 231 0 235 28 b 390 -8 289 4 346 -8 b 728 300 542 -8 699 124 z m 632 300 b 400 76 610 167 497 76 b 275 265 292 76 264 199 l 292 367 b 486 522 306 449 399 522 b 632 300 589 522 653 421 z "},"c":{"ha":729,"x_min":0,"x_max":0,"o":"m 672 151 b 631 190 679 190 639 190 b 579 160 608 190 594 188 b 428 76 568 142 531 76 b 247 300 310 76 226 174 b 511 526 258 367 324 526 b 593 514 540 526 594 526 b 643 446 586 465 610 446 b 715 510 676 446 708 469 b 525 611 732 611 588 611 b 151 300 286 611 172 422 b 406 -8 124 133 231 -8 b 672 151 599 -8 668 128 z "},"d":{"ha":729,"x_min":0,"x_max":0,"o":"m 718 43 b 669 85 725 85 689 85 l 607 85 l 725 792 b 679 849 732 835 726 849 l 578 849 b 514 806 556 849 521 849 b 563 764 507 764 543 764 l 625 764 l 588 544 b 436 607 549 585 496 607 b 100 299 285 607 129 475 b 321 -8 71 126 174 -8 b 508 69 399 -8 464 29 b 553 0 500 19 497 0 l 654 0 b 718 43 676 0 711 0 z m 542 269 b 340 76 529 192 447 76 b 196 299 242 76 175 175 b 428 522 218 432 331 522 b 558 368 517 522 571 444 z "},"e":{"ha":729,"x_min":0,"x_max":0,"o":"m 669 151 b 628 190 676 190 636 190 b 576 160 603 190 590 186 b 418 76 535 89 457 76 b 219 265 314 76 222 146 l 633 265 b 697 317 663 265 689 265 b 476 611 724 475 657 611 b 126 301 311 611 156 472 b 394 -8 99 132 215 -8 b 669 151 578 -8 664 117 z m 604 349 l 235 349 b 463 526 271 450 365 526 b 604 349 535 526 615 492 z "},"f":{"ha":729,"x_min":0,"x_max":0,"o":"m 736 774 b 617 857 750 857 639 857 b 368 672 506 857 388 793 l 356 599 l 217 599 b 153 556 194 599 160 599 b 201 514 146 514 181 514 l 342 514 l 269 85 l 129 85 b 65 43 108 85 72 85 b 115 0 58 0 94 0 l 492 0 b 556 42 513 0 549 0 b 506 85 563 85 526 85 l 365 85 l 438 514 l 607 514 b 669 556 628 514 663 514 b 621 599 676 599 643 599 l 451 599 l 463 664 b 615 772 481 772 574 772 b 667 713 614 767 618 713 b 736 774 694 713 729 735 z "},"g":{"ha":729,"x_min":0,"x_max":0,"o":"m 797 539 b 708 614 803 571 783 614 b 553 565 693 614 625 613 b 425 607 533 581 489 607 b 158 385 294 607 178 503 b 181 253 149 325 165 279 b 138 158 163 231 144 200 b 153 58 129 110 143 75 b 21 -114 39 -4 24 -99 b 311 -318 1 -233 133 -318 b 668 -114 489 -318 649 -232 b 599 44 676 -62 664 7 b 404 85 583 54 529 85 l 307 85 b 268 88 296 85 278 85 b 225 107 247 88 239 88 b 217 157 213 126 217 157 b 232 196 218 163 224 182 b 350 161 235 193 282 161 b 617 385 478 161 596 261 b 601 506 624 426 618 467 b 686 529 633 522 667 528 b 732 482 688 492 718 482 b 797 539 756 482 790 499 z m 521 385 b 364 244 508 306 436 244 b 254 383 289 244 242 310 b 411 524 268 463 339 524 b 521 385 486 524 533 458 z m 588 -114 b 325 -235 578 -175 464 -235 b 101 -114 186 -235 92 -175 b 175 -17 106 -89 126 -44 b 328 6 214 6 226 6 b 588 -114 451 6 608 6 z "},"h":{"ha":729,"x_min":0,"x_max":0,"o":"m 718 42 b 668 85 725 85 690 85 l 607 85 l 661 407 b 514 607 685 547 624 607 b 319 533 421 607 350 560 l 363 792 b 317 849 369 835 364 849 l 215 849 b 151 806 193 849 158 849 b 200 764 144 764 181 764 l 263 764 l 149 85 l 88 85 b 24 42 65 85 31 85 b 72 0 17 0 53 0 l 293 0 b 356 42 313 0 349 0 b 306 85 363 85 328 85 l 244 85 l 286 331 b 492 522 308 469 421 522 b 564 400 565 522 578 483 l 511 85 l 457 85 b 393 42 435 85 400 85 b 443 0 386 0 424 0 l 656 0 b 718 42 675 0 711 0 z "},"i":{"ha":729,"x_min":0,"x_max":0,"o":"m 639 42 b 589 85 646 85 610 85 l 443 85 l 519 542 b 474 599 526 585 521 599 l 276 599 b 213 557 256 599 219 599 b 263 514 206 514 242 514 l 419 514 l 347 85 l 179 85 b 115 42 157 85 122 85 b 165 0 108 0 144 0 l 575 0 b 639 42 596 0 632 0 z m 564 771 b 506 840 569 810 544 840 b 425 771 467 840 431 810 b 482 701 418 732 443 701 b 564 771 521 701 557 732 z "},"j":{"ha":729,"x_min":0,"x_max":0,"o":"m 501 -61 l 601 542 b 556 599 608 585 603 599 l 336 599 b 272 556 314 599 279 599 b 321 514 265 514 300 514 l 501 514 l 406 -54 b 349 -179 403 -78 393 -131 b 228 -232 303 -232 260 -232 b 151 -226 188 -232 171 -229 b 156 -210 153 -222 154 -219 b 104 -147 161 -171 133 -147 b 32 -211 72 -147 38 -171 b 207 -317 14 -317 150 -317 b 501 -61 408 -317 486 -150 z m 642 771 b 583 840 647 810 622 840 b 503 771 544 840 508 810 b 560 701 496 732 521 701 b 642 771 599 701 635 732 z "},"k":{"ha":729,"x_min":0,"x_max":0,"o":"m 713 42 b 663 85 719 85 683 85 l 619 85 l 458 354 l 656 514 l 704 514 b 768 556 725 514 761 514 b 718 599 775 599 739 599 l 504 599 b 442 556 482 599 449 599 b 490 514 435 514 469 514 l 542 514 l 281 303 l 363 792 b 317 849 369 835 364 849 l 226 849 b 164 807 206 849 171 849 b 213 764 157 764 190 764 l 281 764 l 167 85 l 99 85 b 36 43 78 85 43 85 b 85 0 29 0 63 0 l 299 0 b 361 42 319 0 354 0 b 313 85 368 85 335 85 l 244 85 l 264 197 l 392 300 l 521 85 b 436 42 471 85 443 85 b 485 0 429 0 464 0 l 649 0 b 713 42 669 0 706 0 z "},"l":{"ha":729,"x_min":0,"x_max":0,"o":"m 656 42 b 607 85 663 85 629 85 l 426 85 l 544 792 b 499 849 551 835 546 849 l 279 849 b 215 806 257 849 222 849 b 264 764 208 764 244 764 l 444 764 l 331 85 l 151 85 b 88 42 129 85 94 85 b 136 0 81 0 117 0 l 593 0 b 656 42 614 0 649 0 z "},"m":{"ha":729,"x_min":0,"x_max":0,"o":"m 724 42 b 651 85 731 85 701 85 l 708 421 b 615 607 713 449 739 607 b 465 535 574 607 514 589 b 372 607 453 582 418 607 b 244 557 328 607 283 588 b 196 599 249 599 221 599 l 151 599 b 88 557 131 599 94 599 b 160 514 81 514 110 514 l 88 85 b 1 42 38 85 8 85 b 51 0 -6 0 32 0 l 174 0 b 238 42 194 0 231 0 b 165 85 244 85 215 85 l 207 333 b 353 522 228 457 296 522 b 385 408 385 522 400 499 l 331 85 b 263 42 304 85 269 85 b 313 0 256 0 293 0 l 417 0 b 481 42 438 0 474 0 b 408 85 488 85 458 85 l 450 333 b 596 522 471 457 539 522 b 628 408 628 522 643 499 l 574 85 b 506 42 547 85 513 85 b 556 0 499 0 536 0 l 660 0 b 724 42 681 0 717 0 z "},"n":{"ha":729,"x_min":0,"x_max":0,"o":"m 718 42 b 668 85 725 85 690 85 l 607 85 l 661 407 b 514 607 685 547 624 607 b 319 533 421 607 350 560 b 275 599 326 578 331 599 l 174 599 b 110 556 151 599 117 599 b 158 514 103 514 139 514 l 221 514 l 149 85 l 88 85 b 24 42 65 85 31 85 b 72 0 17 0 53 0 l 293 0 b 356 42 313 0 349 0 b 306 85 363 85 328 85 l 244 85 l 286 331 b 492 522 308 469 421 522 b 564 400 565 522 578 483 l 511 85 l 457 85 b 393 42 435 85 400 85 b 443 0 386 0 424 0 l 656 0 b 718 42 675 0 711 0 z "},"o":{"ha":729,"x_min":0,"x_max":0,"o":"m 699 300 b 465 611 728 474 621 611 b 129 300 310 611 158 474 b 363 -8 100 124 210 -8 b 699 300 515 -8 669 125 z m 604 310 b 376 76 583 181 479 76 b 226 310 274 76 206 181 b 451 526 247 436 353 526 b 604 310 551 526 625 436 z "},"p":{"ha":729,"x_min":0,"x_max":0,"o":"m 728 300 b 508 607 757 471 656 607 b 321 539 442 607 375 582 b 275 599 328 579 328 599 l 174 599 b 110 556 151 599 117 599 b 158 514 103 514 139 514 l 221 514 l 97 -224 l 36 -224 b -28 -267 14 -224 -21 -224 b 21 -308 -35 -308 1 -308 l 242 -308 b 304 -267 261 -308 297 -308 b 254 -224 311 -224 276 -224 l 193 -224 l 242 63 b 390 -8 289 4 346 -8 b 728 300 542 -8 699 124 z m 632 300 b 400 76 610 167 497 76 b 275 265 292 76 264 199 l 292 367 b 486 522 306 449 399 522 b 632 300 589 522 653 421 z "},"q":{"ha":729,"x_min":0,"x_max":0,"o":"m 701 -267 b 653 -224 708 -224 675 -224 l 585 -224 l 714 550 b 676 607 718 576 724 607 b 615 531 628 607 624 583 b 454 607 585 571 533 607 b 106 299 299 607 135 475 b 338 -8 76 126 185 -8 b 539 75 432 -8 504 43 l 489 -224 l 421 -224 b 358 -265 400 -224 365 -224 b 407 -308 351 -308 385 -308 l 639 -308 b 701 -267 660 -308 694 -308 z m 571 269 b 357 76 558 190 471 76 b 201 299 254 76 181 174 b 447 522 222 426 336 522 b 581 324 551 522 596 415 z "},"r":{"ha":729,"x_min":0,"x_max":0,"o":"m 764 521 b 646 607 768 549 761 607 b 390 494 575 607 482 582 l 399 542 b 353 599 406 585 400 599 l 200 599 b 138 557 179 599 144 599 b 186 514 131 514 164 514 l 299 514 l 226 85 l 114 85 b 51 43 93 85 58 85 b 100 0 44 0 78 0 l 463 0 b 526 42 483 0 519 0 b 476 85 533 85 497 85 l 322 85 l 351 258 b 646 522 374 389 478 522 b 694 461 642 489 660 461 b 764 521 725 461 757 483 z "},"s":{"ha":729,"x_min":0,"x_max":0,"o":"m 667 174 b 474 354 690 318 517 347 l 382 371 b 260 447 342 376 250 393 b 449 526 265 483 317 526 b 575 449 564 526 576 485 b 614 401 572 425 571 401 b 672 458 663 401 668 431 l 689 554 b 656 611 692 576 697 611 b 610 582 622 611 614 592 b 465 611 553 611 492 611 b 175 447 233 611 183 497 b 419 276 153 319 296 296 b 582 174 486 265 594 247 b 388 76 574 122 514 76 b 231 200 322 76 247 92 b 189 240 228 225 225 240 b 131 183 140 240 135 211 l 108 49 b 140 -8 104 26 99 -8 b 200 44 153 -8 175 -7 b 372 -8 260 -6 333 -8 b 667 174 592 -8 656 107 z "},"t":{"ha":729,"x_min":0,"x_max":0,"o":"m 653 175 b 614 229 657 200 663 229 b 557 176 568 229 561 200 b 428 76 542 90 460 76 b 339 183 321 76 333 149 l 394 514 l 622 514 b 685 556 643 514 678 514 b 636 599 692 599 658 599 l 408 599 l 428 713 b 389 769 432 739 436 769 b 332 713 340 769 336 740 l 313 599 l 192 599 b 128 556 169 599 135 599 b 176 514 121 514 156 514 l 299 514 l 242 175 b 407 -8 219 42 306 -8 b 653 175 510 -8 632 51 z "},"u":{"ha":729,"x_min":0,"x_max":0,"o":"m 718 43 b 669 85 725 85 689 85 l 607 85 l 683 542 b 638 599 690 585 685 599 l 536 599 b 472 556 514 599 479 599 b 521 514 465 514 501 514 l 583 514 l 533 218 b 353 76 513 93 397 76 b 258 167 243 76 251 122 l 321 542 b 275 599 328 585 322 599 l 174 599 b 110 556 151 599 117 599 b 158 514 103 514 139 514 l 221 514 l 161 158 b 331 -8 139 25 229 -8 b 504 44 388 -8 447 6 b 553 0 499 0 528 0 l 654 0 b 718 43 676 0 711 0 z "},"v":{"ha":729,"x_min":0,"x_max":0,"o":"m 788 556 b 739 599 794 599 761 599 l 576 599 b 514 557 556 599 521 599 b 563 514 507 514 540 514 l 601 514 l 375 67 l 299 514 l 338 514 b 400 556 358 514 393 514 b 351 599 407 599 374 599 l 189 599 b 126 556 167 599 133 599 b 175 514 119 514 154 514 l 217 514 l 297 42 b 363 -6 306 -6 333 -6 b 444 40 389 -6 421 -6 l 683 514 l 725 514 b 788 556 746 514 781 514 z "},"w":{"ha":729,"x_min":0,"x_max":0,"o":"m 799 557 b 747 599 806 599 772 599 l 588 599 b 522 557 563 599 529 599 b 574 514 515 514 547 514 l 642 514 l 503 100 l 501 100 b 488 257 501 136 494 200 b 426 360 476 344 475 360 b 367 329 413 360 386 360 b 263 100 360 319 272 128 l 261 100 l 258 514 l 326 514 b 392 556 351 514 385 514 b 340 599 399 599 367 599 l 181 599 b 115 557 156 599 122 599 b 179 514 108 514 138 514 l 185 47 b 240 -6 185 15 185 -6 b 342 92 296 -6 303 7 b 411 264 397 214 401 233 l 413 264 b 435 18 407 192 432 29 b 489 -6 447 -6 472 -6 b 560 47 540 -6 549 17 l 721 514 b 799 557 763 514 792 514 z "},"x":{"ha":729,"x_min":0,"x_max":0,"o":"m 696 42 b 646 85 703 85 667 85 l 590 85 l 450 308 l 643 514 l 699 514 b 763 556 718 514 756 514 b 713 599 769 599 733 599 l 550 599 b 488 557 529 599 494 599 b 549 514 481 514 511 514 l 422 374 l 340 514 b 414 557 376 514 407 514 b 365 599 421 599 386 599 l 203 599 b 139 556 182 599 146 599 b 189 514 132 514 169 514 l 244 514 l 374 308 l 164 85 l 108 85 b 44 42 88 85 51 85 b 94 0 38 0 75 0 l 257 0 b 319 42 278 0 313 0 b 254 85 326 85 297 85 l 403 256 l 497 85 b 421 42 458 85 428 85 b 469 0 414 0 449 0 l 632 0 b 696 42 651 0 689 0 z "},"y":{"ha":729,"x_min":0,"x_max":0,"o":"m 788 556 b 739 599 794 599 761 599 l 576 599 b 514 557 556 599 521 599 b 563 514 507 514 540 514 l 601 514 l 451 218 b 396 99 425 167 413 142 l 394 99 b 379 181 392 125 385 154 l 306 514 l 340 514 b 403 556 361 514 396 514 b 354 599 410 599 376 599 l 192 599 b 129 556 169 599 136 599 b 178 514 122 514 157 514 l 221 514 l 335 18 b 338 0 339 4 338 0 b 260 -151 338 0 283 -117 b 135 -232 207 -228 156 -231 b 147 -201 135 -232 144 -219 b 97 -142 153 -167 132 -142 b 26 -203 60 -142 32 -167 b 122 -317 17 -261 54 -317 b 363 -118 261 -317 354 -133 l 683 514 l 725 514 b 788 556 746 514 781 514 z "},"z":{"ha":729,"x_min":0,"x_max":0,"o":"m 669 57 l 683 138 b 644 194 688 164 692 194 b 588 138 596 194 592 165 l 578 85 l 204 85 l 707 496 b 746 551 740 524 742 528 b 697 599 754 599 724 599 l 225 599 b 158 542 179 599 167 588 l 147 478 b 186 421 143 451 139 421 b 243 478 235 421 239 450 l 250 514 l 596 514 l 93 103 b 54 47 60 75 58 71 b 103 0 46 0 76 0 l 629 0 b 669 57 661 8 665 36 z "},"{":{"ha":729,"x_min":0,"x_max":0,"o":"m 636 -72 b 596 -31 643 -32 608 -31 b 424 67 408 -26 417 24 l 461 290 b 403 424 467 325 472 382 b 503 539 467 458 496 504 l 533 722 b 554 824 539 757 549 813 b 760 879 588 876 711 879 b 803 921 768 879 797 888 b 751 964 810 964 776 964 b 456 824 654 964 500 946 b 435 707 453 815 442 746 l 414 582 b 349 489 406 532 401 511 b 193 467 294 468 225 467 b 150 425 185 467 156 458 b 190 382 143 383 176 382 b 367 301 226 381 376 376 l 329 71 b 376 -74 322 29 311 -33 b 571 -115 429 -106 504 -115 b 636 -72 596 -115 629 -115 z "},"|":{"ha":729,"x_min":0,"x_max":0,"o":"m 404 -50 l 563 899 b 525 964 565 915 574 964 b 465 899 476 964 468 915 l 307 -50 b 344 -115 304 -67 296 -115 b 404 -50 393 -115 401 -67 z "},"}":{"ha":729,"x_min":0,"x_max":0,"o":"m 719 424 b 679 467 726 465 693 467 b 504 549 646 468 494 471 l 543 781 b 494 922 549 819 560 882 b 299 964 433 958 347 964 b 233 921 275 964 240 964 b 272 879 226 885 253 879 b 447 781 463 876 454 826 l 410 557 b 468 425 400 501 414 457 b 368 310 383 381 369 315 l 328 63 b 110 -31 321 22 313 -28 b 67 -72 101 -31 72 -39 b 118 -115 60 -115 94 -115 b 415 25 239 -115 375 -87 b 436 142 418 33 429 103 l 457 267 b 522 360 465 317 469 338 b 676 382 576 381 643 382 b 719 424 685 382 714 390 z "},"~":{"ha":729,"x_min":0,"x_max":0,"o":"m 686 464 b 650 508 689 486 672 508 b 614 493 635 508 625 501 b 507 432 567 454 526 432 b 468 461 493 432 483 444 b 383 508 454 479 431 508 b 268 463 346 508 303 486 b 186 386 236 442 190 411 b 222 342 183 364 200 342 b 258 357 238 342 247 349 b 365 418 307 396 346 418 b 404 389 379 418 389 406 b 489 342 419 371 442 342 b 606 388 526 342 569 364 b 686 464 636 408 682 439 z "}," ":{"ha":729,"x_min":0,"x_max":0,"o":""},"¡":{"ha":729,"x_min":0,"x_max":0,"o":"m 513 471 b 454 540 518 510 493 540 b 374 471 415 540 379 510 b 431 401 367 432 392 401 b 513 471 469 401 506 432 z m 393 -244 l 438 81 l 461 250 b 411 285 465 285 428 285 b 343 218 363 285 356 274 l 297 -22 b 254 -244 285 -94 265 -171 b 310 -324 242 -318 297 -324 b 393 -244 322 -324 381 -318 z "},"¢":{"ha":729,"x_min":0,"x_max":0,"o":"m 672 151 b 631 190 679 190 639 190 b 579 160 608 190 594 188 b 457 78 569 143 539 89 l 532 526 b 593 514 560 526 594 524 b 643 446 586 465 610 446 b 715 510 676 446 708 469 b 546 611 731 601 614 610 l 558 685 b 522 728 563 708 546 728 b 472 685 499 728 476 708 l 460 606 b 151 300 265 575 169 410 b 357 -4 126 149 211 19 l 344 -86 b 379 -129 340 -110 356 -129 b 431 -86 403 -129 426 -110 l 443 -7 b 672 151 607 10 669 129 z m 372 85 b 247 300 285 110 229 194 b 444 519 257 358 307 486 z "},"£":{"ha":729,"x_min":0,"x_max":0,"o":"m 738 200 b 697 249 742 226 725 249 b 640 200 671 249 644 226 b 561 82 631 143 610 82 b 403 161 494 82 450 121 b 365 376 414 238 389 307 l 543 376 b 600 425 569 376 596 397 b 560 474 604 451 586 474 l 336 474 b 331 599 328 513 324 554 b 508 751 344 682 424 751 b 638 668 571 751 625 719 b 614 626 626 657 617 643 b 665 565 608 593 632 565 b 736 626 699 565 731 593 b 525 849 758 754 657 849 b 233 599 386 849 256 736 b 239 474 226 554 231 513 l 194 474 b 138 425 168 474 142 451 b 178 376 133 397 151 376 l 268 376 b 307 231 283 328 301 281 b 240 244 288 239 265 244 b 44 114 151 244 58 196 b 156 -15 32 42 82 -15 b 369 78 239 -15 324 19 b 544 -15 421 35 471 -15 b 738 200 643 -15 719 90 z m 299 129 b 172 82 276 94 222 82 b 142 114 153 82 139 96 b 225 147 147 146 189 147 b 299 129 253 147 276 140 z "},"¤":{"ha":729,"x_min":0,"x_max":0,"o":"m 619 204 b 621 285 660 239 631 272 l 593 317 b 642 425 618 349 635 385 b 629 533 649 465 643 501 l 667 564 b 690 644 679 576 719 611 b 608 633 664 679 622 644 l 572 601 b 471 632 544 621 510 632 b 357 601 431 632 392 621 l 329 635 b 251 646 319 646 292 681 b 249 565 210 611 239 578 l 276 532 b 229 425 253 501 236 464 b 240 318 222 386 228 349 l 203 286 b 179 206 190 274 150 239 b 261 217 207 171 247 206 l 299 249 b 401 218 326 229 361 218 b 514 249 440 218 479 229 l 540 215 b 619 204 551 204 578 169 z m 544 425 b 418 315 535 365 478 315 b 326 425 357 315 317 365 b 454 535 336 485 393 535 b 544 425 514 535 554 485 z "},"¥":{"ha":729,"x_min":0,"x_max":0,"o":"m 836 806 b 788 849 843 849 810 849 l 643 849 b 581 807 622 849 588 849 b 638 764 574 764 604 764 l 526 582 l 401 582 l 346 764 b 417 807 379 764 410 764 b 368 849 424 849 389 849 l 224 849 b 161 807 203 849 168 849 b 210 764 154 764 188 764 l 239 764 l 296 582 l 243 582 b 186 533 217 582 190 560 b 226 485 182 506 200 485 l 326 485 l 365 365 l 207 365 b 150 317 181 365 154 344 b 190 268 146 290 164 268 l 361 268 l 331 85 l 296 85 b 233 43 275 85 240 85 b 282 0 226 0 260 0 l 447 0 b 510 42 468 0 503 0 b 461 85 517 85 483 85 l 426 85 l 457 268 l 628 268 b 685 317 654 268 681 290 b 644 365 689 344 671 365 l 486 365 l 563 485 l 664 485 b 721 533 690 485 717 506 b 681 582 725 560 707 582 l 626 582 l 744 764 l 774 764 b 836 806 794 764 829 764 z m 467 485 l 436 436 b 428 485 436 449 432 465 z "},"¦":{"ha":729,"x_min":0,"x_max":0,"o":"m 507 565 l 563 899 b 525 964 565 915 574 964 b 465 899 476 964 468 915 l 410 565 b 451 522 406 540 425 522 b 507 565 478 522 503 540 z m 404 -50 l 460 283 b 418 326 464 308 444 326 b 363 283 392 326 367 308 l 307 -50 b 344 -115 304 -67 296 -115 b 404 -50 393 -115 401 -67 z "},"§":{"ha":729,"x_min":0,"x_max":0,"o":"m 725 269 b 560 500 744 381 664 463 l 425 549 b 304 660 364 571 294 596 b 493 767 317 733 408 767 b 644 725 556 767 624 761 b 626 688 636 715 628 701 b 676 626 621 654 643 626 b 749 688 710 626 743 654 b 510 864 768 806 643 864 b 207 660 372 864 228 786 b 224 565 201 624 208 593 b 121 425 171 536 131 483 b 286 194 103 314 183 232 l 422 146 b 542 35 483 124 553 99 b 353 -72 529 -39 438 -72 b 201 -31 290 -72 222 -67 b 221 7 210 -21 218 -7 b 169 68 226 40 203 68 b 99 7 136 68 104 40 b 338 -169 79 -111 204 -169 b 639 35 475 -169 618 -92 b 622 128 644 69 638 101 b 725 269 675 158 715 210 z m 628 269 b 560 192 622 233 594 201 b 469 238 532 210 501 225 l 333 286 b 218 425 267 311 207 354 b 286 501 224 460 251 493 b 378 457 314 483 344 468 l 513 408 b 628 269 579 383 640 340 z "},"¨":{"ha":729,"x_min":0,"x_max":0,"o":"m 442 771 b 389 833 447 807 424 833 b 317 771 354 833 322 807 b 368 708 310 736 333 708 b 442 771 403 708 435 736 z m 671 771 b 618 833 676 807 653 833 b 546 771 583 833 551 807 b 597 708 539 736 563 708 b 671 771 632 708 664 736 z "},"©":{"ha":729,"x_min":0,"x_max":0,"o":"m 790 365 b 488 729 824 565 688 729 b 61 365 286 729 94 565 b 365 0 28 164 164 0 b 790 365 565 0 757 164 z m 738 365 b 374 53 708 193 544 53 b 114 365 201 53 85 193 b 478 676 142 536 306 676 b 738 365 649 676 765 536 z m 546 261 b 524 286 550 286 532 286 b 496 264 518 286 500 286 b 383 174 478 192 415 174 b 283 365 315 174 264 253 b 447 556 301 476 381 556 b 528 461 492 556 528 522 b 549 436 528 449 526 436 b 581 467 575 436 578 451 l 599 571 b 581 601 600 583 603 601 b 558 589 567 601 563 594 b 543 565 556 586 556 585 b 451 601 522 588 489 601 b 232 365 354 601 254 501 b 372 128 208 228 275 128 b 546 261 460 128 535 194 z "},"ª":{"ha":729,"x_min":0,"x_max":0,"o":"m 671 467 b 638 496 676 496 651 496 b 579 503 596 496 586 500 l 615 714 b 447 864 626 782 588 864 b 294 793 406 864 307 864 b 331 749 290 764 307 749 b 381 793 346 749 374 757 b 404 804 382 801 383 801 l 439 804 b 546 706 513 804 557 775 b 229 561 372 703 246 654 b 369 431 218 493 269 431 b 517 468 406 431 467 438 b 617 436 533 438 579 436 b 671 467 643 436 665 436 z m 610 358 b 572 389 613 375 596 389 l 288 389 b 239 358 264 389 242 375 b 278 329 236 342 254 329 l 563 329 b 610 358 586 329 607 342 z m 522 567 b 475 507 518 544 515 524 b 386 490 438 490 393 490 b 297 561 325 490 292 522 b 536 649 306 608 394 644 z "},"«":{"ha":729,"x_min":0,"x_max":0,"o":"m 690 157 b 676 199 694 181 685 190 l 453 425 l 751 651 b 779 693 763 660 775 669 b 757 738 785 722 772 738 b 729 725 749 738 744 736 l 388 467 b 361 425 378 458 365 449 b 369 386 358 408 363 394 l 629 125 b 653 113 642 114 644 113 b 690 157 668 113 685 128 z m 465 157 b 451 199 469 181 460 190 l 228 425 l 526 651 b 554 693 538 660 550 669 b 532 738 560 722 547 738 b 504 725 525 738 519 736 l 163 467 b 136 425 153 458 140 449 b 144 386 133 408 138 394 l 404 125 b 428 113 417 114 421 113 b 465 157 443 113 460 128 z "},"¬":{"ha":729,"x_min":0,"x_max":0,"o":"m 728 319 l 764 531 b 724 579 768 557 750 579 l 199 579 b 142 531 172 579 146 557 b 182 482 138 504 156 482 l 658 482 l 631 319 b 672 271 626 293 646 271 b 728 319 699 271 724 293 z "},"®":{"ha":729,"x_min":0,"x_max":0,"o":"m 790 365 b 488 729 824 565 688 729 b 61 365 286 729 94 565 b 365 0 28 164 164 0 b 790 365 565 0 757 164 z m 738 365 b 374 53 708 193 544 53 b 114 365 201 53 85 193 b 478 676 142 536 306 676 b 738 365 649 676 765 536 z m 607 210 b 586 233 611 233 593 233 b 556 211 578 233 561 233 b 536 178 556 206 549 178 b 528 251 515 178 521 211 b 533 322 536 299 538 304 b 504 368 526 343 513 360 b 585 472 558 396 579 442 b 461 597 594 536 549 597 l 328 597 b 294 575 317 597 299 597 b 319 551 290 551 308 551 l 339 551 l 278 186 l 258 186 b 226 163 247 186 229 186 b 251 140 222 140 240 140 l 340 140 b 375 163 351 140 371 140 b 347 186 378 186 360 186 l 329 186 l 357 346 l 415 346 b 472 325 429 346 451 346 b 478 261 486 310 483 293 b 476 165 471 213 467 190 b 529 132 485 143 504 132 b 607 210 576 132 603 181 z m 533 472 b 418 392 526 435 486 392 l 364 392 l 390 551 l 444 551 b 533 472 513 551 539 508 z "},"¯":{"ha":729,"x_min":0,"x_max":0,"o":"m 757 771 b 708 815 764 815 732 815 l 294 815 b 232 772 272 815 239 815 b 281 728 224 728 257 728 l 693 728 b 757 771 715 728 749 728 z "},"°":{"ha":729,"x_min":0,"x_max":0,"o":"m 675 646 b 507 849 693 758 618 849 b 271 646 394 849 289 758 b 439 443 251 535 326 443 b 675 646 550 443 656 535 z m 578 646 b 456 540 568 588 513 540 b 368 646 397 540 358 588 b 490 751 378 704 432 751 b 578 646 547 751 588 704 z "},"±":{"ha":729,"x_min":0,"x_max":0,"o":"m 683 49 b 626 97 692 97 643 97 l 429 97 l 457 264 l 654 264 b 728 313 671 264 719 264 b 669 361 735 361 686 361 l 472 361 l 506 560 b 468 625 508 576 517 625 b 408 560 419 625 411 576 l 375 361 l 178 361 b 106 313 161 361 113 361 b 163 264 97 264 146 264 l 360 264 l 332 97 l 135 97 b 61 49 118 97 69 97 b 118 0 53 0 101 0 l 610 0 b 683 49 626 0 675 0 z "},"²":{"ha":729,"x_min":0,"x_max":0,"o":"m 588 461 l 592 479 b 572 507 593 492 596 507 b 542 475 547 507 544 494 l 376 475 b 533 590 424 510 500 563 b 633 729 585 629 624 674 b 500 864 647 813 585 864 b 344 749 418 864 354 807 b 369 715 340 722 358 715 b 406 746 385 715 401 726 b 399 768 407 754 406 764 b 490 822 415 800 451 822 b 585 729 547 822 594 790 b 483 601 576 681 536 640 l 308 472 b 296 454 301 467 297 464 b 319 432 292 432 308 432 l 556 432 b 588 461 578 432 585 439 z "},"³":{"ha":729,"x_min":0,"x_max":0,"o":"m 608 553 b 549 664 617 603 590 643 b 624 767 592 689 618 729 b 510 864 632 818 590 864 b 364 783 426 864 372 831 b 390 750 360 760 376 750 b 426 782 404 750 424 763 b 422 800 428 792 425 799 b 504 822 449 822 497 822 b 576 765 551 822 582 797 b 538 706 572 744 558 721 b 468 685 513 688 493 686 b 414 661 429 682 418 682 b 439 640 411 640 428 640 l 471 640 b 560 553 540 640 567 593 b 444 467 553 511 507 467 b 351 507 417 467 364 475 b 364 529 356 511 361 515 b 338 560 367 546 356 560 b 301 526 322 560 306 549 b 438 425 292 465 351 425 b 608 553 528 425 599 489 z "},"´":{"ha":729,"x_min":0,"x_max":0,"o":"m 649 815 b 608 864 653 843 636 864 b 581 857 608 864 597 864 l 382 774 b 340 733 361 765 344 758 b 376 678 339 722 340 678 b 403 685 386 678 394 681 l 601 767 b 649 815 638 782 646 800 z "},"µ":{"ha":729,"x_min":0,"x_max":0,"o":"m 719 42 b 667 85 726 85 692 85 l 608 85 l 685 538 b 635 597 692 586 685 597 l 539 597 b 472 556 515 597 479 597 b 525 513 465 513 500 513 l 583 513 l 533 219 b 472 113 529 190 522 149 b 353 76 419 76 372 76 b 258 168 243 76 251 121 l 321 538 b 271 597 328 586 321 597 l 175 597 b 108 556 151 597 115 597 b 161 513 101 513 136 513 l 219 513 l 96 -224 l 38 -224 b -29 -265 14 -224 -22 -224 b 24 -308 -36 -308 -1 -308 l 238 -308 b 304 -267 261 -308 297 -308 b 251 -224 311 -224 276 -224 l 193 -224 l 232 7 b 331 -8 269 -8 315 -8 b 503 43 401 -8 454 11 b 557 0 499 0 532 0 l 653 0 b 719 42 676 0 713 0 z "},"¶":{"ha":729,"x_min":0,"x_max":0,"o":"m 850 936 b 817 964 856 964 833 964 l 526 964 b 174 643 360 964 203 818 b 469 319 138 425 318 326 l 379 -224 b 396 -269 376 -243 372 -269 b 426 -224 419 -269 424 -243 l 615 908 l 699 908 l 510 -224 b 528 -269 507 -243 503 -269 b 558 -224 551 -269 556 -243 l 747 908 l 807 908 b 850 936 824 908 846 908 z "},"·":{"ha":729,"x_min":0,"x_max":0,"o":"m 522 424 b 450 511 531 475 494 511 b 349 425 397 511 356 468 b 421 338 340 374 376 338 b 522 424 474 338 515 381 z "},"¸":{"ha":729,"x_min":0,"x_max":0,"o":"m 569 -147 b 454 -12 579 -93 550 -32 b 421 63 464 39 468 63 b 363 4 372 63 367 32 l 356 -33 b 390 -92 351 -61 346 -89 b 474 -147 451 -94 479 -119 b 275 -203 465 -203 328 -203 b 183 -246 222 -203 192 -203 b 219 -289 179 -278 199 -289 b 569 -147 351 -289 546 -289 z "},"¹":{"ha":729,"x_min":0,"x_max":0,"o":"m 557 453 b 533 475 561 475 544 475 l 469 475 l 529 836 b 514 864 532 847 535 864 b 490 847 501 864 496 856 b 404 779 454 789 417 781 b 374 758 393 779 376 778 b 394 738 371 740 383 738 b 471 768 407 738 436 742 l 422 475 l 358 475 b 326 453 347 475 331 475 b 351 432 324 432 342 432 l 526 432 b 557 453 536 432 554 432 z "},"º":{"ha":729,"x_min":0,"x_max":0,"o":"m 672 646 b 510 864 692 768 618 864 b 274 646 400 864 293 768 b 438 431 253 522 331 431 b 672 646 543 431 651 524 z m 581 358 b 543 389 583 375 567 389 l 317 389 b 268 358 293 389 271 375 b 307 329 265 342 283 329 l 533 329 b 581 358 557 329 578 342 z m 606 653 b 447 490 592 563 518 490 b 340 653 375 490 326 563 b 500 804 356 742 431 804 b 606 653 569 804 621 742 z "},"»":{"ha":729,"x_min":0,"x_max":0,"o":"m 733 425 b 721 467 738 449 728 458 l 465 725 b 443 738 453 736 450 738 b 404 693 428 738 410 722 b 418 651 400 669 410 660 l 642 425 l 343 199 b 315 157 332 190 319 181 b 339 113 310 128 324 113 b 365 125 346 113 350 114 l 711 386 b 733 425 721 394 731 408 z m 508 425 b 496 467 513 449 503 458 l 240 725 b 218 738 228 736 226 738 b 179 693 203 738 185 722 b 193 651 175 669 185 660 l 417 425 l 118 199 b 90 157 107 190 94 181 b 114 113 85 128 99 113 b 140 125 122 113 125 114 l 486 386 b 508 425 496 394 506 408 z "},"¼":{"ha":729,"x_min":0,"x_max":0,"o":"m 346 453 b 322 475 350 475 333 475 l 258 475 l 318 836 b 303 864 321 847 324 864 b 279 847 290 864 285 856 b 193 779 243 789 206 781 b 163 758 182 779 165 778 b 183 738 160 740 172 738 b 260 768 196 738 225 742 l 211 475 l 147 475 b 115 453 136 475 119 475 b 140 432 113 432 131 432 l 315 432 b 346 453 325 432 343 432 z m 717 139 b 692 160 719 160 703 160 l 638 160 l 679 404 b 656 433 682 428 679 433 l 636 433 b 604 418 619 433 615 432 l 404 169 b 394 146 396 161 396 160 b 417 118 390 122 396 118 l 592 118 l 579 43 l 536 43 b 506 21 525 43 508 43 b 529 0 501 0 519 0 l 654 0 b 686 21 665 0 682 0 b 661 43 689 43 672 43 l 618 43 l 631 118 l 685 118 b 717 139 696 118 713 118 z m 806 821 b 764 869 810 847 792 869 b 718 844 746 869 729 860 l 149 51 b 138 28 143 44 139 36 b 178 -21 133 1 151 -21 b 226 4 196 -21 215 -11 l 796 797 b 806 821 801 804 804 813 z m 599 160 l 444 160 l 639 403 z "},"½":{"ha":729,"x_min":0,"x_max":0,"o":"m 346 453 b 322 475 350 475 333 475 l 258 475 l 318 836 b 303 864 321 847 324 864 b 279 847 290 864 285 856 b 193 779 243 789 206 781 b 163 758 182 779 165 778 b 183 738 160 740 172 738 b 260 768 196 738 225 742 l 211 475 l 147 475 b 115 453 136 475 119 475 b 140 432 113 432 131 432 l 315 432 b 346 453 325 432 343 432 z m 699 29 l 701 47 b 682 75 703 60 706 75 b 653 43 658 75 657 63 l 488 43 b 644 158 533 78 610 131 b 743 297 694 197 733 242 b 611 432 757 381 696 432 b 454 317 529 432 464 375 b 481 283 450 290 468 283 b 517 314 494 283 513 294 b 510 336 518 322 515 332 b 600 390 525 368 563 390 b 696 297 657 390 706 358 b 593 169 688 249 646 208 l 419 40 b 406 22 411 35 407 32 b 431 0 401 0 419 0 l 665 0 b 699 29 689 0 694 7 z m 769 821 b 728 869 774 847 754 869 b 681 844 710 869 692 860 l 111 51 b 101 28 107 44 103 36 b 142 -21 97 1 115 -21 b 190 4 160 -21 179 -11 l 760 797 b 769 821 764 804 768 813 z "},"¾":{"ha":729,"x_min":0,"x_max":0,"o":"m 425 553 b 367 664 433 603 408 643 b 442 767 410 689 436 729 b 328 864 450 818 407 864 b 182 783 244 864 190 831 b 207 750 178 760 193 750 b 243 782 222 750 240 763 b 240 800 244 792 242 799 b 321 822 265 822 315 822 b 393 765 368 822 399 797 b 354 706 389 744 376 721 b 286 685 329 688 311 686 b 232 661 246 682 236 682 b 257 640 229 640 246 640 l 289 640 b 378 553 357 640 385 593 b 261 467 371 511 325 467 b 169 507 233 467 182 475 b 182 529 172 511 179 515 b 156 560 185 546 172 560 b 118 526 139 560 122 549 b 254 425 108 465 169 425 b 425 553 346 425 415 489 z m 717 139 b 692 160 719 160 703 160 l 638 160 l 679 404 b 656 433 682 428 679 433 l 636 433 b 604 418 619 433 615 432 l 404 169 b 394 146 396 161 396 160 b 417 118 390 122 396 118 l 592 118 l 579 43 l 536 43 b 506 21 525 43 508 43 b 529 0 501 0 519 0 l 654 0 b 686 21 665 0 682 0 b 661 43 689 43 672 43 l 618 43 l 631 118 l 685 118 b 717 139 696 118 713 118 z m 806 821 b 764 869 810 847 792 869 b 718 844 746 869 729 860 l 149 51 b 138 28 143 44 139 36 b 178 -21 133 1 151 -21 b 226 4 196 -21 215 -11 l 796 797 b 806 821 801 804 804 813 z m 599 160 l 444 160 l 639 403 z "},"¿":{"ha":729,"x_min":0,"x_max":0,"o":"m 492 471 b 433 540 497 510 472 540 b 353 471 394 540 358 510 b 410 401 346 432 371 401 b 492 471 449 401 485 432 z m 617 -147 b 565 -82 625 -103 594 -82 b 494 -144 536 -82 500 -106 b 500 -185 492 -158 492 -174 b 307 -232 444 -232 329 -232 b 158 -144 279 -232 143 -232 b 213 -78 164 -107 193 -89 b 435 213 406 39 425 157 b 390 285 443 267 446 285 b 325 228 349 285 333 278 l 322 204 b 167 -8 314 160 293 68 b 63 -144 140 -25 75 -64 b 292 -317 57 -178 44 -317 b 617 -147 336 -317 589 -317 z "},"À":{"ha":729,"x_min":0,"x_max":0,"o":"m 697 42 b 681 81 700 60 696 74 b 621 85 672 85 642 85 l 574 811 b 508 865 571 864 551 865 b 425 813 468 865 446 865 l 135 85 b 75 82 115 85 83 85 b 44 42 58 74 47 60 b 97 0 38 0 74 0 l 239 0 b 304 42 264 0 297 0 b 233 85 311 85 283 85 l 290 229 l 515 229 l 522 85 b 438 42 472 85 444 85 b 489 0 431 0 464 0 l 631 0 b 697 42 654 0 690 0 z m 508 314 l 325 314 l 489 750 z m 676 990 b 649 1031 681 1015 667 1022 l 478 1114 b 451 1121 463 1121 451 1121 b 396 1072 424 1121 400 1100 b 426 1024 393 1057 396 1039 l 597 942 b 621 935 604 938 611 935 b 676 990 657 935 674 979 z "},"Á":{"ha":729,"x_min":0,"x_max":0,"o":"m 697 42 b 681 81 700 60 696 74 b 621 85 672 85 642 85 l 574 811 b 508 865 571 864 551 865 b 425 813 468 865 446 865 l 135 85 b 75 82 115 85 83 85 b 44 42 58 74 47 60 b 97 0 38 0 74 0 l 239 0 b 304 42 264 0 297 0 b 233 85 311 85 283 85 l 290 229 l 515 229 l 522 85 b 438 42 472 85 444 85 b 489 0 431 0 464 0 l 631 0 b 697 42 654 0 690 0 z m 508 314 l 325 314 l 489 750 z m 692 1072 b 650 1121 696 1100 678 1121 b 624 1114 650 1121 639 1121 l 425 1031 b 383 990 404 1022 388 1015 b 419 935 381 979 383 935 b 446 942 429 935 436 938 l 644 1024 b 692 1072 681 1039 689 1057 z "},"Â":{"ha":729,"x_min":0,"x_max":0,"o":"m 697 42 b 681 81 700 60 696 74 b 621 85 672 85 642 85 l 574 811 b 508 865 571 864 551 865 b 425 813 468 865 446 865 l 135 85 b 75 82 115 85 83 85 b 44 42 58 74 47 60 b 97 0 38 0 74 0 l 239 0 b 304 42 264 0 297 0 b 233 85 311 85 283 85 l 290 229 l 515 229 l 522 85 b 438 42 472 85 444 85 b 489 0 431 0 464 0 l 631 0 b 697 42 654 0 690 0 z m 508 314 l 325 314 l 489 750 z m 710 1001 l 556 1061 b 529 1061 549 1064 539 1064 l 356 1001 b 368 924 303 983 315 908 l 526 969 l 671 924 b 710 1001 718 908 756 983 z "},"Ã":{"ha":729,"x_min":0,"x_max":0,"o":"m 697 42 b 681 81 700 60 696 74 b 621 85 672 85 642 85 l 574 811 b 508 865 571 864 551 865 b 425 813 468 865 446 865 l 135 85 b 75 82 115 85 83 85 b 44 42 58 74 47 60 b 97 0 38 0 74 0 l 239 0 b 304 42 264 0 297 0 b 233 85 311 85 283 85 l 290 229 l 515 229 l 522 85 b 438 42 472 85 444 85 b 489 0 431 0 464 0 l 631 0 b 697 42 654 0 690 0 z m 508 314 l 325 314 l 489 750 z m 782 1043 b 746 1088 786 1065 768 1088 b 711 1072 731 1088 722 1081 b 603 1011 663 1033 622 1011 b 565 1040 589 1011 581 1024 b 479 1088 550 1058 526 1088 b 364 1042 442 1088 400 1065 b 283 965 332 1021 288 990 b 318 921 279 943 296 921 b 354 936 333 921 343 928 b 463 997 403 975 443 997 b 500 968 476 997 485 985 b 585 921 515 950 538 921 b 701 967 622 921 665 943 b 782 1043 732 988 778 1018 z "},"Ä":{"ha":729,"x_min":0,"x_max":0,"o":"m 697 42 b 681 81 700 60 696 74 b 621 85 672 85 642 85 l 574 811 b 508 865 571 864 551 865 b 425 813 468 865 446 865 l 135 85 b 75 82 115 85 83 85 b 44 42 58 74 47 60 b 97 0 38 0 74 0 l 239 0 b 304 42 264 0 297 0 b 233 85 311 85 283 85 l 290 229 l 515 229 l 522 85 b 438 42 472 85 444 85 b 489 0 431 0 464 0 l 631 0 b 697 42 654 0 690 0 z m 508 314 l 325 314 l 489 750 z m 456 983 b 403 1046 461 1019 438 1046 b 331 983 368 1046 336 1019 b 382 921 325 949 347 921 b 456 983 417 921 450 949 z m 726 983 b 674 1046 732 1019 708 1046 b 601 983 639 1046 607 1019 b 653 921 596 949 618 921 b 726 983 688 921 721 949 z "},"Å":{"ha":729,"x_min":0,"x_max":0,"o":"m 697 42 b 681 81 700 60 696 74 b 621 85 672 85 642 85 l 574 811 b 508 865 571 864 551 865 b 425 813 468 865 446 865 l 135 85 b 75 82 115 85 83 85 b 44 42 58 74 47 60 b 97 0 38 0 74 0 l 239 0 b 304 42 264 0 297 0 b 233 85 311 85 283 85 l 290 229 l 515 229 l 522 85 b 438 42 472 85 444 85 b 489 0 431 0 464 0 l 631 0 b 697 42 654 0 690 0 z m 508 314 l 325 314 l 489 750 z m 592 965 b 518 918 588 939 550 918 b 461 965 486 918 457 939 b 533 1013 465 992 501 1013 b 592 965 565 1013 596 992 z m 661 965 b 543 1065 669 1017 621 1065 b 392 965 465 1065 400 1017 b 510 865 383 914 432 865 b 661 965 588 865 653 914 z "},"Æ":{"ha":729,"x_min":0,"x_max":0,"o":"m 703 57 l 724 181 b 694 238 726 200 733 238 b 646 181 656 238 649 200 l 629 85 l 458 85 l 511 397 l 671 397 b 733 439 692 397 726 397 b 685 482 740 482 707 482 l 525 482 l 572 764 l 732 764 l 719 690 b 749 633 717 671 710 633 b 797 690 788 633 794 671 l 814 792 b 768 849 821 835 815 849 l 378 849 b 315 807 357 849 322 849 b 364 764 308 764 342 764 l 113 85 b 39 42 76 85 46 85 b 88 0 32 0 67 0 l 186 0 b 249 42 207 0 242 0 b 192 85 256 85 224 85 l 256 254 l 410 254 l 381 85 b 318 43 361 85 325 85 b 368 0 311 0 346 0 l 638 0 b 703 57 683 0 696 13 z m 424 339 l 286 339 l 443 764 l 494 764 z "},"Ç":{"ha":729,"x_min":0,"x_max":0,"o":"m 711 233 b 671 279 719 279 686 279 b 617 239 658 279 626 279 b 408 69 583 103 465 69 b 222 425 282 69 188 217 b 526 779 257 632 403 779 b 675 603 610 779 675 715 b 717 557 676 579 675 557 b 775 614 765 557 769 586 l 807 807 b 775 864 811 829 817 864 b 732 840 750 864 740 850 b 704 797 728 835 728 832 b 535 864 664 836 606 864 b 126 425 356 864 168 678 b 376 -15 85 176 203 -7 l 374 -33 b 408 -92 369 -61 364 -89 b 492 -147 469 -94 497 -119 b 293 -203 483 -203 346 -203 b 201 -246 240 -203 210 -203 b 238 -289 197 -278 217 -289 b 588 -147 369 -289 564 -289 b 472 -12 597 -93 568 -32 l 474 -4 b 711 233 599 29 694 131 z "},"È":{"ha":729,"x_min":0,"x_max":0,"o":"m 707 57 l 728 181 b 690 238 732 207 738 238 b 632 181 642 238 636 208 l 615 85 l 244 85 l 297 397 l 479 397 b 514 318 469 340 465 318 b 571 375 561 318 567 349 l 593 504 b 554 561 597 531 601 561 b 493 482 506 561 503 539 l 311 482 l 358 764 l 699 764 l 686 690 b 724 633 682 664 676 633 b 782 690 772 633 778 663 l 799 792 b 753 849 806 835 800 849 l 235 849 b 171 807 214 849 178 849 b 221 764 164 764 200 764 l 263 764 l 149 85 l 107 85 b 43 42 85 85 50 85 b 93 0 36 0 72 0 l 642 0 b 707 57 688 0 700 13 z m 676 990 b 649 1031 681 1015 667 1022 l 478 1114 b 451 1121 463 1121 451 1121 b 396 1072 424 1121 400 1100 b 426 1024 393 1057 396 1039 l 597 942 b 621 935 604 938 611 935 b 676 990 657 935 674 979 z "},"É":{"ha":729,"x_min":0,"x_max":0,"o":"m 707 57 l 728 181 b 690 238 732 207 738 238 b 632 181 642 238 636 208 l 615 85 l 244 85 l 297 397 l 479 397 b 514 318 469 340 465 318 b 571 375 561 318 567 349 l 593 504 b 554 561 597 531 601 561 b 493 482 506 561 503 539 l 311 482 l 358 764 l 699 764 l 686 690 b 724 633 682 664 676 633 b 782 690 772 633 778 663 l 799 792 b 753 849 806 835 800 849 l 235 849 b 171 807 214 849 178 849 b 221 764 164 764 200 764 l 263 764 l 149 85 l 107 85 b 43 42 85 85 50 85 b 93 0 36 0 72 0 l 642 0 b 707 57 688 0 700 13 z m 692 1072 b 650 1121 696 1100 678 1121 b 624 1114 650 1121 639 1121 l 425 1031 b 383 990 404 1022 388 1015 b 419 935 381 979 383 935 b 446 942 429 935 436 938 l 644 1024 b 692 1072 681 1039 689 1057 z "},"Ê":{"ha":729,"x_min":0,"x_max":0,"o":"m 707 57 l 728 181 b 690 238 732 207 738 238 b 632 181 642 238 636 208 l 615 85 l 244 85 l 297 397 l 479 397 b 514 318 469 340 465 318 b 571 375 561 318 567 349 l 593 504 b 554 561 597 531 601 561 b 493 482 506 561 503 539 l 311 482 l 358 764 l 699 764 l 686 690 b 724 633 682 664 676 633 b 782 690 772 633 778 663 l 799 792 b 753 849 806 835 800 849 l 235 849 b 171 807 214 849 178 849 b 221 764 164 764 200 764 l 263 764 l 149 85 l 107 85 b 43 42 85 85 50 85 b 93 0 36 0 72 0 l 642 0 b 707 57 688 0 700 13 z m 710 1001 l 556 1061 b 529 1061 549 1064 539 1064 l 356 1001 b 368 924 303 983 315 908 l 526 969 l 671 924 b 710 1001 718 908 756 983 z "},"Ë":{"ha":729,"x_min":0,"x_max":0,"o":"m 707 57 l 728 181 b 690 238 732 207 738 238 b 632 181 642 238 636 208 l 615 85 l 244 85 l 297 397 l 479 397 b 514 318 469 340 465 318 b 571 375 561 318 567 349 l 593 504 b 554 561 597 531 601 561 b 493 482 506 561 503 539 l 311 482 l 358 764 l 699 764 l 686 690 b 724 633 682 664 676 633 b 782 690 772 633 778 663 l 799 792 b 753 849 806 835 800 849 l 235 849 b 171 807 214 849 178 849 b 221 764 164 764 200 764 l 263 764 l 149 85 l 107 85 b 43 42 85 85 50 85 b 93 0 36 0 72 0 l 642 0 b 707 57 688 0 700 13 z m 456 983 b 403 1046 461 1019 438 1046 b 331 983 368 1046 336 1019 b 382 921 325 949 347 921 b 456 983 417 921 450 949 z m 726 983 b 674 1046 732 1019 708 1046 b 601 983 639 1046 607 1019 b 653 921 596 949 618 921 b 726 983 688 921 721 949 z "},"Ì":{"ha":729,"x_min":0,"x_max":0,"o":"m 626 42 b 576 85 633 85 597 85 l 426 85 l 540 764 l 690 764 b 754 806 711 764 747 764 b 704 849 761 849 725 849 l 308 849 b 244 807 288 849 251 849 b 294 764 238 764 274 764 l 444 764 l 331 85 l 181 85 b 117 43 160 85 124 85 b 167 0 110 0 146 0 l 563 0 b 626 42 583 0 619 0 z m 676 990 b 649 1031 681 1015 667 1022 l 478 1114 b 451 1121 463 1121 451 1121 b 396 1072 424 1121 400 1100 b 426 1024 393 1057 396 1039 l 597 942 b 621 935 604 938 611 935 b 676 990 657 935 674 979 z "},"Í":{"ha":729,"x_min":0,"x_max":0,"o":"m 626 42 b 576 85 633 85 597 85 l 426 85 l 540 764 l 690 764 b 754 806 711 764 747 764 b 704 849 761 849 725 849 l 308 849 b 244 807 288 849 251 849 b 294 764 238 764 274 764 l 444 764 l 331 85 l 181 85 b 117 43 160 85 124 85 b 167 0 110 0 146 0 l 563 0 b 626 42 583 0 619 0 z m 692 1072 b 650 1121 696 1100 678 1121 b 624 1114 650 1121 639 1121 l 425 1031 b 383 990 404 1022 388 1015 b 419 935 381 979 383 935 b 446 942 429 935 436 938 l 644 1024 b 692 1072 681 1039 689 1057 z "},"Î":{"ha":729,"x_min":0,"x_max":0,"o":"m 626 42 b 576 85 633 85 597 85 l 426 85 l 540 764 l 690 764 b 754 806 711 764 747 764 b 704 849 761 849 725 849 l 308 849 b 244 807 288 849 251 849 b 294 764 238 764 274 764 l 444 764 l 331 85 l 181 85 b 117 43 160 85 124 85 b 167 0 110 0 146 0 l 563 0 b 626 42 583 0 619 0 z m 710 1001 l 556 1061 b 529 1061 549 1064 539 1064 l 356 1001 b 368 924 303 983 315 908 l 526 969 l 671 924 b 710 1001 718 908 756 983 z "},"Ï":{"ha":729,"x_min":0,"x_max":0,"o":"m 626 42 b 576 85 633 85 597 85 l 426 85 l 540 764 l 690 764 b 754 806 711 764 747 764 b 704 849 761 849 725 849 l 308 849 b 244 807 288 849 251 849 b 294 764 238 764 274 764 l 444 764 l 331 85 l 181 85 b 117 43 160 85 124 85 b 167 0 110 0 146 0 l 563 0 b 626 42 583 0 619 0 z m 456 983 b 403 1046 461 1019 438 1046 b 331 983 368 1046 336 1019 b 382 921 325 949 347 921 b 456 983 417 921 450 949 z m 726 983 b 674 1046 732 1019 708 1046 b 601 983 639 1046 607 1019 b 653 921 596 949 618 921 b 726 983 688 921 721 949 z "},"Ð":{"ha":729,"x_min":0,"x_max":0,"o":"m 743 418 b 511 849 781 640 696 849 l 225 849 b 161 806 203 849 168 849 b 211 764 154 764 190 764 l 242 764 l 192 468 l 153 468 b 103 425 129 468 107 449 b 139 382 99 400 115 382 l 178 382 l 128 85 l 97 85 b 33 42 75 85 40 85 b 83 0 26 0 63 0 l 369 0 b 743 418 551 0 706 194 z m 647 418 b 357 85 621 256 511 85 l 224 85 l 274 382 l 356 382 b 406 425 379 382 401 400 b 369 468 410 449 393 468 l 288 468 l 338 764 l 471 764 b 647 418 628 764 675 579 z "},"Ñ":{"ha":729,"x_min":0,"x_max":0,"o":"m 824 806 b 775 849 831 849 797 849 l 628 849 b 565 806 606 849 572 849 b 614 764 558 764 593 764 l 649 764 l 539 104 l 538 104 l 397 799 b 331 849 388 844 368 849 l 236 849 b 174 807 215 849 181 849 b 222 764 167 764 200 764 l 257 764 l 143 85 l 108 85 b 46 43 88 85 53 85 b 94 0 39 0 72 0 l 242 0 b 304 42 263 0 297 0 b 256 85 311 85 278 85 l 221 85 l 331 744 l 332 744 l 472 50 b 540 0 482 1 504 0 b 608 57 582 0 600 4 l 726 764 l 761 764 b 824 806 782 764 817 764 z m 782 1043 b 746 1088 786 1065 768 1088 b 711 1072 731 1088 722 1081 b 603 1011 663 1033 622 1011 b 565 1040 589 1011 581 1024 b 479 1088 550 1058 526 1088 b 364 1042 442 1088 400 1065 b 283 965 332 1021 288 990 b 318 921 279 943 296 921 b 354 936 333 921 343 928 b 463 997 403 975 443 997 b 500 968 476 997 485 985 b 585 921 515 950 538 921 b 701 967 622 921 665 943 b 782 1043 732 988 778 1018 z "},"Ò":{"ha":729,"x_min":0,"x_max":0,"o":"m 721 424 b 508 864 788 825 765 864 b 149 424 251 864 215 826 b 361 -15 82 22 104 -15 b 721 424 617 -15 654 22 z m 626 436 b 568 176 613 350 596 251 b 375 69 540 99 499 69 b 218 168 253 69 224 99 b 246 436 214 239 233 360 b 303 681 261 522 276 617 b 494 779 335 763 381 779 b 653 690 599 779 644 767 b 626 436 658 625 642 521 z m 676 990 b 649 1031 681 1015 667 1022 l 478 1114 b 451 1121 463 1121 451 1121 b 396 1072 424 1121 400 1100 b 426 1024 393 1057 396 1039 l 597 942 b 621 935 604 938 611 935 b 676 990 657 935 674 979 z "},"Ó":{"ha":729,"x_min":0,"x_max":0,"o":"m 721 424 b 508 864 788 825 765 864 b 149 424 251 864 215 826 b 361 -15 82 22 104 -15 b 721 424 617 -15 654 22 z m 626 436 b 568 176 613 350 596 251 b 375 69 540 99 499 69 b 218 168 253 69 224 99 b 246 436 214 239 233 360 b 303 681 261 522 276 617 b 494 779 335 763 381 779 b 653 690 599 779 644 767 b 626 436 658 625 642 521 z m 692 1072 b 650 1121 696 1100 678 1121 b 624 1114 650 1121 639 1121 l 425 1031 b 383 990 404 1022 388 1015 b 419 935 381 979 383 935 b 446 942 429 935 436 938 l 644 1024 b 692 1072 681 1039 689 1057 z "},"Ô":{"ha":729,"x_min":0,"x_max":0,"o":"m 721 424 b 508 864 788 825 765 864 b 149 424 251 864 215 826 b 361 -15 82 22 104 -15 b 721 424 617 -15 654 22 z m 626 436 b 568 176 613 350 596 251 b 375 69 540 99 499 69 b 218 168 253 69 224 99 b 246 436 214 239 233 360 b 303 681 261 522 276 617 b 494 779 335 763 381 779 b 653 690 599 779 644 767 b 626 436 658 625 642 521 z m 710 1001 l 556 1061 b 529 1061 549 1064 539 1064 l 356 1001 b 368 924 303 983 315 908 l 526 969 l 671 924 b 710 1001 718 908 756 983 z "},"Õ":{"ha":729,"x_min":0,"x_max":0,"o":"m 721 424 b 508 864 788 825 765 864 b 149 424 251 864 215 826 b 361 -15 82 22 104 -15 b 721 424 617 -15 654 22 z m 626 436 b 568 176 613 350 596 251 b 375 69 540 99 499 69 b 218 168 253 69 224 99 b 246 436 214 239 233 360 b 303 681 261 522 276 617 b 494 779 335 763 381 779 b 653 690 599 779 644 767 b 626 436 658 625 642 521 z m 782 1043 b 746 1088 786 1065 768 1088 b 711 1072 731 1088 722 1081 b 603 1011 663 1033 622 1011 b 565 1040 589 1011 581 1024 b 479 1088 550 1058 526 1088 b 364 1042 442 1088 400 1065 b 283 965 332 1021 288 990 b 318 921 279 943 296 921 b 354 936 333 921 343 928 b 463 997 403 975 443 997 b 500 968 476 997 485 985 b 585 921 515 950 538 921 b 701 967 622 921 665 943 b 782 1043 732 988 778 1018 z "},"Ö":{"ha":729,"x_min":0,"x_max":0,"o":"m 721 424 b 508 864 788 825 765 864 b 149 424 251 864 215 826 b 361 -15 82 22 104 -15 b 721 424 617 -15 654 22 z m 626 436 b 568 176 613 350 596 251 b 375 69 540 99 499 69 b 218 168 253 69 224 99 b 246 436 214 239 233 360 b 303 681 261 522 276 617 b 494 779 335 763 381 779 b 653 690 599 779 644 767 b 626 436 658 625 642 521 z m 456 983 b 403 1046 461 1019 438 1046 b 331 983 368 1046 336 1019 b 382 921 325 949 347 921 b 456 983 417 921 450 949 z m 726 983 b 674 1046 732 1019 708 1046 b 601 983 639 1046 607 1019 b 653 921 596 949 618 921 b 726 983 688 921 721 949 z "},"×":{"ha":729,"x_min":0,"x_max":0,"o":"m 619 204 b 621 285 660 239 631 272 l 503 425 l 667 564 b 690 644 679 576 719 611 b 608 633 664 679 622 644 l 446 493 l 329 635 b 251 646 319 646 292 681 b 249 565 210 611 239 578 l 367 425 l 203 286 b 179 206 190 274 150 239 b 261 217 207 171 247 206 l 424 357 l 540 215 b 619 204 551 204 578 169 z "},"Ø":{"ha":729,"x_min":0,"x_max":0,"o":"m 721 424 b 685 843 768 708 769 804 b 722 925 721 914 722 925 b 685 967 729 964 685 967 b 636 925 656 967 644 943 l 604 861 b 508 864 569 864 540 864 b 149 424 251 864 215 826 b 119 204 138 361 124 271 b 185 6 113 96 119 36 b 147 -76 149 -65 147 -76 b 185 -118 140 -115 185 -118 b 233 -76 214 -118 225 -94 l 264 -12 b 361 -15 300 -15 329 -15 b 721 424 617 -15 654 22 z m 643 425 b 582 163 629 340 611 229 b 375 69 544 79 485 69 b 322 71 339 69 336 69 b 307 74 315 71 307 74 l 639 750 b 643 425 664 728 690 707 z m 563 775 l 231 99 b 226 424 206 121 179 142 b 288 686 240 508 258 619 b 494 779 325 769 385 779 b 547 778 531 779 533 779 b 563 775 554 778 563 775 z "},"Ù":{"ha":729,"x_min":0,"x_max":0,"o":"m 857 807 b 807 849 864 849 828 849 l 628 849 b 564 807 607 849 571 849 b 614 764 557 764 593 764 l 656 764 l 576 290 b 375 69 551 142 447 69 b 249 290 301 69 224 142 l 328 764 l 369 764 b 433 807 390 764 426 764 b 383 849 440 849 404 849 l 204 849 b 140 807 183 849 147 849 b 190 764 133 764 169 764 l 232 764 l 151 283 b 361 -15 124 113 222 -15 b 671 283 500 -15 643 113 l 751 764 l 793 764 b 857 807 815 764 850 764 z m 676 990 b 649 1031 681 1015 667 1022 l 478 1114 b 451 1121 463 1121 451 1121 b 396 1072 424 1121 400 1100 b 426 1024 393 1057 396 1039 l 597 942 b 621 935 604 938 611 935 b 676 990 657 935 674 979 z "},"Ú":{"ha":729,"x_min":0,"x_max":0,"o":"m 857 807 b 807 849 864 849 828 849 l 628 849 b 564 807 607 849 571 849 b 614 764 557 764 593 764 l 656 764 l 576 290 b 375 69 551 142 447 69 b 249 290 301 69 224 142 l 328 764 l 369 764 b 433 807 390 764 426 764 b 383 849 440 849 404 849 l 204 849 b 140 807 183 849 147 849 b 190 764 133 764 169 764 l 232 764 l 151 283 b 361 -15 124 113 222 -15 b 671 283 500 -15 643 113 l 751 764 l 793 764 b 857 807 815 764 850 764 z m 692 1072 b 650 1121 696 1100 678 1121 b 624 1114 650 1121 639 1121 l 425 1031 b 383 990 404 1022 388 1015 b 419 935 381 979 383 935 b 446 942 429 935 436 938 l 644 1024 b 692 1072 681 1039 689 1057 z "},"Û":{"ha":729,"x_min":0,"x_max":0,"o":"m 857 807 b 807 849 864 849 828 849 l 628 849 b 564 807 607 849 571 849 b 614 764 557 764 593 764 l 656 764 l 576 290 b 375 69 551 142 447 69 b 249 290 301 69 224 142 l 328 764 l 369 764 b 433 807 390 764 426 764 b 383 849 440 849 404 849 l 204 849 b 140 807 183 849 147 849 b 190 764 133 764 169 764 l 232 764 l 151 283 b 361 -15 124 113 222 -15 b 671 283 500 -15 643 113 l 751 764 l 793 764 b 857 807 815 764 850 764 z m 710 1001 l 556 1061 b 529 1061 549 1064 539 1064 l 356 1001 b 368 924 303 983 315 908 l 526 969 l 671 924 b 710 1001 718 908 756 983 z "},"Ü":{"ha":729,"x_min":0,"x_max":0,"o":"m 857 807 b 807 849 864 849 828 849 l 628 849 b 564 807 607 849 571 849 b 614 764 557 764 593 764 l 656 764 l 576 290 b 375 69 551 142 447 69 b 249 290 301 69 224 142 l 328 764 l 369 764 b 433 807 390 764 426 764 b 383 849 440 849 404 849 l 204 849 b 140 807 183 849 147 849 b 190 764 133 764 169 764 l 232 764 l 151 283 b 361 -15 124 113 222 -15 b 671 283 500 -15 643 113 l 751 764 l 793 764 b 857 807 815 764 850 764 z m 456 983 b 403 1046 461 1019 438 1046 b 331 983 368 1046 336 1019 b 382 921 325 949 347 921 b 456 983 417 921 450 949 z m 726 983 b 674 1046 732 1019 708 1046 b 601 983 639 1046 607 1019 b 653 921 596 949 618 921 b 726 983 688 921 721 949 z "},"Ý":{"ha":729,"x_min":0,"x_max":0,"o":"m 836 806 b 788 849 843 849 810 849 l 643 849 b 581 807 622 849 588 849 b 638 764 574 764 604 764 l 436 436 b 346 764 429 507 354 735 b 417 807 379 764 410 764 b 368 849 424 849 389 849 l 224 849 b 161 807 203 849 168 849 b 210 764 154 764 188 764 l 239 764 l 374 339 l 331 85 l 296 85 b 233 43 275 85 240 85 b 282 0 226 0 260 0 l 447 0 b 510 42 468 0 503 0 b 461 85 517 85 483 85 l 426 85 l 469 339 l 744 764 l 774 764 b 836 806 794 764 829 764 z m 692 1072 b 650 1121 696 1100 678 1121 b 624 1114 650 1121 639 1121 l 425 1031 b 383 990 404 1022 388 1015 b 419 935 381 979 383 935 b 446 942 429 935 436 938 l 644 1024 b 692 1072 681 1039 689 1057 z "},"Þ":{"ha":729,"x_min":0,"x_max":0,"o":"m 724 425 b 504 679 746 554 664 679 l 331 679 l 344 764 l 379 764 b 442 806 400 764 435 764 b 393 849 449 849 415 849 l 228 849 b 165 806 206 849 172 849 b 214 764 158 764 193 764 l 249 764 l 135 85 l 100 85 b 38 42 78 85 44 85 b 86 0 31 0 65 0 l 251 0 b 314 42 272 0 307 0 b 265 85 321 85 288 85 l 231 85 l 246 171 l 419 171 b 724 425 581 171 703 296 z m 628 425 b 407 256 615 351 540 256 l 260 256 l 315 594 l 463 594 b 628 425 596 594 640 499 z "},"ß":{"ha":729,"x_min":0,"x_max":0,"o":"m 728 243 b 624 549 739 311 743 454 b 765 706 728 600 758 664 b 544 857 781 796 678 857 b 271 696 456 857 292 825 l 254 599 l 179 599 b 117 556 157 599 124 599 b 165 514 110 514 144 514 l 240 514 l 168 85 l 93 85 b 31 42 71 85 38 85 b 79 0 24 0 58 0 l 194 0 b 260 57 240 0 253 13 l 364 686 b 422 753 369 714 372 732 b 529 772 457 767 493 772 b 669 704 615 772 675 738 b 469 599 664 674 611 603 b 424 556 453 597 429 588 b 450 514 418 521 450 514 b 632 243 635 503 644 319 b 446 76 614 136 519 76 b 417 82 436 76 424 78 b 415 132 422 115 422 118 b 375 154 407 144 393 154 b 308 96 346 154 314 133 b 432 -8 299 44 338 -8 b 728 243 560 -8 703 90 z "},"à":{"ha":729,"x_min":0,"x_max":0,"o":"m 735 43 b 686 85 742 85 707 85 b 606 96 628 85 615 92 l 656 396 b 415 611 671 494 615 611 b 197 510 356 611 214 611 b 250 446 190 468 217 446 b 321 510 271 446 311 458 b 353 525 324 521 325 522 b 403 526 372 526 390 526 b 557 385 508 526 574 483 b 106 178 311 381 128 311 b 304 -8 90 82 163 -8 b 515 44 356 -8 443 1 b 658 0 539 1 606 0 b 735 43 697 0 728 0 z m 524 186 b 456 100 519 154 514 125 b 328 76 401 76 339 76 b 201 178 242 76 193 124 b 543 303 214 246 342 297 z m 633 733 b 606 774 638 758 624 765 l 435 857 b 410 864 421 864 410 864 b 353 815 382 864 357 843 b 383 767 350 800 353 782 l 554 685 b 578 678 563 681 568 678 b 633 733 614 678 632 722 z "},"á":{"ha":729,"x_min":0,"x_max":0,"o":"m 735 43 b 686 85 742 85 707 85 b 606 96 628 85 615 92 l 656 396 b 415 611 671 494 615 611 b 197 510 356 611 214 611 b 250 446 190 468 217 446 b 321 510 271 446 311 458 b 353 525 324 521 325 522 b 403 526 372 526 390 526 b 557 385 508 526 574 483 b 106 178 311 381 128 311 b 304 -8 90 82 163 -8 b 515 44 356 -8 443 1 b 658 0 539 1 606 0 b 735 43 697 0 728 0 z m 524 186 b 456 100 519 154 514 125 b 328 76 401 76 339 76 b 201 178 242 76 193 124 b 543 303 214 246 342 297 z m 649 815 b 608 864 653 843 636 864 b 581 857 608 864 597 864 l 382 774 b 340 733 361 765 344 758 b 376 678 339 722 340 678 b 403 685 386 678 394 681 l 601 767 b 649 815 638 782 646 800 z "},"â":{"ha":729,"x_min":0,"x_max":0,"o":"m 735 43 b 686 85 742 85 707 85 b 606 96 628 85 615 92 l 656 396 b 415 611 671 494 615 611 b 197 510 356 611 214 611 b 250 446 190 468 217 446 b 321 510 271 446 311 458 b 353 525 324 521 325 522 b 403 526 372 526 390 526 b 557 385 508 526 574 483 b 106 178 311 381 128 311 b 304 -8 90 82 163 -8 b 515 44 356 -8 443 1 b 658 0 539 1 606 0 b 735 43 697 0 728 0 z m 524 186 b 456 100 519 154 514 125 b 328 76 401 76 339 76 b 201 178 242 76 193 124 b 543 303 214 246 342 297 z m 676 753 l 528 858 b 486 858 517 867 500 867 l 306 754 b 336 685 254 725 286 657 l 494 771 l 622 685 b 676 753 664 657 718 724 z "},"ã":{"ha":729,"x_min":0,"x_max":0,"o":"m 735 43 b 686 85 742 85 707 85 b 606 96 628 85 615 92 l 656 396 b 415 611 671 494 615 611 b 197 510 356 611 214 611 b 250 446 190 468 217 446 b 321 510 271 446 311 458 b 353 525 324 521 325 522 b 403 526 372 526 390 526 b 557 385 508 526 574 483 b 106 178 311 381 128 311 b 304 -8 90 82 163 -8 b 515 44 356 -8 443 1 b 658 0 539 1 606 0 b 735 43 697 0 728 0 z m 524 186 b 456 100 519 154 514 125 b 328 76 401 76 339 76 b 201 178 242 76 193 124 b 543 303 214 246 342 297 z m 743 810 b 708 854 747 832 731 854 b 672 839 693 854 683 847 b 564 778 624 800 583 778 b 526 807 550 778 542 790 b 442 854 511 825 489 854 b 325 808 404 854 361 832 b 244 732 294 788 249 757 b 281 688 240 710 258 688 b 315 703 296 688 304 694 b 424 764 364 742 404 764 b 461 735 438 764 446 751 b 547 688 476 717 500 688 b 663 733 585 688 626 710 b 743 810 694 754 739 785 z "},"ä":{"ha":729,"x_min":0,"x_max":0,"o":"m 735 43 b 686 85 742 85 707 85 b 606 96 628 85 615 92 l 656 396 b 415 611 671 494 615 611 b 197 510 356 611 214 611 b 250 446 190 468 217 446 b 321 510 271 446 311 458 b 353 525 324 521 325 522 b 403 526 372 526 390 526 b 557 385 508 526 574 483 b 106 178 311 381 128 311 b 304 -8 90 82 163 -8 b 515 44 356 -8 443 1 b 658 0 539 1 606 0 b 735 43 697 0 728 0 z m 524 186 b 456 100 519 154 514 125 b 328 76 401 76 339 76 b 201 178 242 76 193 124 b 543 303 214 246 342 297 z m 442 771 b 389 833 447 807 424 833 b 317 771 354 833 322 807 b 368 708 310 736 333 708 b 442 771 403 708 435 736 z m 671 771 b 618 833 676 807 653 833 b 546 771 583 833 551 807 b 597 708 539 736 563 708 b 671 771 632 708 664 736 z "},"å":{"ha":729,"x_min":0,"x_max":0,"o":"m 735 43 b 686 85 742 85 707 85 b 606 96 628 85 615 92 l 656 396 b 415 611 671 494 615 611 b 197 510 356 611 214 611 b 250 446 190 468 217 446 b 321 510 271 446 311 458 b 353 525 324 521 325 522 b 403 526 372 526 390 526 b 557 385 508 526 574 483 b 106 178 311 381 128 311 b 304 -8 90 82 163 -8 b 515 44 356 -8 443 1 b 658 0 539 1 606 0 b 735 43 697 0 728 0 z m 524 186 b 456 100 519 154 514 125 b 328 76 401 76 339 76 b 201 178 242 76 193 124 b 543 303 214 246 342 297 z m 561 783 b 488 736 557 757 519 736 b 431 783 456 736 426 757 b 504 831 435 810 472 831 b 561 783 536 831 565 810 z m 631 783 b 513 883 639 835 590 883 b 361 783 435 883 369 835 b 479 683 353 732 401 683 b 631 783 557 683 622 732 z "},"æ":{"ha":729,"x_min":0,"x_max":0,"o":"m 725 151 b 693 190 729 172 715 190 b 649 156 663 190 653 164 b 560 76 625 101 590 76 b 450 265 499 76 442 147 l 689 265 b 754 324 739 265 747 281 b 628 611 785 508 728 611 b 463 511 579 611 517 583 b 319 611 440 571 394 611 b 140 510 192 611 149 556 b 193 446 133 468 160 446 b 264 508 204 446 250 450 b 265 521 265 513 264 517 b 301 526 265 526 285 526 b 390 390 369 526 404 478 l 382 344 b 74 164 226 343 93 279 b 203 -8 60 82 103 -8 b 399 88 272 -8 351 26 b 539 -8 406 74 449 -8 b 725 151 657 -8 721 124 z m 679 349 l 464 349 b 614 526 488 438 554 526 b 679 349 656 526 694 482 z m 369 263 b 354 186 365 247 361 226 b 311 106 350 160 346 131 b 225 76 275 79 235 76 b 151 165 168 76 144 124 b 369 263 161 225 258 258 z "},"ç":{"ha":729,"x_min":0,"x_max":0,"o":"m 672 151 b 631 190 679 190 639 190 b 579 160 608 190 594 188 b 428 76 568 142 531 76 b 247 300 310 76 226 174 b 511 526 258 367 324 526 b 593 514 540 526 594 526 b 643 446 586 465 610 446 b 715 510 676 446 708 469 b 525 611 732 611 588 611 b 151 300 286 611 172 422 b 378 -7 125 142 219 7 l 374 -33 b 408 -92 369 -61 364 -89 b 492 -147 469 -94 497 -119 b 293 -203 483 -203 346 -203 b 201 -246 240 -203 210 -203 b 238 -289 197 -278 217 -289 b 588 -147 369 -289 564 -289 b 472 -12 597 -93 568 -32 l 475 -1 b 672 151 615 25 669 131 z "},"è":{"ha":729,"x_min":0,"x_max":0,"o":"m 669 151 b 628 190 676 190 636 190 b 576 160 603 190 590 186 b 418 76 535 89 457 76 b 219 265 314 76 222 146 l 633 265 b 697 317 663 265 689 265 b 476 611 724 475 657 611 b 126 301 311 611 156 472 b 394 -8 99 132 215 -8 b 669 151 578 -8 664 117 z m 604 349 l 235 349 b 463 526 271 450 365 526 b 604 349 535 526 615 492 z m 633 733 b 606 774 638 758 624 765 l 435 857 b 410 864 421 864 410 864 b 353 815 382 864 357 843 b 383 767 350 800 353 782 l 554 685 b 578 678 563 681 568 678 b 633 733 614 678 632 722 z "},"é":{"ha":729,"x_min":0,"x_max":0,"o":"m 669 151 b 628 190 676 190 636 190 b 576 160 603 190 590 186 b 418 76 535 89 457 76 b 219 265 314 76 222 146 l 633 265 b 697 317 663 265 689 265 b 476 611 724 475 657 611 b 126 301 311 611 156 472 b 394 -8 99 132 215 -8 b 669 151 578 -8 664 117 z m 604 349 l 235 349 b 463 526 271 450 365 526 b 604 349 535 526 615 492 z m 649 815 b 608 864 653 843 636 864 b 581 857 608 864 597 864 l 382 774 b 340 733 361 765 344 758 b 376 678 339 722 340 678 b 403 685 386 678 394 681 l 601 767 b 649 815 638 782 646 800 z "},"ê":{"ha":729,"x_min":0,"x_max":0,"o":"m 669 151 b 628 190 676 190 636 190 b 576 160 603 190 590 186 b 418 76 535 89 457 76 b 219 265 314 76 222 146 l 633 265 b 697 317 663 265 689 265 b 476 611 724 475 657 611 b 126 301 311 611 156 472 b 394 -8 99 132 215 -8 b 669 151 578 -8 664 117 z m 604 349 l 235 349 b 463 526 271 450 365 526 b 604 349 535 526 615 492 z m 676 753 l 528 858 b 486 858 517 867 500 867 l 306 754 b 336 685 254 725 286 657 l 494 771 l 622 685 b 676 753 664 657 718 724 z "},"ë":{"ha":729,"x_min":0,"x_max":0,"o":"m 669 151 b 628 190 676 190 636 190 b 576 160 603 190 590 186 b 418 76 535 89 457 76 b 219 265 314 76 222 146 l 633 265 b 697 317 663 265 689 265 b 476 611 724 475 657 611 b 126 301 311 611 156 472 b 394 -8 99 132 215 -8 b 669 151 578 -8 664 117 z m 604 349 l 235 349 b 463 526 271 450 365 526 b 604 349 535 526 615 492 z m 442 771 b 389 833 447 807 424 833 b 317 771 354 833 322 807 b 368 708 310 736 333 708 b 442 771 403 708 435 736 z m 671 771 b 618 833 676 807 653 833 b 546 771 583 833 551 807 b 597 708 539 736 563 708 b 671 771 632 708 664 736 z "},"ì":{"ha":729,"x_min":0,"x_max":0,"o":"m 639 42 b 589 85 646 85 610 85 l 443 85 l 519 542 b 474 599 526 585 521 599 l 276 599 b 213 557 256 599 219 599 b 263 514 206 514 242 514 l 419 514 l 347 85 l 179 85 b 115 42 157 85 122 85 b 165 0 108 0 144 0 l 575 0 b 639 42 596 0 632 0 z m 633 733 b 606 774 638 758 624 765 l 435 857 b 410 864 421 864 410 864 b 353 815 382 864 357 843 b 383 767 350 800 353 782 l 554 685 b 578 678 563 681 568 678 b 633 733 614 678 632 722 z "},"í":{"ha":729,"x_min":0,"x_max":0,"o":"m 639 42 b 589 85 646 85 610 85 l 443 85 l 519 542 b 474 599 526 585 521 599 l 276 599 b 213 557 256 599 219 599 b 263 514 206 514 242 514 l 419 514 l 347 85 l 179 85 b 115 42 157 85 122 85 b 165 0 108 0 144 0 l 575 0 b 639 42 596 0 632 0 z m 649 815 b 608 864 653 843 636 864 b 581 857 608 864 597 864 l 382 774 b 340 733 361 765 344 758 b 376 678 339 722 340 678 b 403 685 386 678 394 681 l 601 767 b 649 815 638 782 646 800 z "},"î":{"ha":729,"x_min":0,"x_max":0,"o":"m 639 42 b 589 85 646 85 610 85 l 443 85 l 519 542 b 474 599 526 585 521 599 l 276 599 b 213 557 256 599 219 599 b 263 514 206 514 242 514 l 419 514 l 347 85 l 179 85 b 115 42 157 85 122 85 b 165 0 108 0 144 0 l 575 0 b 639 42 596 0 632 0 z m 676 753 l 528 858 b 486 858 517 867 500 867 l 306 754 b 336 685 254 725 286 657 l 494 771 l 622 685 b 676 753 664 657 718 724 z "},"ï":{"ha":729,"x_min":0,"x_max":0,"o":"m 639 42 b 589 85 646 85 610 85 l 443 85 l 519 542 b 474 599 526 585 521 599 l 276 599 b 213 557 256 599 219 599 b 263 514 206 514 242 514 l 419 514 l 347 85 l 179 85 b 115 42 157 85 122 85 b 165 0 108 0 144 0 l 575 0 b 639 42 596 0 632 0 z m 442 771 b 389 833 447 807 424 833 b 317 771 354 833 322 807 b 368 708 310 736 333 708 b 442 771 403 708 435 736 z m 671 771 b 618 833 676 807 653 833 b 546 771 583 833 551 807 b 597 708 539 736 563 708 b 671 771 632 708 664 736 z "},"ð":{"ha":729,"x_min":0,"x_max":0,"o":"m 699 300 b 658 756 728 471 724 647 l 693 786 b 710 815 701 793 708 804 b 674 858 714 840 697 858 b 642 846 663 858 651 854 l 607 815 b 471 858 571 843 526 858 b 421 815 447 858 425 839 b 457 772 417 792 433 772 b 536 753 489 772 515 765 l 510 729 b 492 699 501 721 493 711 b 528 656 488 675 504 656 b 561 669 540 656 551 661 l 592 696 b 622 551 611 657 621 608 b 465 611 582 589 528 611 b 129 300 310 611 158 474 b 363 -8 100 124 210 -8 b 578 81 439 -8 515 25 b 699 300 643 139 685 218 z m 604 310 b 376 76 583 181 479 76 b 226 310 274 76 206 181 b 451 526 247 436 353 526 b 604 310 551 526 625 436 z "},"ñ":{"ha":729,"x_min":0,"x_max":0,"o":"m 718 42 b 668 85 725 85 690 85 l 607 85 l 661 407 b 514 607 685 547 624 607 b 319 533 421 607 350 560 b 275 599 326 578 331 599 l 174 599 b 110 556 151 599 117 599 b 158 514 103 514 139 514 l 221 514 l 149 85 l 88 85 b 24 42 65 85 31 85 b 72 0 17 0 53 0 l 293 0 b 356 42 313 0 349 0 b 306 85 363 85 328 85 l 244 85 l 286 331 b 492 522 308 469 421 522 b 564 400 565 522 578 483 l 511 85 l 457 85 b 393 42 435 85 400 85 b 443 0 386 0 424 0 l 656 0 b 718 42 675 0 711 0 z m 743 810 b 708 854 747 832 731 854 b 672 839 693 854 683 847 b 564 778 624 800 583 778 b 526 807 550 778 542 790 b 442 854 511 825 489 854 b 325 808 404 854 361 832 b 244 732 294 788 249 757 b 281 688 240 710 258 688 b 315 703 296 688 304 694 b 424 764 364 742 404 764 b 461 735 438 764 446 751 b 547 688 476 717 500 688 b 663 733 585 688 626 710 b 743 810 694 754 739 785 z "},"ò":{"ha":729,"x_min":0,"x_max":0,"o":"m 699 300 b 465 611 728 474 621 611 b 129 300 310 611 158 474 b 363 -8 100 124 210 -8 b 699 300 515 -8 669 125 z m 604 310 b 376 76 583 181 479 76 b 226 310 274 76 206 181 b 451 526 247 436 353 526 b 604 310 551 526 625 436 z m 633 733 b 606 774 638 758 624 765 l 435 857 b 410 864 421 864 410 864 b 353 815 382 864 357 843 b 383 767 350 800 353 782 l 554 685 b 578 678 563 681 568 678 b 633 733 614 678 632 722 z "},"ó":{"ha":729,"x_min":0,"x_max":0,"o":"m 699 300 b 465 611 728 474 621 611 b 129 300 310 611 158 474 b 363 -8 100 124 210 -8 b 699 300 515 -8 669 125 z m 604 310 b 376 76 583 181 479 76 b 226 310 274 76 206 181 b 451 526 247 436 353 526 b 604 310 551 526 625 436 z m 649 815 b 608 864 653 843 636 864 b 581 857 608 864 597 864 l 382 774 b 340 733 361 765 344 758 b 376 678 339 722 340 678 b 403 685 386 678 394 681 l 601 767 b 649 815 638 782 646 800 z "},"ô":{"ha":729,"x_min":0,"x_max":0,"o":"m 699 300 b 465 611 728 474 621 611 b 129 300 310 611 158 474 b 363 -8 100 124 210 -8 b 699 300 515 -8 669 125 z m 604 310 b 376 76 583 181 479 76 b 226 310 274 76 206 181 b 451 526 247 436 353 526 b 604 310 551 526 625 436 z m 676 753 l 528 858 b 486 858 517 867 500 867 l 306 754 b 336 685 254 725 286 657 l 494 771 l 622 685 b 676 753 664 657 718 724 z "},"õ":{"ha":729,"x_min":0,"x_max":0,"o":"m 699 300 b 465 611 728 474 621 611 b 129 300 310 611 158 474 b 363 -8 100 124 210 -8 b 699 300 515 -8 669 125 z m 604 310 b 376 76 583 181 479 76 b 226 310 274 76 206 181 b 451 526 247 436 353 526 b 604 310 551 526 625 436 z m 743 810 b 708 854 747 832 731 854 b 672 839 693 854 683 847 b 564 778 624 800 583 778 b 526 807 550 778 542 790 b 442 854 511 825 489 854 b 325 808 404 854 361 832 b 244 732 294 788 249 757 b 281 688 240 710 258 688 b 315 703 296 688 304 694 b 424 764 364 742 404 764 b 461 735 438 764 446 751 b 547 688 476 717 500 688 b 663 733 585 688 626 710 b 743 810 694 754 739 785 z "},"ö":{"ha":729,"x_min":0,"x_max":0,"o":"m 699 300 b 465 611 728 474 621 611 b 129 300 310 611 158 474 b 363 -8 100 124 210 -8 b 699 300 515 -8 669 125 z m 604 310 b 376 76 583 181 479 76 b 226 310 274 76 206 181 b 451 526 247 436 353 526 b 604 310 551 526 625 436 z m 442 771 b 389 833 447 807 424 833 b 317 771 354 833 322 807 b 368 708 310 736 333 708 b 442 771 403 708 435 736 z m 671 771 b 618 833 676 807 653 833 b 546 771 583 833 551 807 b 597 708 539 736 563 708 b 671 771 632 708 664 736 z "},"÷":{"ha":729,"x_min":0,"x_max":0,"o":"m 746 425 b 683 474 754 474 703 474 l 203 474 b 124 425 183 474 132 474 b 178 376 115 376 161 376 l 675 376 b 746 425 692 376 738 376 z m 569 718 b 499 806 578 769 543 806 b 396 719 446 806 404 763 b 468 632 388 668 424 632 b 569 718 521 632 563 675 z m 472 129 b 400 217 481 181 444 217 b 299 131 347 217 306 174 b 369 43 290 79 325 43 b 472 129 422 43 464 86 z "},"ø":{"ha":729,"x_min":0,"x_max":0,"o":"m 793 751 b 756 793 799 779 772 793 b 714 767 733 793 724 779 l 579 586 b 465 611 558 596 521 611 b 113 300 297 611 140 469 b 185 58 99 219 115 129 l 67 -100 b 35 -153 54 -117 36 -142 b 72 -194 29 -181 56 -194 b 114 -168 94 -194 106 -179 l 251 15 b 363 -8 294 -6 338 -8 b 715 300 526 -8 686 128 b 644 542 731 393 703 479 l 779 722 b 793 751 792 739 793 747 z m 638 300 b 376 76 617 175 499 76 b 307 88 339 76 332 79 l 589 469 b 638 300 639 418 646 350 z m 525 514 l 239 131 b 190 300 188 188 182 251 b 451 526 211 425 329 526 b 525 514 490 526 499 524 z "},"ù":{"ha":729,"x_min":0,"x_max":0,"o":"m 718 43 b 669 85 725 85 689 85 l 607 85 l 683 542 b 638 599 690 585 685 599 l 536 599 b 472 556 514 599 479 599 b 521 514 465 514 501 514 l 583 514 l 533 218 b 353 76 513 93 397 76 b 258 167 243 76 251 122 l 321 542 b 275 599 328 585 322 599 l 174 599 b 110 556 151 599 117 599 b 158 514 103 514 139 514 l 221 514 l 161 158 b 331 -8 139 25 229 -8 b 504 44 388 -8 447 6 b 553 0 499 0 528 0 l 654 0 b 718 43 676 0 711 0 z m 633 733 b 606 774 638 758 624 765 l 435 857 b 410 864 421 864 410 864 b 353 815 382 864 357 843 b 383 767 350 800 353 782 l 554 685 b 578 678 563 681 568 678 b 633 733 614 678 632 722 z "},"ú":{"ha":729,"x_min":0,"x_max":0,"o":"m 718 43 b 669 85 725 85 689 85 l 607 85 l 683 542 b 638 599 690 585 685 599 l 536 599 b 472 556 514 599 479 599 b 521 514 465 514 501 514 l 583 514 l 533 218 b 353 76 513 93 397 76 b 258 167 243 76 251 122 l 321 542 b 275 599 328 585 322 599 l 174 599 b 110 556 151 599 117 599 b 158 514 103 514 139 514 l 221 514 l 161 158 b 331 -8 139 25 229 -8 b 504 44 388 -8 447 6 b 553 0 499 0 528 0 l 654 0 b 718 43 676 0 711 0 z m 649 815 b 608 864 653 843 636 864 b 581 857 608 864 597 864 l 382 774 b 340 733 361 765 344 758 b 376 678 339 722 340 678 b 403 685 386 678 394 681 l 601 767 b 649 815 638 782 646 800 z "},"û":{"ha":729,"x_min":0,"x_max":0,"o":"m 718 43 b 669 85 725 85 689 85 l 607 85 l 683 542 b 638 599 690 585 685 599 l 536 599 b 472 556 514 599 479 599 b 521 514 465 514 501 514 l 583 514 l 533 218 b 353 76 513 93 397 76 b 258 167 243 76 251 122 l 321 542 b 275 599 328 585 322 599 l 174 599 b 110 556 151 599 117 599 b 158 514 103 514 139 514 l 221 514 l 161 158 b 331 -8 139 25 229 -8 b 504 44 388 -8 447 6 b 553 0 499 0 528 0 l 654 0 b 718 43 676 0 711 0 z m 676 753 l 528 858 b 486 858 517 867 500 867 l 306 754 b 336 685 254 725 286 657 l 494 771 l 622 685 b 676 753 664 657 718 724 z "},"ü":{"ha":729,"x_min":0,"x_max":0,"o":"m 718 43 b 669 85 725 85 689 85 l 607 85 l 683 542 b 638 599 690 585 685 599 l 536 599 b 472 556 514 599 479 599 b 521 514 465 514 501 514 l 583 514 l 533 218 b 353 76 513 93 397 76 b 258 167 243 76 251 122 l 321 542 b 275 599 328 585 322 599 l 174 599 b 110 556 151 599 117 599 b 158 514 103 514 139 514 l 221 514 l 161 158 b 331 -8 139 25 229 -8 b 504 44 388 -8 447 6 b 553 0 499 0 528 0 l 654 0 b 718 43 676 0 711 0 z m 442 771 b 389 833 447 807 424 833 b 317 771 354 833 322 807 b 368 708 310 736 333 708 b 442 771 403 708 435 736 z m 671 771 b 618 833 676 807 653 833 b 546 771 583 833 551 807 b 597 708 539 736 563 708 b 671 771 632 708 664 736 z "},"ý":{"ha":729,"x_min":0,"x_max":0,"o":"m 788 556 b 739 599 794 599 761 599 l 576 599 b 514 557 556 599 521 599 b 563 514 507 514 540 514 l 601 514 l 451 218 b 396 99 425 167 413 142 l 394 99 b 379 181 392 125 385 154 l 306 514 l 340 514 b 403 556 361 514 396 514 b 354 599 410 599 376 599 l 192 599 b 129 556 169 599 136 599 b 178 514 122 514 157 514 l 221 514 l 335 18 b 338 0 339 4 338 0 b 260 -151 338 0 283 -117 b 135 -232 207 -228 156 -231 b 147 -201 135 -232 144 -219 b 97 -142 153 -167 132 -142 b 26 -203 60 -142 32 -167 b 122 -317 17 -261 54 -317 b 363 -118 261 -317 354 -133 l 683 514 l 725 514 b 788 556 746 514 781 514 z m 649 815 b 608 864 653 843 636 864 b 581 857 608 864 597 864 l 382 774 b 340 733 361 765 344 758 b 376 678 339 722 340 678 b 403 685 386 678 394 681 l 601 767 b 649 815 638 782 646 800 z "},"þ":{"ha":729,"x_min":0,"x_max":0,"o":"m 728 300 b 508 607 757 471 656 607 b 321 539 442 607 375 582 l 363 792 b 317 849 369 835 364 849 l 215 849 b 151 806 193 849 158 849 b 200 764 144 764 181 764 l 263 764 l 97 -224 l 36 -224 b -28 -267 14 -224 -21 -224 b 21 -308 -35 -308 1 -308 l 242 -308 b 304 -267 261 -308 297 -308 b 254 -224 311 -224 276 -224 l 193 -224 l 242 63 b 390 -8 289 4 346 -8 b 728 300 542 -8 699 124 z m 632 300 b 400 76 610 167 497 76 b 275 265 292 76 264 199 l 292 367 b 486 522 306 449 399 522 b 632 300 589 522 653 421 z "},"ÿ":{"ha":729,"x_min":0,"x_max":0,"o":"m 788 556 b 739 599 794 599 761 599 l 576 599 b 514 557 556 599 521 599 b 563 514 507 514 540 514 l 601 514 l 451 218 b 396 99 425 167 413 142 l 394 99 b 379 181 392 125 385 154 l 306 514 l 340 514 b 403 556 361 514 396 514 b 354 599 410 599 376 599 l 192 599 b 129 556 169 599 136 599 b 178 514 122 514 157 514 l 221 514 l 335 18 b 338 0 339 4 338 0 b 260 -151 338 0 283 -117 b 135 -232 207 -228 156 -231 b 147 -201 135 -232 144 -219 b 97 -142 153 -167 132 -142 b 26 -203 60 -142 32 -167 b 122 -317 17 -261 54 -317 b 363 -118 261 -317 354 -133 l 683 514 l 725 514 b 788 556 746 514 781 514 z m 442 771 b 389 833 447 807 424 833 b 317 771 354 833 322 807 b 368 708 310 736 333 708 b 442 771 403 708 435 736 z m 671 771 b 618 833 676 807 653 833 b 546 771 583 833 551 807 b 597 708 539 736 563 708 b 671 771 632 708 664 736 z "},"Ā":{"ha":729,"x_min":0,"x_max":0,"o":"m 697 42 b 681 81 700 60 696 74 b 621 85 672 85 642 85 l 574 811 b 508 865 571 864 551 865 b 425 813 468 865 446 865 l 135 85 b 75 82 115 85 83 85 b 44 42 58 74 47 60 b 97 0 38 0 74 0 l 239 0 b 304 42 264 0 297 0 b 233 85 311 85 283 85 l 290 229 l 515 229 l 522 85 b 438 42 472 85 444 85 b 489 0 431 0 464 0 l 631 0 b 697 42 654 0 690 0 z m 508 314 l 325 314 l 489 750 z m 793 992 b 744 1036 800 1036 768 1036 l 331 1036 b 268 993 308 1036 275 1036 b 318 949 261 949 294 949 l 731 949 b 793 992 753 949 786 949 z "},"ā":{"ha":729,"x_min":0,"x_max":0,"o":"m 735 43 b 686 85 742 85 707 85 b 606 96 628 85 615 92 l 656 396 b 415 611 671 494 615 611 b 197 510 356 611 214 611 b 250 446 190 468 217 446 b 321 510 271 446 311 458 b 353 525 324 521 325 522 b 403 526 372 526 390 526 b 557 385 508 526 574 483 b 106 178 311 381 128 311 b 304 -8 90 82 163 -8 b 515 44 356 -8 443 1 b 658 0 539 1 606 0 b 735 43 697 0 728 0 z m 524 186 b 456 100 519 154 514 125 b 328 76 401 76 339 76 b 201 178 242 76 193 124 b 543 303 214 246 342 297 z m 757 771 b 708 815 764 815 732 815 l 294 815 b 232 772 272 815 239 815 b 281 728 224 728 257 728 l 693 728 b 757 771 715 728 749 728 z "},"Ă":{"ha":729,"x_min":0,"x_max":0,"o":"m 697 42 b 681 81 700 60 696 74 b 621 85 672 85 642 85 l 574 811 b 508 865 571 864 551 865 b 425 813 468 865 446 865 l 135 85 b 75 82 115 85 83 85 b 44 42 58 74 47 60 b 97 0 38 0 74 0 l 239 0 b 304 42 264 0 297 0 b 233 85 311 85 283 85 l 290 229 l 515 229 l 522 85 b 438 42 472 85 444 85 b 489 0 431 0 464 0 l 631 0 b 697 42 654 0 690 0 z m 508 314 l 325 314 l 489 750 z m 785 1049 b 749 1092 789 1075 776 1092 b 700 1051 715 1092 706 1068 b 536 1024 689 1024 594 1024 b 381 1051 476 1024 383 1024 b 346 1092 381 1068 379 1092 b 296 1049 319 1092 300 1075 b 521 935 276 935 429 935 b 785 1049 613 935 765 935 z "},"ă":{"ha":729,"x_min":0,"x_max":0,"o":"m 735 43 b 686 85 742 85 707 85 b 606 96 628 85 615 92 l 656 396 b 415 611 671 494 615 611 b 197 510 356 611 214 611 b 250 446 190 468 217 446 b 321 510 271 446 311 458 b 353 525 324 521 325 522 b 403 526 372 526 390 526 b 557 385 508 526 574 483 b 106 178 311 381 128 311 b 304 -8 90 82 163 -8 b 515 44 356 -8 443 1 b 658 0 539 1 606 0 b 735 43 697 0 728 0 z m 524 186 b 456 100 519 154 514 125 b 328 76 401 76 339 76 b 201 178 242 76 193 124 b 543 303 214 246 342 297 z m 744 807 b 708 850 749 833 736 850 b 660 810 675 850 665 826 b 496 782 649 782 554 782 b 340 810 436 782 343 782 b 306 850 340 826 339 850 b 256 807 279 850 260 833 b 481 693 236 693 389 693 b 744 807 572 693 725 693 z "},"Ą":{"ha":729,"x_min":0,"x_max":0,"o":"m 697 42 b 681 81 700 60 696 74 b 621 85 672 85 642 85 l 574 811 b 508 865 571 864 551 865 b 425 813 468 865 446 865 l 135 85 b 75 82 115 85 83 85 b 44 42 58 74 47 60 b 97 0 38 0 74 0 l 239 0 b 304 42 264 0 297 0 b 233 85 311 85 283 85 l 290 229 l 515 229 l 522 85 b 438 42 472 85 444 85 b 489 0 431 0 464 0 b 374 -150 429 -35 385 -85 b 489 -282 364 -210 401 -282 b 642 -200 542 -282 600 -246 b 643 -149 653 -187 653 -158 b 590 -156 632 -142 600 -147 b 507 -207 572 -178 535 -207 b 456 -153 482 -207 450 -186 b 601 0 465 -93 521 -43 b 631 0 631 0 622 0 b 697 42 654 0 690 0 z m 508 314 l 325 314 l 489 750 z "},"ą":{"ha":729,"x_min":0,"x_max":0,"o":"m 735 43 b 686 85 742 85 707 85 b 606 96 628 85 615 92 l 656 396 b 415 611 671 494 615 611 b 197 510 356 611 214 611 b 250 446 190 468 217 446 b 321 510 271 446 311 458 b 353 525 324 521 325 522 b 403 526 372 526 390 526 b 557 385 508 526 574 483 b 106 178 311 381 128 311 b 304 -8 90 82 163 -8 b 515 44 356 -8 443 1 b 557 13 525 29 539 18 b 424 -150 496 -22 435 -85 b 539 -282 414 -210 451 -282 b 692 -200 592 -282 650 -246 b 693 -149 703 -187 703 -158 b 640 -156 682 -142 650 -147 b 557 -207 622 -178 585 -207 b 506 -153 532 -207 500 -186 b 658 0 515 -93 578 -43 b 735 43 697 0 728 0 z m 524 186 b 456 100 519 154 514 125 b 328 76 401 76 339 76 b 201 178 242 76 193 124 b 543 303 214 246 342 297 z "},"Ć":{"ha":729,"x_min":0,"x_max":0,"o":"m 711 233 b 671 279 719 279 686 279 b 617 239 658 279 626 279 b 408 69 583 103 465 69 b 222 425 282 69 188 217 b 526 779 257 632 403 779 b 675 603 610 779 675 715 b 717 557 676 579 675 557 b 775 614 765 557 769 586 l 807 807 b 775 864 811 829 817 864 b 732 840 750 864 740 850 b 704 797 728 835 728 832 b 535 864 664 836 606 864 b 126 425 356 864 168 678 b 389 -15 85 171 208 -15 b 711 233 550 -15 690 108 z m 729 1072 b 688 1121 733 1100 715 1121 b 661 1114 688 1121 676 1121 l 463 1031 b 421 990 442 1022 425 1015 b 457 935 418 979 421 935 b 483 942 467 935 474 938 l 682 1024 b 729 1072 718 1039 726 1057 z "},"ć":{"ha":729,"x_min":0,"x_max":0,"o":"m 672 151 b 631 190 679 190 639 190 b 579 160 608 190 594 188 b 428 76 568 142 531 76 b 247 300 310 76 226 174 b 511 526 258 367 324 526 b 593 514 540 526 594 526 b 643 446 586 465 610 446 b 715 510 676 446 708 469 b 525 611 732 611 588 611 b 151 300 286 611 172 422 b 406 -8 124 133 231 -8 b 672 151 599 -8 668 128 z m 686 815 b 646 864 690 843 674 864 b 618 857 646 864 635 864 l 419 774 b 378 733 399 765 382 758 b 414 678 376 722 378 678 b 440 685 424 678 432 681 l 639 767 b 686 815 675 782 683 800 z "},"Ĉ":{"ha":729,"x_min":0,"x_max":0,"o":"m 711 233 b 671 279 719 279 686 279 b 617 239 658 279 626 279 b 408 69 583 103 465 69 b 222 425 282 69 188 217 b 526 779 257 632 403 779 b 675 603 610 779 675 715 b 717 557 676 579 675 557 b 775 614 765 557 769 586 l 807 807 b 775 864 811 829 817 864 b 732 840 750 864 740 850 b 704 797 728 835 728 832 b 535 864 664 836 606 864 b 126 425 356 864 168 678 b 389 -15 85 171 208 -15 b 711 233 550 -15 690 108 z m 747 1001 l 593 1061 b 567 1061 586 1064 576 1064 l 393 1001 b 406 924 340 983 353 908 l 564 969 l 708 924 b 747 1001 756 908 793 983 z "},"ĉ":{"ha":729,"x_min":0,"x_max":0,"o":"m 672 151 b 631 190 679 190 639 190 b 579 160 608 190 594 188 b 428 76 568 142 531 76 b 247 300 310 76 226 174 b 511 526 258 367 324 526 b 593 514 540 526 594 526 b 643 446 586 465 610 446 b 715 510 676 446 708 469 b 525 611 732 611 588 611 b 151 300 286 611 172 422 b 406 -8 124 133 231 -8 b 672 151 599 -8 668 128 z m 714 753 l 565 858 b 524 858 554 867 538 867 l 343 754 b 374 685 292 725 324 657 l 532 771 l 660 685 b 714 753 701 657 756 724 z "},"Ċ":{"ha":729,"x_min":0,"x_max":0,"o":"m 711 233 b 671 279 719 279 686 279 b 617 239 658 279 626 279 b 408 69 583 103 465 69 b 222 425 282 69 188 217 b 526 779 257 632 403 779 b 675 603 610 779 675 715 b 717 557 676 579 675 557 b 775 614 765 557 769 586 l 807 807 b 775 864 811 829 817 864 b 732 840 750 864 740 850 b 704 797 728 835 728 832 b 535 864 664 836 606 864 b 126 425 356 864 168 678 b 389 -15 85 171 208 -15 b 711 233 550 -15 690 108 z m 639 1006 b 581 1075 644 1044 619 1075 b 500 1006 542 1075 506 1044 b 557 936 493 967 518 936 b 639 1006 596 936 632 967 z "},"ċ":{"ha":729,"x_min":0,"x_max":0,"o":"m 672 151 b 631 190 679 190 639 190 b 579 160 608 190 594 188 b 428 76 568 142 531 76 b 247 300 310 76 226 174 b 511 526 258 367 324 526 b 593 514 540 526 594 526 b 643 446 586 465 610 446 b 715 510 676 446 708 469 b 525 611 732 611 588 611 b 151 300 286 611 172 422 b 406 -8 124 133 231 -8 b 672 151 599 -8 668 128 z m 601 771 b 543 840 607 810 582 840 b 463 771 504 840 468 810 b 519 701 456 732 481 701 b 601 771 558 701 594 732 z "},"Č":{"ha":729,"x_min":0,"x_max":0,"o":"m 711 233 b 671 279 719 279 686 279 b 617 239 658 279 626 279 b 408 69 583 103 465 69 b 222 425 282 69 188 217 b 526 779 257 632 403 779 b 675 603 610 779 675 715 b 717 557 676 579 675 557 b 775 614 765 557 769 586 l 807 807 b 775 864 811 829 817 864 b 732 840 750 864 740 850 b 704 797 728 835 728 832 b 535 864 664 836 606 864 b 126 425 356 864 168 678 b 389 -15 85 171 208 -15 b 711 233 550 -15 690 108 z m 743 983 b 731 1061 796 1001 783 1076 l 572 1015 l 428 1061 b 389 983 381 1076 343 1001 l 543 924 b 569 924 550 921 560 921 z "},"č":{"ha":729,"x_min":0,"x_max":0,"o":"m 672 151 b 631 190 679 190 639 190 b 579 160 608 190 594 188 b 428 76 568 142 531 76 b 247 300 310 76 226 174 b 511 526 258 367 324 526 b 593 514 540 526 594 526 b 643 446 586 465 610 446 b 715 510 676 446 708 469 b 525 611 732 611 588 611 b 151 300 286 611 172 422 b 406 -8 124 133 231 -8 b 672 151 599 -8 668 128 z m 721 788 b 689 857 771 817 739 885 l 532 771 l 403 857 b 349 789 361 885 307 818 l 497 683 b 539 683 508 675 525 675 z "},"Ď":{"ha":729,"x_min":0,"x_max":0,"o":"m 743 418 b 511 849 781 640 696 849 l 225 849 b 161 806 203 849 168 849 b 211 764 154 764 190 764 l 242 764 l 128 85 l 97 85 b 33 42 75 85 40 85 b 83 0 26 0 63 0 l 369 0 b 743 418 551 0 706 194 z m 647 418 b 357 85 621 256 511 85 l 224 85 l 338 764 l 471 764 b 647 418 628 764 675 579 z m 618 983 b 606 1061 671 1001 658 1076 l 447 1015 l 303 1061 b 264 983 256 1076 218 1001 l 418 924 b 444 924 425 921 435 921 z "},"ď":{"ha":729,"x_min":0,"x_max":0,"o":"m 718 43 b 669 85 725 85 689 85 l 607 85 l 725 792 b 679 849 732 835 726 849 l 578 849 b 514 806 556 849 521 849 b 563 764 507 764 543 764 l 625 764 l 588 544 b 436 607 549 585 496 607 b 100 299 285 607 129 475 b 321 -8 71 126 174 -8 b 508 69 399 -8 464 29 b 553 0 500 19 497 0 l 654 0 b 718 43 676 0 711 0 z m 542 269 b 340 76 529 192 447 76 b 196 299 242 76 175 175 b 428 522 218 432 331 522 b 558 368 517 522 571 444 z m 944 744 b 876 849 956 808 922 849 b 799 785 835 849 804 818 b 853 718 792 744 818 718 b 875 722 858 718 867 719 b 782 636 849 657 796 640 b 749 607 772 633 751 628 b 776 574 746 592 760 574 b 944 744 810 574 926 631 z "},"Đ":{"ha":729,"x_min":0,"x_max":0,"o":"m 743 418 b 511 849 781 640 696 849 l 225 849 b 161 806 203 849 168 849 b 211 764 154 764 190 764 l 242 764 l 192 468 l 153 468 b 103 425 129 468 107 449 b 139 382 99 400 115 382 l 178 382 l 128 85 l 97 85 b 33 42 75 85 40 85 b 83 0 26 0 63 0 l 369 0 b 743 418 551 0 706 194 z m 647 418 b 357 85 621 256 511 85 l 224 85 l 274 382 l 356 382 b 406 425 379 382 401 400 b 369 468 410 449 393 468 l 288 468 l 338 764 l 471 764 b 647 418 628 764 675 579 z "},"đ":{"ha":729,"x_min":0,"x_max":0,"o":"m 718 43 b 669 85 725 85 689 85 l 607 85 l 700 638 l 769 638 b 819 681 793 638 815 657 b 783 724 824 704 807 724 l 714 724 l 725 792 b 679 849 732 835 726 849 l 578 849 b 514 806 556 849 521 849 b 563 764 507 764 543 764 l 625 764 l 618 724 l 413 724 b 363 681 389 724 367 704 b 399 638 358 657 375 638 l 604 638 l 588 544 b 436 607 549 585 496 607 b 100 299 285 607 129 475 b 321 -8 71 126 174 -8 b 508 69 399 -8 464 29 b 553 0 500 19 497 0 l 654 0 b 718 43 676 0 711 0 z m 542 269 b 340 76 529 192 447 76 b 196 299 242 76 175 175 b 428 522 218 432 331 522 b 558 368 517 522 571 444 z "},"Ē":{"ha":729,"x_min":0,"x_max":0,"o":"m 707 57 l 728 181 b 690 238 732 207 738 238 b 632 181 642 238 636 208 l 615 85 l 244 85 l 297 397 l 479 397 b 514 318 469 340 465 318 b 571 375 561 318 567 349 l 593 504 b 554 561 597 531 601 561 b 493 482 506 561 503 539 l 311 482 l 358 764 l 699 764 l 686 690 b 724 633 682 664 676 633 b 782 690 772 633 778 663 l 799 792 b 753 849 806 835 800 849 l 235 849 b 171 807 214 849 178 849 b 221 764 164 764 200 764 l 263 764 l 149 85 l 107 85 b 43 42 85 85 50 85 b 93 0 36 0 72 0 l 642 0 b 707 57 688 0 700 13 z m 793 992 b 744 1036 800 1036 768 1036 l 331 1036 b 268 993 308 1036 275 1036 b 318 949 261 949 294 949 l 731 949 b 793 992 753 949 786 949 z "},"ē":{"ha":729,"x_min":0,"x_max":0,"o":"m 669 151 b 628 190 676 190 636 190 b 576 160 603 190 590 186 b 418 76 535 89 457 76 b 219 265 314 76 222 146 l 633 265 b 697 317 663 265 689 265 b 476 611 724 475 657 611 b 126 301 311 611 156 472 b 394 -8 99 132 215 -8 b 669 151 578 -8 664 117 z m 604 349 l 235 349 b 463 526 271 450 365 526 b 604 349 535 526 615 492 z m 757 771 b 708 815 764 815 732 815 l 294 815 b 232 772 272 815 239 815 b 281 728 224 728 257 728 l 693 728 b 757 771 715 728 749 728 z "},"Ĕ":{"ha":729,"x_min":0,"x_max":0,"o":"m 707 57 l 728 181 b 690 238 732 207 738 238 b 632 181 642 238 636 208 l 615 85 l 244 85 l 297 397 l 479 397 b 514 318 469 340 465 318 b 571 375 561 318 567 349 l 593 504 b 554 561 597 531 601 561 b 493 482 506 561 503 539 l 311 482 l 358 764 l 699 764 l 686 690 b 724 633 682 664 676 633 b 782 690 772 633 778 663 l 799 792 b 753 849 806 835 800 849 l 235 849 b 171 807 214 849 178 849 b 221 764 164 764 200 764 l 263 764 l 149 85 l 107 85 b 43 42 85 85 50 85 b 93 0 36 0 72 0 l 642 0 b 707 57 688 0 700 13 z m 785 1049 b 749 1092 789 1075 776 1092 b 700 1051 715 1092 706 1068 b 536 1024 689 1024 594 1024 b 381 1051 476 1024 383 1024 b 346 1092 381 1068 379 1092 b 296 1049 319 1092 300 1075 b 521 935 276 935 429 935 b 785 1049 613 935 765 935 z "},"ĕ":{"ha":729,"x_min":0,"x_max":0,"o":"m 669 151 b 628 190 676 190 636 190 b 576 160 603 190 590 186 b 418 76 535 89 457 76 b 219 265 314 76 222 146 l 633 265 b 697 317 663 265 689 265 b 476 611 724 475 657 611 b 126 301 311 611 156 472 b 394 -8 99 132 215 -8 b 669 151 578 -8 664 117 z m 604 349 l 235 349 b 463 526 271 450 365 526 b 604 349 535 526 615 492 z m 744 807 b 708 850 749 833 736 850 b 660 810 675 850 665 826 b 496 782 649 782 554 782 b 340 810 436 782 343 782 b 306 850 340 826 339 850 b 256 807 279 850 260 833 b 481 693 236 693 389 693 b 744 807 572 693 725 693 z "},"Ė":{"ha":729,"x_min":0,"x_max":0,"o":"m 707 57 l 728 181 b 690 238 732 207 738 238 b 632 181 642 238 636 208 l 615 85 l 244 85 l 297 397 l 479 397 b 514 318 469 340 465 318 b 571 375 561 318 567 349 l 593 504 b 554 561 597 531 601 561 b 493 482 506 561 503 539 l 311 482 l 358 764 l 699 764 l 686 690 b 724 633 682 664 676 633 b 782 690 772 633 778 663 l 799 792 b 753 849 806 835 800 849 l 235 849 b 171 807 214 849 178 849 b 221 764 164 764 200 764 l 263 764 l 149 85 l 107 85 b 43 42 85 85 50 85 b 93 0 36 0 72 0 l 642 0 b 707 57 688 0 700 13 z m 603 1006 b 544 1075 608 1044 583 1075 b 464 1006 506 1075 469 1044 b 521 936 457 967 482 936 b 603 1006 560 936 596 967 z "},"ė":{"ha":729,"x_min":0,"x_max":0,"o":"m 669 151 b 628 190 676 190 636 190 b 576 160 603 190 590 186 b 418 76 535 89 457 76 b 219 265 314 76 222 146 l 633 265 b 697 317 663 265 689 265 b 476 611 724 475 657 611 b 126 301 311 611 156 472 b 394 -8 99 132 215 -8 b 669 151 578 -8 664 117 z m 604 349 l 235 349 b 463 526 271 450 365 526 b 604 349 535 526 615 492 z m 564 771 b 506 840 569 810 544 840 b 425 771 467 840 431 810 b 482 701 418 732 443 701 b 564 771 521 701 557 732 z "},"Ę":{"ha":729,"x_min":0,"x_max":0,"o":"m 707 57 l 728 181 b 690 238 732 207 738 238 b 632 181 642 238 636 208 l 615 85 l 244 85 l 297 397 l 479 397 b 514 318 469 340 465 318 b 571 375 561 318 567 349 l 593 504 b 554 561 597 531 601 561 b 493 482 506 561 503 539 l 311 482 l 358 764 l 699 764 l 686 690 b 724 633 682 664 676 633 b 782 690 772 633 778 663 l 799 792 b 753 849 806 835 800 849 l 235 849 b 171 807 214 849 178 849 b 221 764 164 764 200 764 l 263 764 l 149 85 l 107 85 b 43 42 85 85 50 85 b 93 0 36 0 72 0 l 489 0 b 374 -150 429 -35 385 -85 b 489 -282 364 -210 401 -282 b 642 -200 542 -282 600 -246 b 643 -149 653 -187 653 -158 b 590 -156 632 -142 600 -147 b 507 -207 572 -178 535 -207 b 456 -153 482 -207 450 -186 b 601 0 465 -93 521 -43 l 642 0 b 707 57 688 0 700 13 z "},"ę":{"ha":729,"x_min":0,"x_max":0,"o":"m 669 151 b 628 190 676 190 636 190 b 576 160 603 190 590 186 b 418 76 535 89 457 76 b 219 265 314 76 222 146 l 633 265 b 697 317 663 265 689 265 b 476 611 724 475 657 611 b 126 301 311 611 156 472 b 365 -7 100 142 203 7 b 263 -150 306 -42 274 -85 b 378 -282 253 -210 290 -282 b 531 -200 431 -282 489 -246 b 532 -149 542 -187 542 -158 b 479 -156 521 -142 489 -147 b 396 -207 461 -178 424 -207 b 344 -153 371 -207 339 -186 b 492 6 354 -93 410 -37 b 669 151 610 39 665 124 z m 604 349 l 235 349 b 463 526 271 450 365 526 b 604 349 535 526 615 492 z "},"Ě":{"ha":729,"x_min":0,"x_max":0,"o":"m 707 57 l 728 181 b 690 238 732 207 738 238 b 632 181 642 238 636 208 l 615 85 l 244 85 l 297 397 l 479 397 b 514 318 469 340 465 318 b 571 375 561 318 567 349 l 593 504 b 554 561 597 531 601 561 b 493 482 506 561 503 539 l 311 482 l 358 764 l 699 764 l 686 690 b 724 633 682 664 676 633 b 782 690 772 633 778 663 l 799 792 b 753 849 806 835 800 849 l 235 849 b 171 807 214 849 178 849 b 221 764 164 764 200 764 l 263 764 l 149 85 l 107 85 b 43 42 85 85 50 85 b 93 0 36 0 72 0 l 642 0 b 707 57 688 0 700 13 z m 706 983 b 693 1061 758 1001 746 1076 l 535 1015 l 390 1061 b 351 983 343 1076 306 1001 l 506 924 b 532 924 513 921 522 921 z "},"ě":{"ha":729,"x_min":0,"x_max":0,"o":"m 669 151 b 628 190 676 190 636 190 b 576 160 603 190 590 186 b 418 76 535 89 457 76 b 219 265 314 76 222 146 l 633 265 b 697 317 663 265 689 265 b 476 611 724 475 657 611 b 126 301 311 611 156 472 b 394 -8 99 132 215 -8 b 669 151 578 -8 664 117 z m 604 349 l 235 349 b 463 526 271 450 365 526 b 604 349 535 526 615 492 z m 683 788 b 651 857 733 817 701 885 l 494 771 l 365 857 b 311 789 324 885 269 818 l 460 683 b 501 683 471 675 488 675 z "},"Ĝ":{"ha":729,"x_min":0,"x_max":0,"o":"m 744 333 b 694 375 751 375 715 375 l 529 375 b 467 333 508 375 474 375 b 515 290 460 290 493 290 l 574 290 b 378 69 531 135 451 69 b 219 424 265 69 185 219 b 499 779 254 636 390 779 b 628 597 547 779 629 747 b 668 557 626 574 632 557 b 726 614 717 557 721 586 l 758 807 b 726 864 763 829 768 864 b 658 801 697 864 688 849 b 507 864 617 843 565 864 b 124 425 340 864 165 676 b 360 -15 81 169 194 -15 b 538 58 439 -15 504 26 b 576 0 532 28 528 0 b 633 57 624 0 629 31 l 672 290 b 744 333 706 290 738 290 z m 710 1001 l 556 1061 b 529 1061 549 1064 539 1064 l 356 1001 b 368 924 303 983 315 908 l 526 969 l 671 924 b 710 1001 718 908 756 983 z "},"ĝ":{"ha":729,"x_min":0,"x_max":0,"o":"m 797 539 b 708 614 803 571 783 614 b 553 565 693 614 625 613 b 425 607 533 581 489 607 b 158 385 294 607 178 503 b 181 253 149 325 165 279 b 138 158 163 231 144 200 b 153 58 129 110 143 75 b 21 -114 39 -4 24 -99 b 311 -318 1 -233 133 -318 b 668 -114 489 -318 649 -232 b 599 44 676 -62 664 7 b 404 85 583 54 529 85 l 307 85 b 268 88 296 85 278 85 b 225 107 247 88 239 88 b 217 157 213 126 217 157 b 232 196 218 163 224 182 b 350 161 235 193 282 161 b 617 385 478 161 596 261 b 601 506 624 426 618 467 b 686 529 633 522 667 528 b 732 482 688 492 718 482 b 797 539 756 482 790 499 z m 521 385 b 364 244 508 306 436 244 b 254 383 289 244 242 310 b 411 524 268 463 339 524 b 521 385 486 524 533 458 z m 588 -114 b 325 -235 578 -175 464 -235 b 101 -114 186 -235 92 -175 b 175 -17 106 -89 126 -44 b 328 6 214 6 226 6 b 588 -114 451 6 608 6 z m 626 753 l 478 858 b 436 858 467 867 450 867 l 256 754 b 286 685 204 725 236 657 l 444 771 l 572 685 b 626 753 614 657 668 724 z "},"Ğ":{"ha":729,"x_min":0,"x_max":0,"o":"m 744 333 b 694 375 751 375 715 375 l 529 375 b 467 333 508 375 474 375 b 515 290 460 290 493 290 l 574 290 b 378 69 531 135 451 69 b 219 424 265 69 185 219 b 499 779 254 636 390 779 b 628 597 547 779 629 747 b 668 557 626 574 632 557 b 726 614 717 557 721 586 l 758 807 b 726 864 763 829 768 864 b 658 801 697 864 688 849 b 507 864 617 843 565 864 b 124 425 340 864 165 676 b 360 -15 81 169 194 -15 b 538 58 439 -15 504 26 b 576 0 532 28 528 0 b 633 57 624 0 629 31 l 672 290 b 744 333 706 290 738 290 z m 785 1049 b 749 1092 789 1075 776 1092 b 700 1051 715 1092 706 1068 b 536 1024 689 1024 594 1024 b 381 1051 476 1024 383 1024 b 346 1092 381 1068 379 1092 b 296 1049 319 1092 300 1075 b 521 935 276 935 429 935 b 785 1049 613 935 765 935 z "},"ğ":{"ha":729,"x_min":0,"x_max":0,"o":"m 797 539 b 708 614 803 571 783 614 b 553 565 693 614 625 613 b 425 607 533 581 489 607 b 158 385 294 607 178 503 b 181 253 149 325 165 279 b 138 158 163 231 144 200 b 153 58 129 110 143 75 b 21 -114 39 -4 24 -99 b 311 -318 1 -233 133 -318 b 668 -114 489 -318 649 -232 b 599 44 676 -62 664 7 b 404 85 583 54 529 85 l 307 85 b 268 88 296 85 278 85 b 225 107 247 88 239 88 b 217 157 213 126 217 157 b 232 196 218 163 224 182 b 350 161 235 193 282 161 b 617 385 478 161 596 261 b 601 506 624 426 618 467 b 686 529 633 522 667 528 b 732 482 688 492 718 482 b 797 539 756 482 790 499 z m 521 385 b 364 244 508 306 436 244 b 254 383 289 244 242 310 b 411 524 268 463 339 524 b 521 385 486 524 533 458 z m 588 -114 b 325 -235 578 -175 464 -235 b 101 -114 186 -235 92 -175 b 175 -17 106 -89 126 -44 b 328 6 214 6 226 6 b 588 -114 451 6 608 6 z m 694 807 b 658 850 699 833 686 850 b 610 810 625 850 615 826 b 446 782 599 782 504 782 b 290 810 386 782 293 782 b 256 850 290 826 289 850 b 206 807 229 850 210 833 b 431 693 186 693 339 693 b 694 807 522 693 675 693 z "},"Ġ":{"ha":729,"x_min":0,"x_max":0,"o":"m 744 333 b 694 375 751 375 715 375 l 529 375 b 467 333 508 375 474 375 b 515 290 460 290 493 290 l 574 290 b 378 69 531 135 451 69 b 219 424 265 69 185 219 b 499 779 254 636 390 779 b 628 597 547 779 629 747 b 668 557 626 574 632 557 b 726 614 717 557 721 586 l 758 807 b 726 864 763 829 768 864 b 658 801 697 864 688 849 b 507 864 617 843 565 864 b 124 425 340 864 165 676 b 360 -15 81 169 194 -15 b 538 58 439 -15 504 26 b 576 0 532 28 528 0 b 633 57 624 0 629 31 l 672 290 b 744 333 706 290 738 290 z m 603 1006 b 544 1075 608 1044 583 1075 b 464 1006 506 1075 469 1044 b 521 936 457 967 482 936 b 603 1006 560 936 596 967 z "},"ġ":{"ha":729,"x_min":0,"x_max":0,"o":"m 797 539 b 708 614 803 571 783 614 b 553 565 693 614 625 613 b 425 607 533 581 489 607 b 158 385 294 607 178 503 b 181 253 149 325 165 279 b 138 158 163 231 144 200 b 153 58 129 110 143 75 b 21 -114 39 -4 24 -99 b 311 -318 1 -233 133 -318 b 668 -114 489 -318 649 -232 b 599 44 676 -62 664 7 b 404 85 583 54 529 85 l 307 85 b 268 88 296 85 278 85 b 225 107 247 88 239 88 b 217 157 213 126 217 157 b 232 196 218 163 224 182 b 350 161 235 193 282 161 b 617 385 478 161 596 261 b 601 506 624 426 618 467 b 686 529 633 522 667 528 b 732 482 688 492 718 482 b 797 539 756 482 790 499 z m 521 385 b 364 244 508 306 436 244 b 254 383 289 244 242 310 b 411 524 268 463 339 524 b 521 385 486 524 533 458 z m 588 -114 b 325 -235 578 -175 464 -235 b 101 -114 186 -235 92 -175 b 175 -17 106 -89 126 -44 b 328 6 214 6 226 6 b 588 -114 451 6 608 6 z m 514 771 b 456 840 519 810 494 840 b 375 771 417 840 381 810 b 432 701 368 732 393 701 b 514 771 471 701 507 732 z "},"Ģ":{"ha":729,"x_min":0,"x_max":0,"o":"m 744 333 b 694 375 751 375 715 375 l 529 375 b 467 333 508 375 474 375 b 515 290 460 290 493 290 l 574 290 b 378 69 531 135 451 69 b 219 424 265 69 185 219 b 499 779 254 636 390 779 b 628 597 547 779 629 747 b 668 557 626 574 632 557 b 726 614 717 557 721 586 l 758 807 b 726 864 763 829 768 864 b 658 801 697 864 688 849 b 507 864 617 843 565 864 b 124 425 340 864 165 676 b 360 -15 81 169 194 -15 b 538 58 439 -15 504 26 b 576 0 532 28 528 0 b 633 57 624 0 629 31 l 672 290 b 744 333 706 290 738 290 z m 426 -150 b 357 -46 438 -86 403 -46 b 281 -110 315 -46 286 -76 b 335 -176 274 -150 300 -176 b 356 -172 340 -176 349 -175 b 264 -258 329 -237 276 -254 b 229 -287 254 -261 233 -267 b 257 -321 228 -303 240 -321 b 426 -150 290 -321 407 -264 z "},"ģ":{"ha":729,"x_min":0,"x_max":0,"o":"m 550 890 b 522 924 553 906 539 924 b 353 753 489 924 372 867 b 422 649 343 689 376 649 b 500 713 464 649 494 679 b 446 779 506 753 481 779 b 424 775 440 779 431 778 b 515 861 450 840 503 857 b 550 890 526 864 546 869 z m 797 539 b 708 614 803 571 783 614 b 553 565 693 614 625 613 b 425 607 533 581 489 607 b 158 385 294 607 178 503 b 181 253 149 325 165 279 b 138 158 163 231 144 200 b 153 58 129 110 143 75 b 21 -114 39 -4 24 -99 b 311 -318 1 -233 133 -318 b 668 -114 489 -318 649 -232 b 599 44 676 -62 664 7 b 404 85 583 54 529 85 l 307 85 b 268 88 296 85 278 85 b 225 107 247 88 239 88 b 217 157 213 126 217 157 b 232 196 218 163 224 182 b 350 161 235 193 282 161 b 617 385 478 161 596 261 b 601 506 624 426 618 467 b 686 529 633 522 667 528 b 732 482 688 492 718 482 b 797 539 756 482 790 499 z m 521 385 b 364 244 508 306 436 244 b 254 383 289 244 242 310 b 411 524 268 463 339 524 b 521 385 486 524 533 458 z m 588 -114 b 325 -235 578 -175 464 -235 b 101 -114 186 -235 92 -175 b 175 -17 106 -89 126 -44 b 328 6 214 6 226 6 b 588 -114 451 6 608 6 z "},"Ĥ":{"ha":729,"x_min":0,"x_max":0,"o":"m 704 42 b 656 85 711 85 678 85 l 621 85 l 735 764 l 769 764 b 832 806 790 764 825 764 b 783 849 839 849 806 849 l 618 849 b 556 807 597 849 563 849 b 604 764 549 764 582 764 l 639 764 l 592 483 l 297 483 l 344 764 l 379 764 b 442 806 400 764 435 764 b 393 849 449 849 415 849 l 228 849 b 165 806 206 849 172 849 b 214 764 158 764 193 764 l 249 764 l 135 85 l 100 85 b 38 42 78 85 44 85 b 86 0 31 0 65 0 l 251 0 b 314 42 272 0 307 0 b 265 85 321 85 288 85 l 231 85 l 283 399 l 578 399 l 525 85 l 490 85 b 428 43 469 85 435 85 b 476 0 421 0 454 0 l 642 0 b 704 42 663 0 697 0 z m 710 1001 l 556 1061 b 529 1061 549 1064 539 1064 l 356 1001 b 368 924 303 983 315 908 l 526 969 l 671 924 b 710 1001 718 908 756 983 z "},"ĥ":{"ha":729,"x_min":0,"x_max":0,"o":"m 718 42 b 668 85 725 85 690 85 l 607 85 l 661 407 b 514 607 685 547 624 607 b 319 533 421 607 350 560 l 363 792 b 317 849 369 835 364 849 l 215 849 b 151 806 193 849 158 849 b 200 764 144 764 181 764 l 263 764 l 149 85 l 88 85 b 24 42 65 85 31 85 b 72 0 17 0 53 0 l 293 0 b 356 42 313 0 349 0 b 306 85 363 85 328 85 l 244 85 l 286 331 b 492 522 308 469 421 522 b 564 400 565 522 578 483 l 511 85 l 457 85 b 393 42 435 85 400 85 b 443 0 386 0 424 0 l 656 0 b 718 42 675 0 711 0 z m 710 1001 l 556 1061 b 529 1061 549 1064 539 1064 l 356 1001 b 368 924 303 983 315 908 l 526 969 l 671 924 b 710 1001 718 908 756 983 z "},"Ħ":{"ha":729,"x_min":0,"x_max":0,"o":"m 704 42 b 656 85 711 85 678 85 l 621 85 l 706 593 l 747 593 b 797 636 771 593 794 613 b 763 679 801 660 786 679 l 721 679 l 735 764 l 769 764 b 832 806 790 764 825 764 b 783 849 839 849 806 849 l 618 849 b 556 807 597 849 563 849 b 604 764 549 764 582 764 l 639 764 l 625 679 l 331 679 l 344 764 l 379 764 b 442 806 400 764 435 764 b 393 849 449 849 415 849 l 228 849 b 165 806 206 849 172 849 b 214 764 158 764 193 764 l 249 764 l 235 679 l 193 679 b 142 636 169 679 146 660 b 178 593 139 613 154 593 l 219 593 l 135 85 l 100 85 b 38 42 78 85 44 85 b 86 0 31 0 65 0 l 251 0 b 314 42 272 0 307 0 b 265 85 321 85 288 85 l 231 85 l 283 399 l 578 399 l 525 85 l 490 85 b 428 43 469 85 435 85 b 476 0 421 0 454 0 l 642 0 b 704 42 663 0 697 0 z m 592 483 l 297 483 l 315 593 l 610 593 z "},"ħ":{"ha":729,"x_min":0,"x_max":0,"o":"m 718 42 b 668 85 725 85 690 85 l 607 85 l 661 407 b 514 607 685 547 624 607 b 319 533 421 607 350 560 l 338 638 l 472 638 b 522 681 496 638 518 657 b 486 724 526 704 510 724 l 351 724 l 363 792 b 317 849 369 835 364 849 l 215 849 b 151 806 193 849 158 849 b 200 764 144 764 181 764 l 263 764 l 256 724 l 186 724 b 136 681 163 724 140 704 b 172 638 132 657 149 638 l 242 638 l 149 85 l 88 85 b 24 42 65 85 31 85 b 72 0 17 0 53 0 l 293 0 b 356 42 313 0 349 0 b 306 85 363 85 328 85 l 244 85 l 286 331 b 492 522 308 469 421 522 b 564 400 565 522 578 483 l 511 85 l 457 85 b 393 42 435 85 400 85 b 443 0 386 0 424 0 l 656 0 b 718 42 675 0 711 0 z "},"Ĩ":{"ha":729,"x_min":0,"x_max":0,"o":"m 626 42 b 576 85 633 85 597 85 l 426 85 l 540 764 l 690 764 b 754 806 711 764 747 764 b 704 849 761 849 725 849 l 308 849 b 244 807 288 849 251 849 b 294 764 238 764 274 764 l 444 764 l 331 85 l 181 85 b 117 43 160 85 124 85 b 167 0 110 0 146 0 l 563 0 b 626 42 583 0 619 0 z m 782 1043 b 746 1088 786 1065 768 1088 b 711 1072 731 1088 722 1081 b 603 1011 663 1033 622 1011 b 565 1040 589 1011 581 1024 b 479 1088 550 1058 526 1088 b 364 1042 442 1088 400 1065 b 283 965 332 1021 288 990 b 318 921 279 943 296 921 b 354 936 333 921 343 928 b 463 997 403 975 443 997 b 500 968 476 997 485 985 b 585 921 515 950 538 921 b 701 967 622 921 665 943 b 782 1043 732 988 778 1018 z "},"ĩ":{"ha":729,"x_min":0,"x_max":0,"o":"m 639 42 b 589 85 646 85 610 85 l 443 85 l 519 542 b 474 599 526 585 521 599 l 276 599 b 213 557 256 599 219 599 b 263 514 206 514 242 514 l 419 514 l 347 85 l 179 85 b 115 42 157 85 122 85 b 165 0 108 0 144 0 l 575 0 b 639 42 596 0 632 0 z m 743 810 b 708 854 747 832 731 854 b 672 839 693 854 683 847 b 564 778 624 800 583 778 b 526 807 550 778 542 790 b 442 854 511 825 489 854 b 325 808 404 854 361 832 b 244 732 294 788 249 757 b 281 688 240 710 258 688 b 315 703 296 688 304 694 b 424 764 364 742 404 764 b 461 735 438 764 446 751 b 547 688 476 717 500 688 b 663 733 585 688 626 710 b 743 810 694 754 739 785 z "},"Ī":{"ha":729,"x_min":0,"x_max":0,"o":"m 626 42 b 576 85 633 85 597 85 l 426 85 l 540 764 l 690 764 b 754 806 711 764 747 764 b 704 849 761 849 725 849 l 308 849 b 244 807 288 849 251 849 b 294 764 238 764 274 764 l 444 764 l 331 85 l 181 85 b 117 43 160 85 124 85 b 167 0 110 0 146 0 l 563 0 b 626 42 583 0 619 0 z m 793 992 b 744 1036 800 1036 768 1036 l 331 1036 b 268 993 308 1036 275 1036 b 318 949 261 949 294 949 l 731 949 b 793 992 753 949 786 949 z "},"ī":{"ha":729,"x_min":0,"x_max":0,"o":"m 639 42 b 589 85 646 85 610 85 l 443 85 l 519 542 b 474 599 526 585 521 599 l 276 599 b 213 557 256 599 219 599 b 263 514 206 514 242 514 l 419 514 l 347 85 l 179 85 b 115 42 157 85 122 85 b 165 0 108 0 144 0 l 575 0 b 639 42 596 0 632 0 z m 757 771 b 708 815 764 815 732 815 l 294 815 b 232 772 272 815 239 815 b 281 728 224 728 257 728 l 693 728 b 757 771 715 728 749 728 z "},"Ĭ":{"ha":729,"x_min":0,"x_max":0,"o":"m 626 42 b 576 85 633 85 597 85 l 426 85 l 540 764 l 690 764 b 754 806 711 764 747 764 b 704 849 761 849 725 849 l 308 849 b 244 807 288 849 251 849 b 294 764 238 764 274 764 l 444 764 l 331 85 l 181 85 b 117 43 160 85 124 85 b 167 0 110 0 146 0 l 563 0 b 626 42 583 0 619 0 z m 785 1049 b 749 1092 789 1075 776 1092 b 700 1051 715 1092 706 1068 b 536 1024 689 1024 594 1024 b 381 1051 476 1024 383 1024 b 346 1092 381 1068 379 1092 b 296 1049 319 1092 300 1075 b 521 935 276 935 429 935 b 785 1049 613 935 765 935 z "},"ĭ":{"ha":729,"x_min":0,"x_max":0,"o":"m 639 42 b 589 85 646 85 610 85 l 443 85 l 519 542 b 474 599 526 585 521 599 l 276 599 b 213 557 256 599 219 599 b 263 514 206 514 242 514 l 419 514 l 347 85 l 179 85 b 115 42 157 85 122 85 b 165 0 108 0 144 0 l 575 0 b 639 42 596 0 632 0 z m 744 807 b 708 850 749 833 736 850 b 660 810 675 850 665 826 b 496 782 649 782 554 782 b 340 810 436 782 343 782 b 306 850 340 826 339 850 b 256 807 279 850 260 833 b 481 693 236 693 389 693 b 744 807 572 693 725 693 z "},"Į":{"ha":729,"x_min":0,"x_max":0,"o":"m 626 42 b 576 85 633 85 597 85 l 426 85 l 540 764 l 690 764 b 754 806 711 764 747 764 b 704 849 761 849 725 849 l 308 849 b 244 807 288 849 251 849 b 294 764 238 764 274 764 l 444 764 l 331 85 l 181 85 b 117 43 160 85 124 85 b 167 0 110 0 146 0 l 329 0 b 215 -150 276 -36 225 -92 b 331 -282 206 -210 243 -282 b 483 -200 383 -282 442 -246 b 485 -149 494 -187 494 -158 b 432 -156 474 -142 442 -147 b 349 -207 414 -178 376 -207 b 297 -153 324 -207 292 -186 b 413 0 307 -87 353 -31 l 563 0 b 626 42 583 0 619 0 z "},"į":{"ha":729,"x_min":0,"x_max":0,"o":"m 560 781 b 501 850 565 819 540 850 b 421 781 463 850 426 819 b 478 711 414 742 439 711 b 560 781 517 711 553 742 z m 639 42 b 589 85 646 85 610 85 l 443 85 l 519 542 b 474 599 526 585 521 599 l 276 599 b 213 557 256 599 219 599 b 263 514 206 514 242 514 l 419 514 l 347 85 l 179 85 b 115 42 157 85 122 85 b 165 0 108 0 144 0 l 311 0 b 199 -150 258 -36 208 -92 b 314 -282 189 -210 226 -282 b 467 -200 367 -282 425 -246 b 468 -149 478 -187 478 -158 b 415 -156 457 -142 425 -147 b 332 -207 397 -178 360 -207 b 281 -153 307 -207 275 -186 b 396 0 290 -87 336 -31 l 575 0 b 639 42 596 0 632 0 z "},"İ":{"ha":729,"x_min":0,"x_max":0,"o":"m 626 42 b 576 85 633 85 597 85 l 426 85 l 540 764 l 690 764 b 754 806 711 764 747 764 b 704 849 761 849 725 849 l 308 849 b 244 807 288 849 251 849 b 294 764 238 764 274 764 l 444 764 l 331 85 l 181 85 b 117 43 160 85 124 85 b 167 0 110 0 146 0 l 563 0 b 626 42 583 0 619 0 z m 603 1006 b 544 1075 608 1044 583 1075 b 464 1006 506 1075 469 1044 b 521 936 457 967 482 936 b 603 1006 560 936 596 967 z "},"ı":{"ha":729,"x_min":0,"x_max":0,"o":"m 639 42 b 589 85 646 85 610 85 l 443 85 l 519 542 b 474 599 526 585 521 599 l 276 599 b 213 557 256 599 219 599 b 263 514 206 514 242 514 l 419 514 l 347 85 l 179 85 b 115 42 157 85 122 85 b 165 0 108 0 144 0 l 575 0 b 639 42 596 0 632 0 z "},"Ĵ":{"ha":729,"x_min":0,"x_max":0,"o":"m 799 807 b 749 849 806 849 769 849 l 497 849 b 433 807 476 849 440 849 b 483 764 426 764 463 764 l 597 764 l 501 194 b 340 69 482 76 367 69 b 229 106 329 69 263 69 b 246 142 236 113 242 119 b 194 203 251 175 229 203 b 122 138 163 203 129 182 b 326 -15 107 50 188 -15 b 596 186 450 -15 575 60 l 693 764 l 735 764 b 799 807 757 764 792 764 z m 828 1001 l 674 1061 b 647 1061 667 1064 657 1064 l 474 1001 b 486 924 421 983 433 908 l 644 969 l 789 924 b 828 1001 836 908 874 983 z "},"ĵ":{"ha":729,"x_min":0,"x_max":0,"o":"m 501 -61 l 601 542 b 556 599 608 585 603 599 l 336 599 b 272 556 314 599 279 599 b 321 514 265 514 300 514 l 501 514 l 406 -54 b 349 -179 403 -78 393 -131 b 228 -232 303 -232 260 -232 b 151 -226 188 -232 171 -229 b 156 -210 153 -222 154 -219 b 104 -147 161 -171 133 -147 b 32 -211 72 -147 38 -171 b 207 -317 14 -317 150 -317 b 501 -61 408 -317 486 -150 z m 754 753 l 606 858 b 564 858 594 867 578 867 l 383 754 b 414 685 332 725 364 657 l 572 771 l 700 685 b 754 753 742 657 796 724 z "},"Ķ":{"ha":729,"x_min":0,"x_max":0,"o":"m 694 42 b 629 85 701 85 669 85 b 622 101 628 90 624 99 l 467 497 l 722 764 b 808 807 772 764 801 764 b 758 849 815 849 778 849 l 636 849 b 572 806 615 849 579 849 b 622 764 565 764 603 764 l 267 394 l 329 764 l 360 764 b 424 806 381 764 417 764 b 374 849 431 849 396 849 l 235 849 b 171 807 214 849 178 849 b 221 764 164 764 199 764 l 251 764 l 138 85 l 107 85 b 43 43 86 85 50 85 b 93 0 36 0 71 0 l 232 0 b 296 42 253 0 289 0 b 246 85 303 85 268 85 l 215 85 l 246 269 l 403 432 l 539 85 b 476 43 519 85 483 85 b 526 0 469 0 504 0 l 631 0 b 694 42 651 0 688 0 z m 426 -150 b 357 -46 438 -86 403 -46 b 281 -110 315 -46 286 -76 b 335 -176 274 -150 300 -176 b 356 -172 340 -176 349 -175 b 264 -258 329 -237 276 -254 b 229 -287 254 -261 233 -267 b 257 -321 228 -303 240 -321 b 426 -150 290 -321 407 -264 z "},"ķ":{"ha":729,"x_min":0,"x_max":0,"o":"m 713 42 b 663 85 719 85 683 85 l 619 85 l 458 354 l 656 514 l 704 514 b 768 556 725 514 761 514 b 718 599 775 599 739 599 l 504 599 b 442 556 482 599 449 599 b 490 514 435 514 469 514 l 542 514 l 281 303 l 363 792 b 317 849 369 835 364 849 l 226 849 b 164 807 206 849 171 849 b 213 764 157 764 190 764 l 281 764 l 167 85 l 99 85 b 36 43 78 85 43 85 b 85 0 29 0 63 0 l 299 0 b 361 42 319 0 354 0 b 313 85 368 85 335 85 l 244 85 l 264 197 l 392 300 l 521 85 b 436 42 471 85 443 85 b 485 0 429 0 464 0 l 649 0 b 713 42 669 0 706 0 z m 426 -150 b 357 -46 438 -86 403 -46 b 281 -110 315 -46 286 -76 b 335 -176 274 -150 300 -176 b 356 -172 340 -176 349 -175 b 264 -258 329 -237 276 -254 b 229 -287 254 -261 233 -267 b 257 -321 228 -303 240 -321 b 426 -150 290 -321 407 -264 z "},"Ĺ":{"ha":729,"x_min":0,"x_max":0,"o":"m 688 57 l 708 181 b 671 238 713 208 718 238 b 613 181 622 238 617 210 l 596 85 l 261 85 l 375 764 l 453 764 b 517 806 472 764 510 764 b 467 849 524 849 488 849 l 242 849 b 179 806 219 849 186 849 b 228 764 172 764 207 764 l 279 764 l 165 85 l 114 85 b 51 42 92 85 58 85 b 100 0 44 0 79 0 l 622 0 b 688 57 668 0 681 13 z m 526 1072 b 485 1121 531 1100 513 1121 b 458 1114 485 1121 474 1121 l 260 1031 b 218 990 239 1022 222 1015 b 254 935 215 979 218 935 b 281 942 264 935 271 938 l 479 1024 b 526 1072 515 1039 524 1057 z "},"ĺ":{"ha":729,"x_min":0,"x_max":0,"o":"m 656 42 b 607 85 663 85 629 85 l 426 85 l 544 792 b 499 849 551 835 546 849 l 279 849 b 215 806 257 849 222 849 b 264 764 208 764 244 764 l 444 764 l 331 85 l 151 85 b 88 42 129 85 94 85 b 136 0 81 0 117 0 l 593 0 b 656 42 614 0 649 0 z m 692 1072 b 650 1121 696 1100 678 1121 b 624 1114 650 1121 639 1121 l 425 1031 b 383 990 404 1022 388 1015 b 419 935 381 979 383 935 b 446 942 429 935 436 938 l 644 1024 b 692 1072 681 1039 689 1057 z "},"Ļ":{"ha":729,"x_min":0,"x_max":0,"o":"m 688 57 l 708 181 b 671 238 713 208 718 238 b 613 181 622 238 617 210 l 596 85 l 261 85 l 375 764 l 453 764 b 517 806 472 764 510 764 b 467 849 524 849 488 849 l 242 849 b 179 806 219 849 186 849 b 228 764 172 764 207 764 l 279 764 l 165 85 l 114 85 b 51 42 92 85 58 85 b 100 0 44 0 79 0 l 622 0 b 688 57 668 0 681 13 z m 426 -150 b 357 -46 438 -86 403 -46 b 281 -110 315 -46 286 -76 b 335 -176 274 -150 300 -176 b 356 -172 340 -176 349 -175 b 264 -258 329 -237 276 -254 b 229 -287 254 -261 233 -267 b 257 -321 228 -303 240 -321 b 426 -150 290 -321 407 -264 z "},"ļ":{"ha":729,"x_min":0,"x_max":0,"o":"m 656 42 b 607 85 663 85 629 85 l 426 85 l 544 792 b 499 849 551 835 546 849 l 279 849 b 215 806 257 849 222 849 b 264 764 208 764 244 764 l 444 764 l 331 85 l 151 85 b 88 42 129 85 94 85 b 136 0 81 0 117 0 l 593 0 b 656 42 614 0 649 0 z m 426 -150 b 357 -46 438 -86 403 -46 b 281 -110 315 -46 286 -76 b 335 -176 274 -150 300 -176 b 356 -172 340 -176 349 -175 b 264 -258 329 -237 276 -254 b 229 -287 254 -261 233 -267 b 257 -321 228 -303 240 -321 b 426 -150 290 -321 407 -264 z "},"Ľ":{"ha":729,"x_min":0,"x_max":0,"o":"m 688 57 l 708 181 b 671 238 713 208 718 238 b 613 181 622 238 617 210 l 596 85 l 261 85 l 375 764 l 453 764 b 517 806 472 764 510 764 b 467 849 524 849 488 849 l 242 849 b 179 806 219 849 186 849 b 228 764 172 764 207 764 l 279 764 l 165 85 l 114 85 b 51 42 92 85 58 85 b 100 0 44 0 79 0 l 622 0 b 688 57 668 0 681 13 z m 760 744 b 692 849 771 808 738 849 b 614 785 650 849 619 818 b 668 718 607 744 633 718 b 690 722 674 718 682 719 b 597 636 664 657 611 640 b 564 607 588 633 567 628 b 592 574 561 592 575 574 b 760 744 625 574 742 631 z "},"ľ":{"ha":729,"x_min":0,"x_max":0,"o":"m 656 42 b 607 85 663 85 629 85 l 426 85 l 544 792 b 499 849 551 835 546 849 l 279 849 b 215 806 257 849 222 849 b 264 764 208 764 244 764 l 444 764 l 331 85 l 151 85 b 88 42 129 85 94 85 b 136 0 81 0 117 0 l 593 0 b 656 42 614 0 649 0 z m 764 744 b 696 849 775 808 742 849 b 618 785 654 849 624 818 b 672 718 611 744 638 718 b 694 722 678 718 686 719 b 601 636 668 657 615 640 b 568 607 592 633 571 628 b 596 574 565 592 579 574 b 764 744 629 574 746 631 z "},"Ŀ":{"ha":729,"x_min":0,"x_max":0,"o":"m 688 57 l 708 181 b 671 238 713 208 718 238 b 613 181 622 238 617 210 l 596 85 l 261 85 l 375 764 l 453 764 b 517 806 472 764 510 764 b 467 849 524 849 488 849 l 242 849 b 179 806 219 849 186 849 b 228 764 172 764 207 764 l 279 764 l 165 85 l 114 85 b 51 42 92 85 58 85 b 100 0 44 0 79 0 l 622 0 b 688 57 668 0 681 13 z m 707 440 b 649 510 714 479 688 510 b 568 440 610 510 575 479 b 626 371 561 401 588 371 b 707 440 665 371 700 401 z "},"ŀ":{"ha":729,"x_min":0,"x_max":0,"o":"m 656 42 b 607 85 663 85 629 85 l 426 85 l 544 792 b 499 849 551 835 546 849 l 279 849 b 215 806 257 849 222 849 b 264 764 208 764 244 764 l 444 764 l 331 85 l 151 85 b 88 42 129 85 94 85 b 136 0 81 0 117 0 l 593 0 b 656 42 614 0 649 0 z m 872 440 b 814 510 879 479 853 510 b 733 440 775 510 740 479 b 792 371 726 401 753 371 b 872 440 831 371 865 401 z "},"Ł":{"ha":729,"x_min":0,"x_max":0,"o":"m 688 57 l 708 181 b 671 238 713 208 718 238 b 613 181 622 238 617 210 l 596 85 l 261 85 l 319 429 l 631 618 b 650 675 651 631 661 656 l 650 676 b 597 688 640 694 617 700 l 335 528 l 375 764 l 453 764 b 517 806 472 764 510 764 b 467 849 524 849 488 849 l 242 849 b 179 806 219 849 186 849 b 228 764 172 764 207 764 l 279 764 l 229 463 l 124 397 b 103 340 103 385 93 360 l 104 340 b 158 331 113 322 136 317 l 213 364 l 165 85 l 114 85 b 51 42 92 85 58 85 b 100 0 44 0 79 0 l 622 0 b 688 57 668 0 681 13 z "},"ł":{"ha":729,"x_min":0,"x_max":0,"o":"m 656 42 b 607 85 663 85 629 85 l 426 85 l 494 492 l 703 618 b 722 675 724 631 733 656 l 722 676 b 669 688 713 694 689 700 l 511 592 l 544 792 b 499 849 551 835 546 849 l 279 849 b 215 806 257 849 222 849 b 264 764 208 764 244 764 l 444 764 l 404 525 l 196 397 b 175 340 175 385 165 360 l 176 340 b 231 331 185 322 207 317 l 388 426 l 331 85 l 151 85 b 88 42 129 85 94 85 b 136 0 81 0 117 0 l 593 0 b 656 42 614 0 649 0 z "},"Ń":{"ha":729,"x_min":0,"x_max":0,"o":"m 824 806 b 775 849 831 849 797 849 l 628 849 b 565 806 606 849 572 849 b 614 764 558 764 593 764 l 649 764 l 539 104 l 538 104 l 397 799 b 331 849 388 844 368 849 l 236 849 b 174 807 215 849 181 849 b 222 764 167 764 200 764 l 257 764 l 143 85 l 108 85 b 46 43 88 85 53 85 b 94 0 39 0 72 0 l 242 0 b 304 42 263 0 297 0 b 256 85 311 85 278 85 l 221 85 l 331 744 l 332 744 l 472 50 b 540 0 482 1 504 0 b 608 57 582 0 600 4 l 726 764 l 761 764 b 824 806 782 764 817 764 z m 692 1072 b 650 1121 696 1100 678 1121 b 624 1114 650 1121 639 1121 l 425 1031 b 383 990 404 1022 388 1015 b 419 935 381 979 383 935 b 446 942 429 935 436 938 l 644 1024 b 692 1072 681 1039 689 1057 z "},"ń":{"ha":729,"x_min":0,"x_max":0,"o":"m 718 42 b 668 85 725 85 690 85 l 607 85 l 661 407 b 514 607 685 547 624 607 b 319 533 421 607 350 560 b 275 599 326 578 331 599 l 174 599 b 110 556 151 599 117 599 b 158 514 103 514 139 514 l 221 514 l 149 85 l 88 85 b 24 42 65 85 31 85 b 72 0 17 0 53 0 l 293 0 b 356 42 313 0 349 0 b 306 85 363 85 328 85 l 244 85 l 286 331 b 492 522 308 469 421 522 b 564 400 565 522 578 483 l 511 85 l 457 85 b 393 42 435 85 400 85 b 443 0 386 0 424 0 l 656 0 b 718 42 675 0 711 0 z m 649 815 b 608 864 653 843 636 864 b 581 857 608 864 597 864 l 382 774 b 340 733 361 765 344 758 b 376 678 339 722 340 678 b 403 685 386 678 394 681 l 601 767 b 649 815 638 782 646 800 z "},"Ņ":{"ha":729,"x_min":0,"x_max":0,"o":"m 824 806 b 775 849 831 849 797 849 l 628 849 b 565 806 606 849 572 849 b 614 764 558 764 593 764 l 649 764 l 539 104 l 538 104 l 397 799 b 331 849 388 844 368 849 l 236 849 b 174 807 215 849 181 849 b 222 764 167 764 200 764 l 257 764 l 143 85 l 108 85 b 46 43 88 85 53 85 b 94 0 39 0 72 0 l 242 0 b 304 42 263 0 297 0 b 256 85 311 85 278 85 l 221 85 l 331 744 l 332 744 l 472 50 b 540 0 482 1 504 0 b 608 57 582 0 600 4 l 726 764 l 761 764 b 824 806 782 764 817 764 z m 426 -150 b 357 -46 438 -86 403 -46 b 281 -110 315 -46 286 -76 b 335 -176 274 -150 300 -176 b 356 -172 340 -176 349 -175 b 264 -258 329 -237 276 -254 b 229 -287 254 -261 233 -267 b 257 -321 228 -303 240 -321 b 426 -150 290 -321 407 -264 z "},"ņ":{"ha":729,"x_min":0,"x_max":0,"o":"m 718 42 b 668 85 725 85 690 85 l 607 85 l 661 407 b 514 607 685 547 624 607 b 319 533 421 607 350 560 b 275 599 326 578 331 599 l 174 599 b 110 556 151 599 117 599 b 158 514 103 514 139 514 l 221 514 l 149 85 l 88 85 b 24 42 65 85 31 85 b 72 0 17 0 53 0 l 293 0 b 356 42 313 0 349 0 b 306 85 363 85 328 85 l 244 85 l 286 331 b 492 522 308 469 421 522 b 564 400 565 522 578 483 l 511 85 l 457 85 b 393 42 435 85 400 85 b 443 0 386 0 424 0 l 656 0 b 718 42 675 0 711 0 z m 426 -150 b 357 -46 438 -86 403 -46 b 281 -110 315 -46 286 -76 b 335 -176 274 -150 300 -176 b 356 -172 340 -176 349 -175 b 264 -258 329 -237 276 -254 b 229 -287 254 -261 233 -267 b 257 -321 228 -303 240 -321 b 426 -150 290 -321 407 -264 z "},"Ň":{"ha":729,"x_min":0,"x_max":0,"o":"m 824 806 b 775 849 831 849 797 849 l 628 849 b 565 806 606 849 572 849 b 614 764 558 764 593 764 l 649 764 l 539 104 l 538 104 l 397 799 b 331 849 388 844 368 849 l 236 849 b 174 807 215 849 181 849 b 222 764 167 764 200 764 l 257 764 l 143 85 l 108 85 b 46 43 88 85 53 85 b 94 0 39 0 72 0 l 242 0 b 304 42 263 0 297 0 b 256 85 311 85 278 85 l 221 85 l 331 744 l 332 744 l 472 50 b 540 0 482 1 504 0 b 608 57 582 0 600 4 l 726 764 l 761 764 b 824 806 782 764 817 764 z m 706 983 b 693 1061 758 1001 746 1076 l 535 1015 l 390 1061 b 351 983 343 1076 306 1001 l 506 924 b 532 924 513 921 522 921 z "},"ň":{"ha":729,"x_min":0,"x_max":0,"o":"m 718 42 b 668 85 725 85 690 85 l 607 85 l 661 407 b 514 607 685 547 624 607 b 319 533 421 607 350 560 b 275 599 326 578 331 599 l 174 599 b 110 556 151 599 117 599 b 158 514 103 514 139 514 l 221 514 l 149 85 l 88 85 b 24 42 65 85 31 85 b 72 0 17 0 53 0 l 293 0 b 356 42 313 0 349 0 b 306 85 363 85 328 85 l 244 85 l 286 331 b 492 522 308 469 421 522 b 564 400 565 522 578 483 l 511 85 l 457 85 b 393 42 435 85 400 85 b 443 0 386 0 424 0 l 656 0 b 718 42 675 0 711 0 z m 683 788 b 651 857 733 817 701 885 l 494 771 l 365 857 b 311 789 324 885 269 818 l 460 683 b 501 683 471 675 488 675 z "},"Ŋ":{"ha":729,"x_min":0,"x_max":0,"o":"m 751 425 b 546 864 788 643 738 864 b 363 794 479 864 417 838 b 317 849 369 835 363 849 l 215 849 b 151 806 193 849 158 849 b 200 764 144 764 181 764 l 263 764 l 149 85 l 88 85 b 24 42 65 85 31 85 b 72 0 17 0 53 0 l 293 0 b 356 42 313 0 349 0 b 306 85 363 85 328 85 l 244 85 l 329 594 b 529 767 357 689 438 767 b 654 425 671 767 682 590 b 539 94 632 294 607 138 b 504 107 531 103 518 107 b 433 46 471 107 439 79 b 483 -15 428 13 450 -15 b 751 425 661 -15 717 217 z "},"ŋ":{"ha":729,"x_min":0,"x_max":0,"o":"m 656 85 l 710 407 b 563 607 733 547 672 607 b 368 533 469 607 399 560 b 324 599 375 578 379 599 l 222 599 b 158 556 200 599 165 599 b 207 514 151 514 188 514 l 269 514 l 197 85 l 136 85 b 72 42 114 85 79 85 b 121 0 65 0 101 0 l 342 0 b 404 42 361 0 397 0 b 354 85 411 85 376 85 l 293 85 l 335 331 b 540 522 357 469 469 522 b 613 400 614 522 626 483 l 560 85 b 413 -226 536 -56 508 -226 b 356 -275 385 -226 360 -249 b 396 -324 351 -303 368 -324 b 576 -192 479 -324 535 -271 b 656 85 615 -114 639 -12 z "},"Ō":{"ha":729,"x_min":0,"x_max":0,"o":"m 721 424 b 508 864 788 825 765 864 b 149 424 251 864 215 826 b 361 -15 82 22 104 -15 b 721 424 617 -15 654 22 z m 626 436 b 568 176 613 350 596 251 b 375 69 540 99 499 69 b 218 168 253 69 224 99 b 246 436 214 239 233 360 b 303 681 261 522 276 617 b 494 779 335 763 381 779 b 653 690 599 779 644 767 b 626 436 658 625 642 521 z m 793 992 b 744 1036 800 1036 768 1036 l 331 1036 b 268 993 308 1036 275 1036 b 318 949 261 949 294 949 l 731 949 b 793 992 753 949 786 949 z "},"ō":{"ha":729,"x_min":0,"x_max":0,"o":"m 699 300 b 465 611 728 474 621 611 b 129 300 310 611 158 474 b 363 -8 100 124 210 -8 b 699 300 515 -8 669 125 z m 604 310 b 376 76 583 181 479 76 b 226 310 274 76 206 181 b 451 526 247 436 353 526 b 604 310 551 526 625 436 z m 757 771 b 708 815 764 815 732 815 l 294 815 b 232 772 272 815 239 815 b 281 728 224 728 257 728 l 693 728 b 757 771 715 728 749 728 z "},"Ŏ":{"ha":729,"x_min":0,"x_max":0,"o":"m 721 424 b 508 864 788 825 765 864 b 149 424 251 864 215 826 b 361 -15 82 22 104 -15 b 721 424 617 -15 654 22 z m 626 436 b 568 176 613 350 596 251 b 375 69 540 99 499 69 b 218 168 253 69 224 99 b 246 436 214 239 233 360 b 303 681 261 522 276 617 b 494 779 335 763 381 779 b 653 690 599 779 644 767 b 626 436 658 625 642 521 z m 785 1049 b 749 1092 789 1075 776 1092 b 700 1051 715 1092 706 1068 b 536 1024 689 1024 594 1024 b 381 1051 476 1024 383 1024 b 346 1092 381 1068 379 1092 b 296 1049 319 1092 300 1075 b 521 935 276 935 429 935 b 785 1049 613 935 765 935 z "},"ŏ":{"ha":729,"x_min":0,"x_max":0,"o":"m 699 300 b 465 611 728 474 621 611 b 129 300 310 611 158 474 b 363 -8 100 124 210 -8 b 699 300 515 -8 669 125 z m 604 310 b 376 76 583 181 479 76 b 226 310 274 76 206 181 b 451 526 247 436 353 526 b 604 310 551 526 625 436 z m 744 807 b 708 850 749 833 736 850 b 660 810 675 850 665 826 b 496 782 649 782 554 782 b 340 810 436 782 343 782 b 306 850 340 826 339 850 b 256 807 279 850 260 833 b 481 693 236 693 389 693 b 744 807 572 693 725 693 z "},"Ő":{"ha":729,"x_min":0,"x_max":0,"o":"m 721 424 b 508 864 788 825 765 864 b 149 424 251 864 215 826 b 361 -15 82 22 104 -15 b 721 424 617 -15 654 22 z m 626 436 b 568 176 613 350 596 251 b 375 69 540 99 499 69 b 218 168 253 69 224 99 b 246 436 214 239 233 360 b 303 681 261 522 276 617 b 494 779 335 763 381 779 b 653 690 599 779 644 767 b 626 436 658 625 642 521 z m 506 1113 b 438 1117 492 1133 461 1135 l 314 1019 b 299 951 292 1001 283 971 b 368 947 314 931 343 929 l 490 1044 b 506 1113 513 1063 521 1093 z m 775 1113 b 707 1117 761 1133 731 1135 l 583 1019 b 568 951 561 1001 553 971 b 638 947 583 931 613 929 l 760 1044 b 775 1113 782 1063 790 1093 z "},"ő":{"ha":729,"x_min":0,"x_max":0,"o":"m 699 300 b 465 611 728 474 621 611 b 129 300 310 611 158 474 b 363 -8 100 124 210 -8 b 699 300 515 -8 669 125 z m 604 310 b 376 76 583 181 479 76 b 226 310 274 76 206 181 b 451 526 247 436 353 526 b 604 310 551 526 625 436 z m 463 851 b 394 856 449 872 418 874 l 271 758 b 256 690 249 740 240 710 b 324 686 269 669 300 668 l 447 783 b 463 851 469 801 478 832 z m 732 851 b 664 856 718 872 688 874 l 540 758 b 525 690 518 740 510 710 b 593 686 539 669 569 668 l 717 783 b 732 851 739 801 747 832 z "},"Œ":{"ha":729,"x_min":0,"x_max":0,"o":"m 707 57 l 728 181 b 699 238 731 200 738 238 b 650 181 660 238 653 200 l 633 85 l 456 85 l 508 397 l 678 397 b 740 439 699 397 733 397 b 692 482 747 482 714 482 l 522 482 l 569 764 l 738 764 l 725 690 b 754 633 722 671 715 633 b 803 690 793 633 800 671 l 819 792 b 774 849 826 835 821 849 l 554 849 b 490 856 538 849 522 849 b 413 864 451 864 436 864 b 186 746 283 864 221 836 b 111 425 157 672 140 600 b 79 113 93 313 74 200 b 265 -15 82 28 113 -15 b 351 -6 293 -15 303 -15 b 413 0 381 0 400 0 l 642 0 b 707 57 688 0 700 13 z m 404 239 b 288 69 381 96 353 69 b 190 436 129 69 144 154 b 404 779 236 704 249 779 b 465 610 471 779 490 758 z "},"œ":{"ha":729,"x_min":0,"x_max":0,"o":"m 726 150 b 694 190 731 175 714 190 b 650 156 664 190 653 163 b 571 76 631 106 601 76 b 475 265 511 76 467 158 l 690 265 b 756 324 739 265 749 281 b 640 611 786 508 735 611 b 471 490 568 611 510 550 b 329 611 457 531 417 611 b 76 301 219 611 107 481 b 226 -8 47 122 117 -8 b 410 115 308 -8 375 63 b 551 -8 426 64 468 -8 b 726 150 664 -8 722 125 z m 681 349 l 490 349 b 626 526 517 447 579 526 b 681 349 658 526 697 489 z m 403 310 b 240 76 381 176 301 76 b 156 310 179 76 133 176 b 315 526 178 442 256 526 b 403 310 375 526 425 440 z "},"Ŕ":{"ha":729,"x_min":0,"x_max":0,"o":"m 747 129 b 706 174 754 174 721 174 b 651 132 692 174 660 174 b 614 69 650 121 638 69 b 599 207 575 69 586 133 b 608 338 613 294 615 306 b 554 422 597 378 571 407 b 704 615 654 474 694 558 b 474 849 724 735 638 849 l 228 849 b 165 806 206 849 172 849 b 214 764 158 764 193 764 l 249 764 l 135 85 l 100 85 b 38 42 78 85 44 85 b 86 0 31 0 65 0 l 251 0 b 314 42 272 0 307 0 b 265 85 321 85 288 85 l 231 85 l 281 382 l 389 382 b 494 343 415 382 457 382 b 506 225 521 314 515 283 b 503 49 490 135 483 93 b 601 -15 519 7 554 -15 b 747 129 689 -15 738 76 z m 608 615 b 394 467 597 547 521 467 l 294 467 l 344 764 l 444 764 b 608 615 572 764 619 682 z m 692 1072 b 650 1121 696 1100 678 1121 b 624 1114 650 1121 639 1121 l 425 1031 b 383 990 404 1022 388 1015 b 419 935 381 979 383 935 b 446 942 429 935 436 938 l 644 1024 b 692 1072 681 1039 689 1057 z "},"ŕ":{"ha":729,"x_min":0,"x_max":0,"o":"m 764 521 b 646 607 768 549 761 607 b 390 494 575 607 482 582 l 399 542 b 353 599 406 585 400 599 l 200 599 b 138 557 179 599 144 599 b 186 514 131 514 164 514 l 299 514 l 226 85 l 114 85 b 51 43 93 85 58 85 b 100 0 44 0 78 0 l 463 0 b 526 42 483 0 519 0 b 476 85 533 85 497 85 l 322 85 l 351 258 b 646 522 374 389 478 522 b 694 461 642 489 660 461 b 764 521 725 461 757 483 z m 649 815 b 608 864 653 843 636 864 b 581 857 608 864 597 864 l 382 774 b 340 733 361 765 344 758 b 376 678 339 722 340 678 b 403 685 386 678 394 681 l 601 767 b 649 815 638 782 646 800 z "},"Ŗ":{"ha":729,"x_min":0,"x_max":0,"o":"m 747 129 b 706 174 754 174 721 174 b 651 132 692 174 660 174 b 614 69 650 121 638 69 b 599 207 575 69 586 133 b 608 338 613 294 615 306 b 554 422 597 378 571 407 b 704 615 654 474 694 558 b 474 849 724 735 638 849 l 228 849 b 165 806 206 849 172 849 b 214 764 158 764 193 764 l 249 764 l 135 85 l 100 85 b 38 42 78 85 44 85 b 86 0 31 0 65 0 l 251 0 b 314 42 272 0 307 0 b 265 85 321 85 288 85 l 231 85 l 281 382 l 389 382 b 494 343 415 382 457 382 b 506 225 521 314 515 283 b 503 49 490 135 483 93 b 601 -15 519 7 554 -15 b 747 129 689 -15 738 76 z m 608 615 b 394 467 597 547 521 467 l 294 467 l 344 764 l 444 764 b 608 615 572 764 619 682 z m 426 -150 b 357 -46 438 -86 403 -46 b 281 -110 315 -46 286 -76 b 335 -176 274 -150 300 -176 b 356 -172 340 -176 349 -175 b 264 -258 329 -237 276 -254 b 229 -287 254 -261 233 -267 b 257 -321 228 -303 240 -321 b 426 -150 290 -321 407 -264 z "},"ŗ":{"ha":729,"x_min":0,"x_max":0,"o":"m 764 521 b 646 607 768 549 761 607 b 390 494 575 607 482 582 l 399 542 b 353 599 406 585 400 599 l 200 599 b 138 557 179 599 144 599 b 186 514 131 514 164 514 l 299 514 l 226 85 l 114 85 b 51 43 93 85 58 85 b 100 0 44 0 78 0 l 463 0 b 526 42 483 0 519 0 b 476 85 533 85 497 85 l 322 85 l 351 258 b 646 522 374 389 478 522 b 694 461 642 489 660 461 b 764 521 725 461 757 483 z m 322 -150 b 253 -46 333 -86 299 -46 b 176 -110 211 -46 182 -76 b 231 -176 169 -150 196 -176 b 251 -172 236 -176 244 -175 b 160 -258 225 -237 172 -254 b 125 -287 150 -261 129 -267 b 153 -321 124 -303 136 -321 b 322 -150 186 -321 303 -264 z "},"Ř":{"ha":729,"x_min":0,"x_max":0,"o":"m 747 129 b 706 174 754 174 721 174 b 651 132 692 174 660 174 b 614 69 650 121 638 69 b 599 207 575 69 586 133 b 608 338 613 294 615 306 b 554 422 597 378 571 407 b 704 615 654 474 694 558 b 474 849 724 735 638 849 l 228 849 b 165 806 206 849 172 849 b 214 764 158 764 193 764 l 249 764 l 135 85 l 100 85 b 38 42 78 85 44 85 b 86 0 31 0 65 0 l 251 0 b 314 42 272 0 307 0 b 265 85 321 85 288 85 l 231 85 l 281 382 l 389 382 b 494 343 415 382 457 382 b 506 225 521 314 515 283 b 503 49 490 135 483 93 b 601 -15 519 7 554 -15 b 747 129 689 -15 738 76 z m 608 615 b 394 467 597 547 521 467 l 294 467 l 344 764 l 444 764 b 608 615 572 764 619 682 z m 706 983 b 693 1061 758 1001 746 1076 l 535 1015 l 390 1061 b 351 983 343 1076 306 1001 l 506 924 b 532 924 513 921 522 921 z "},"ř":{"ha":729,"x_min":0,"x_max":0,"o":"m 764 521 b 646 607 768 549 761 607 b 390 494 575 607 482 582 l 399 542 b 353 599 406 585 400 599 l 200 599 b 138 557 179 599 144 599 b 186 514 131 514 164 514 l 299 514 l 226 85 l 114 85 b 51 43 93 85 58 85 b 100 0 44 0 78 0 l 463 0 b 526 42 483 0 519 0 b 476 85 533 85 497 85 l 322 85 l 351 258 b 646 522 374 389 478 522 b 694 461 642 489 660 461 b 764 521 725 461 757 483 z m 683 788 b 651 857 733 817 701 885 l 494 771 l 365 857 b 311 789 324 885 269 818 l 460 683 b 501 683 471 675 488 675 z "},"Ś":{"ha":729,"x_min":0,"x_max":0,"o":"m 694 231 b 656 396 708 319 668 378 b 467 486 607 451 571 461 l 358 511 b 269 642 303 528 258 576 b 460 779 282 713 361 779 b 624 606 624 779 622 649 b 664 567 622 575 636 567 b 722 624 713 567 718 596 l 753 807 b 721 864 757 829 763 864 b 658 799 688 864 676 840 b 475 864 610 847 538 864 b 178 636 321 864 199 754 b 321 418 163 543 211 451 l 475 381 b 603 224 513 372 622 344 b 407 69 590 151 517 69 b 253 113 368 69 301 75 b 207 233 200 150 204 208 b 168 282 210 257 213 282 b 110 225 119 282 114 253 l 79 42 b 111 -15 75 19 69 -15 b 174 49 142 -15 154 4 b 392 -15 222 7 303 -15 b 694 231 553 -15 674 107 z m 692 1072 b 650 1121 696 1100 678 1121 b 624 1114 650 1121 639 1121 l 425 1031 b 383 990 404 1022 388 1015 b 419 935 381 979 383 935 b 446 942 429 935 436 938 l 644 1024 b 692 1072 681 1039 689 1057 z "},"ś":{"ha":729,"x_min":0,"x_max":0,"o":"m 667 174 b 474 354 690 318 517 347 l 382 371 b 260 447 342 376 250 393 b 449 526 265 483 317 526 b 575 449 564 526 576 485 b 614 401 572 425 571 401 b 672 458 663 401 668 431 l 689 554 b 656 611 692 576 697 611 b 610 582 622 611 614 592 b 465 611 553 611 492 611 b 175 447 233 611 183 497 b 419 276 153 319 296 296 b 582 174 486 265 594 247 b 388 76 574 122 514 76 b 231 200 322 76 247 92 b 189 240 228 225 225 240 b 131 183 140 240 135 211 l 108 49 b 140 -8 104 26 99 -8 b 200 44 153 -8 175 -7 b 372 -8 260 -6 333 -8 b 667 174 592 -8 656 107 z m 649 815 b 608 864 653 843 636 864 b 581 857 608 864 597 864 l 382 774 b 340 733 361 765 344 758 b 376 678 339 722 340 678 b 403 685 386 678 394 681 l 601 767 b 649 815 638 782 646 800 z "},"Ŝ":{"ha":729,"x_min":0,"x_max":0,"o":"m 694 231 b 656 396 708 319 668 378 b 467 486 607 451 571 461 l 358 511 b 269 642 303 528 258 576 b 460 779 282 713 361 779 b 624 606 624 779 622 649 b 664 567 622 575 636 567 b 722 624 713 567 718 596 l 753 807 b 721 864 757 829 763 864 b 658 799 688 864 676 840 b 475 864 610 847 538 864 b 178 636 321 864 199 754 b 321 418 163 543 211 451 l 475 381 b 603 224 513 372 622 344 b 407 69 590 151 517 69 b 253 113 368 69 301 75 b 207 233 200 150 204 208 b 168 282 210 257 213 282 b 110 225 119 282 114 253 l 79 42 b 111 -15 75 19 69 -15 b 174 49 142 -15 154 4 b 392 -15 222 7 303 -15 b 694 231 553 -15 674 107 z m 710 1001 l 556 1061 b 529 1061 549 1064 539 1064 l 356 1001 b 368 924 303 983 315 908 l 526 969 l 671 924 b 710 1001 718 908 756 983 z "},"ŝ":{"ha":729,"x_min":0,"x_max":0,"o":"m 667 174 b 474 354 690 318 517 347 l 382 371 b 260 447 342 376 250 393 b 449 526 265 483 317 526 b 575 449 564 526 576 485 b 614 401 572 425 571 401 b 672 458 663 401 668 431 l 689 554 b 656 611 692 576 697 611 b 610 582 622 611 614 592 b 465 611 553 611 492 611 b 175 447 233 611 183 497 b 419 276 153 319 296 296 b 582 174 486 265 594 247 b 388 76 574 122 514 76 b 231 200 322 76 247 92 b 189 240 228 225 225 240 b 131 183 140 240 135 211 l 108 49 b 140 -8 104 26 99 -8 b 200 44 153 -8 175 -7 b 372 -8 260 -6 333 -8 b 667 174 592 -8 656 107 z m 676 753 l 528 858 b 486 858 517 867 500 867 l 306 754 b 336 685 254 725 286 657 l 494 771 l 622 685 b 676 753 664 657 718 724 z "},"Ş":{"ha":729,"x_min":0,"x_max":0,"o":"m 694 231 b 656 396 708 319 668 378 b 467 486 607 451 571 461 l 358 511 b 269 642 303 528 258 576 b 460 779 282 713 361 779 b 624 606 624 779 622 649 b 664 567 622 575 636 567 b 722 624 713 567 718 596 l 753 807 b 721 864 757 829 763 864 b 658 799 688 864 676 840 b 475 864 610 847 538 864 b 178 636 321 864 199 754 b 321 418 163 543 211 451 l 475 381 b 603 224 513 372 622 344 b 407 69 590 151 517 69 b 253 113 368 69 301 75 b 207 233 200 150 204 208 b 168 282 210 257 213 282 b 110 225 119 282 114 253 l 79 42 b 111 -15 75 19 69 -15 b 174 49 142 -15 154 4 b 340 -12 213 15 272 -6 l 335 -49 b 369 -107 331 -76 325 -104 b 453 -162 431 -110 458 -135 b 254 -218 444 -218 307 -218 b 164 -261 201 -218 171 -218 b 199 -304 158 -293 178 -304 b 549 -162 331 -304 525 -304 b 435 -28 558 -108 529 -47 l 436 -12 b 694 231 575 8 675 118 z "},"ş":{"ha":729,"x_min":0,"x_max":0,"o":"m 667 174 b 474 354 690 318 517 347 l 382 371 b 260 447 342 376 250 393 b 449 526 265 483 317 526 b 575 449 564 526 576 485 b 614 401 572 425 571 401 b 672 458 663 401 668 431 l 689 554 b 656 611 692 576 697 611 b 610 582 622 611 614 592 b 465 611 553 611 492 611 b 175 447 233 611 183 497 b 419 276 153 319 296 296 b 582 174 486 265 594 247 b 388 76 574 122 514 76 b 231 200 322 76 247 92 b 189 240 228 225 225 240 b 131 183 140 240 135 211 l 108 49 b 140 -8 104 26 99 -8 b 200 44 153 -8 175 -7 b 342 -7 247 6 301 -4 l 338 -33 b 372 -92 333 -61 328 -89 b 456 -147 433 -94 461 -119 b 257 -203 447 -203 310 -203 b 165 -246 204 -203 174 -203 b 201 -289 161 -278 181 -289 b 551 -147 333 -289 528 -289 b 436 -12 561 -93 532 -32 l 438 -4 b 667 174 606 17 657 114 z "},"Š":{"ha":729,"x_min":0,"x_max":0,"o":"m 694 231 b 656 396 708 319 668 378 b 467 486 607 451 571 461 l 358 511 b 269 642 303 528 258 576 b 460 779 282 713 361 779 b 624 606 624 779 622 649 b 664 567 622 575 636 567 b 722 624 713 567 718 596 l 753 807 b 721 864 757 829 763 864 b 658 799 688 864 676 840 b 475 864 610 847 538 864 b 178 636 321 864 199 754 b 321 418 163 543 211 451 l 475 381 b 603 224 513 372 622 344 b 407 69 590 151 517 69 b 253 113 368 69 301 75 b 207 233 200 150 204 208 b 168 282 210 257 213 282 b 110 225 119 282 114 253 l 79 42 b 111 -15 75 19 69 -15 b 174 49 142 -15 154 4 b 392 -15 222 7 303 -15 b 694 231 553 -15 674 107 z m 706 983 b 693 1061 758 1001 746 1076 l 535 1015 l 390 1061 b 351 983 343 1076 306 1001 l 506 924 b 532 924 513 921 522 921 z "},"š":{"ha":729,"x_min":0,"x_max":0,"o":"m 667 174 b 474 354 690 318 517 347 l 382 371 b 260 447 342 376 250 393 b 449 526 265 483 317 526 b 575 449 564 526 576 485 b 614 401 572 425 571 401 b 672 458 663 401 668 431 l 689 554 b 656 611 692 576 697 611 b 610 582 622 611 614 592 b 465 611 553 611 492 611 b 175 447 233 611 183 497 b 419 276 153 319 296 296 b 582 174 486 265 594 247 b 388 76 574 122 514 76 b 231 200 322 76 247 92 b 189 240 228 225 225 240 b 131 183 140 240 135 211 l 108 49 b 140 -8 104 26 99 -8 b 200 44 153 -8 175 -7 b 372 -8 260 -6 333 -8 b 667 174 592 -8 656 107 z m 683 788 b 651 857 733 817 701 885 l 494 771 l 365 857 b 311 789 324 885 269 818 l 460 683 b 501 683 471 675 488 675 z "},"Ţ":{"ha":729,"x_min":0,"x_max":0,"o":"m 807 690 l 824 792 b 778 849 831 835 825 849 l 235 849 b 168 792 189 849 176 838 l 151 690 b 189 633 147 664 142 633 b 247 690 238 633 243 663 l 260 764 l 444 764 l 331 85 l 258 85 b 196 43 238 85 203 85 b 244 0 189 0 222 0 l 317 0 l 310 -37 b 344 -96 306 -65 300 -93 b 428 -151 406 -99 433 -124 b 229 -207 419 -207 282 -207 b 138 -250 176 -207 146 -207 b 174 -293 133 -282 153 -293 b 524 -151 306 -293 500 -293 b 408 -17 533 -97 504 -36 l 411 0 l 485 0 b 547 42 506 0 540 0 b 499 85 554 85 521 85 l 426 85 l 540 764 l 724 764 l 711 690 b 749 633 707 664 701 633 b 807 690 797 633 803 663 z "},"ţ":{"ha":729,"x_min":0,"x_max":0,"o":"m 653 175 b 614 229 657 200 663 229 b 557 176 568 229 561 200 b 428 76 542 90 460 76 b 339 183 321 76 333 149 l 394 514 l 622 514 b 685 556 643 514 678 514 b 636 599 692 599 658 599 l 408 599 l 428 713 b 389 769 432 739 436 769 b 332 713 340 769 336 740 l 313 599 l 192 599 b 128 556 169 599 135 599 b 176 514 121 514 156 514 l 299 514 l 242 175 b 361 -4 222 63 282 8 l 356 -37 b 390 -96 351 -65 347 -93 b 475 -151 451 -99 479 -124 b 275 -207 465 -207 328 -207 b 185 -250 222 -207 192 -207 b 221 -293 179 -282 200 -293 b 571 -151 353 -293 547 -293 b 456 -17 579 -97 551 -36 l 458 -4 b 653 175 547 13 636 71 z "},"Ť":{"ha":729,"x_min":0,"x_max":0,"o":"m 807 690 l 824 792 b 778 849 831 835 825 849 l 235 849 b 168 792 189 849 176 838 l 151 690 b 189 633 147 664 142 633 b 247 690 238 633 243 663 l 260 764 l 444 764 l 331 85 l 258 85 b 196 43 238 85 203 85 b 244 0 189 0 222 0 l 485 0 b 547 42 506 0 540 0 b 499 85 554 85 521 85 l 426 85 l 540 764 l 724 764 l 711 690 b 749 633 707 664 701 633 b 807 690 797 633 803 663 z m 706 983 b 693 1061 758 1001 746 1076 l 535 1015 l 390 1061 b 351 983 343 1076 306 1001 l 506 924 b 532 924 513 921 522 921 z "},"ť":{"ha":729,"x_min":0,"x_max":0,"o":"m 653 175 b 614 229 657 200 663 229 b 557 176 568 229 561 200 b 428 76 542 90 460 76 b 339 183 321 76 333 149 l 394 514 l 622 514 b 685 556 643 514 678 514 b 636 599 692 599 658 599 l 408 599 l 428 713 b 389 769 432 739 436 769 b 332 713 340 769 336 740 l 313 599 l 192 599 b 128 556 169 599 135 599 b 176 514 121 514 156 514 l 299 514 l 242 175 b 407 -8 219 42 306 -8 b 653 175 510 -8 632 51 z m 674 822 b 604 926 683 886 650 926 b 528 863 563 926 533 896 b 582 796 521 822 547 796 b 603 800 588 796 596 797 b 511 714 576 735 524 718 b 476 685 500 711 481 706 b 504 651 474 669 488 651 b 674 822 538 651 654 708 z "},"Ũ":{"ha":729,"x_min":0,"x_max":0,"o":"m 857 807 b 807 849 864 849 828 849 l 628 849 b 564 807 607 849 571 849 b 614 764 557 764 593 764 l 656 764 l 576 290 b 375 69 551 142 447 69 b 249 290 301 69 224 142 l 328 764 l 369 764 b 433 807 390 764 426 764 b 383 849 440 849 404 849 l 204 849 b 140 807 183 849 147 849 b 190 764 133 764 169 764 l 232 764 l 151 283 b 361 -15 124 113 222 -15 b 671 283 500 -15 643 113 l 751 764 l 793 764 b 857 807 815 764 850 764 z m 782 1043 b 746 1088 786 1065 768 1088 b 711 1072 731 1088 722 1081 b 603 1011 663 1033 622 1011 b 565 1040 589 1011 581 1024 b 479 1088 550 1058 526 1088 b 364 1042 442 1088 400 1065 b 283 965 332 1021 288 990 b 318 921 279 943 296 921 b 354 936 333 921 343 928 b 463 997 403 975 443 997 b 500 968 476 997 485 985 b 585 921 515 950 538 921 b 701 967 622 921 665 943 b 782 1043 732 988 778 1018 z "},"ũ":{"ha":729,"x_min":0,"x_max":0,"o":"m 718 43 b 669 85 725 85 689 85 l 607 85 l 683 542 b 638 599 690 585 685 599 l 536 599 b 472 556 514 599 479 599 b 521 514 465 514 501 514 l 583 514 l 533 218 b 353 76 513 93 397 76 b 258 167 243 76 251 122 l 321 542 b 275 599 328 585 322 599 l 174 599 b 110 556 151 599 117 599 b 158 514 103 514 139 514 l 221 514 l 161 158 b 331 -8 139 25 229 -8 b 504 44 388 -8 447 6 b 553 0 499 0 528 0 l 654 0 b 718 43 676 0 711 0 z m 743 810 b 708 854 747 832 731 854 b 672 839 693 854 683 847 b 564 778 624 800 583 778 b 526 807 550 778 542 790 b 442 854 511 825 489 854 b 325 808 404 854 361 832 b 244 732 294 788 249 757 b 281 688 240 710 258 688 b 315 703 296 688 304 694 b 424 764 364 742 404 764 b 461 735 438 764 446 751 b 547 688 476 717 500 688 b 663 733 585 688 626 710 b 743 810 694 754 739 785 z "},"Ū":{"ha":729,"x_min":0,"x_max":0,"o":"m 857 807 b 807 849 864 849 828 849 l 628 849 b 564 807 607 849 571 849 b 614 764 557 764 593 764 l 656 764 l 576 290 b 375 69 551 142 447 69 b 249 290 301 69 224 142 l 328 764 l 369 764 b 433 807 390 764 426 764 b 383 849 440 849 404 849 l 204 849 b 140 807 183 849 147 849 b 190 764 133 764 169 764 l 232 764 l 151 283 b 361 -15 124 113 222 -15 b 671 283 500 -15 643 113 l 751 764 l 793 764 b 857 807 815 764 850 764 z m 793 992 b 744 1036 800 1036 768 1036 l 331 1036 b 268 993 308 1036 275 1036 b 318 949 261 949 294 949 l 731 949 b 793 992 753 949 786 949 z "},"ū":{"ha":729,"x_min":0,"x_max":0,"o":"m 718 43 b 669 85 725 85 689 85 l 607 85 l 683 542 b 638 599 690 585 685 599 l 536 599 b 472 556 514 599 479 599 b 521 514 465 514 501 514 l 583 514 l 533 218 b 353 76 513 93 397 76 b 258 167 243 76 251 122 l 321 542 b 275 599 328 585 322 599 l 174 599 b 110 556 151 599 117 599 b 158 514 103 514 139 514 l 221 514 l 161 158 b 331 -8 139 25 229 -8 b 504 44 388 -8 447 6 b 553 0 499 0 528 0 l 654 0 b 718 43 676 0 711 0 z m 757 771 b 708 815 764 815 732 815 l 294 815 b 232 772 272 815 239 815 b 281 728 224 728 257 728 l 693 728 b 757 771 715 728 749 728 z "},"Ŭ":{"ha":729,"x_min":0,"x_max":0,"o":"m 857 807 b 807 849 864 849 828 849 l 628 849 b 564 807 607 849 571 849 b 614 764 557 764 593 764 l 656 764 l 576 290 b 375 69 551 142 447 69 b 249 290 301 69 224 142 l 328 764 l 369 764 b 433 807 390 764 426 764 b 383 849 440 849 404 849 l 204 849 b 140 807 183 849 147 849 b 190 764 133 764 169 764 l 232 764 l 151 283 b 361 -15 124 113 222 -15 b 671 283 500 -15 643 113 l 751 764 l 793 764 b 857 807 815 764 850 764 z m 785 1049 b 749 1092 789 1075 776 1092 b 700 1051 715 1092 706 1068 b 536 1024 689 1024 594 1024 b 381 1051 476 1024 383 1024 b 346 1092 381 1068 379 1092 b 296 1049 319 1092 300 1075 b 521 935 276 935 429 935 b 785 1049 613 935 765 935 z "},"ŭ":{"ha":729,"x_min":0,"x_max":0,"o":"m 718 43 b 669 85 725 85 689 85 l 607 85 l 683 542 b 638 599 690 585 685 599 l 536 599 b 472 556 514 599 479 599 b 521 514 465 514 501 514 l 583 514 l 533 218 b 353 76 513 93 397 76 b 258 167 243 76 251 122 l 321 542 b 275 599 328 585 322 599 l 174 599 b 110 556 151 599 117 599 b 158 514 103 514 139 514 l 221 514 l 161 158 b 331 -8 139 25 229 -8 b 504 44 388 -8 447 6 b 553 0 499 0 528 0 l 654 0 b 718 43 676 0 711 0 z m 744 807 b 708 850 749 833 736 850 b 660 810 675 850 665 826 b 496 782 649 782 554 782 b 340 810 436 782 343 782 b 306 850 340 826 339 850 b 256 807 279 850 260 833 b 481 693 236 693 389 693 b 744 807 572 693 725 693 z "},"Ů":{"ha":729,"x_min":0,"x_max":0,"o":"m 857 807 b 807 849 864 849 828 849 l 628 849 b 564 807 607 849 571 849 b 614 764 557 764 593 764 l 656 764 l 576 290 b 375 69 551 142 447 69 b 249 290 301 69 224 142 l 328 764 l 369 764 b 433 807 390 764 426 764 b 383 849 440 849 404 849 l 204 849 b 140 807 183 849 147 849 b 190 764 133 764 169 764 l 232 764 l 151 283 b 361 -15 124 113 222 -15 b 671 283 500 -15 643 113 l 751 764 l 793 764 b 857 807 815 764 850 764 z m 592 965 b 518 918 588 939 550 918 b 461 965 486 918 457 939 b 533 1013 465 992 501 1013 b 592 965 565 1013 596 992 z m 661 965 b 543 1065 669 1017 621 1065 b 392 965 465 1065 400 1017 b 510 865 383 914 432 865 b 661 965 588 865 653 914 z "},"ů":{"ha":729,"x_min":0,"x_max":0,"o":"m 718 43 b 669 85 725 85 689 85 l 607 85 l 683 542 b 638 599 690 585 685 599 l 536 599 b 472 556 514 599 479 599 b 521 514 465 514 501 514 l 583 514 l 533 218 b 353 76 513 93 397 76 b 258 167 243 76 251 122 l 321 542 b 275 599 328 585 322 599 l 174 599 b 110 556 151 599 117 599 b 158 514 103 514 139 514 l 221 514 l 161 158 b 331 -8 139 25 229 -8 b 504 44 388 -8 447 6 b 553 0 499 0 528 0 l 654 0 b 718 43 676 0 711 0 z m 561 783 b 488 736 557 757 519 736 b 431 783 456 736 426 757 b 504 831 435 810 472 831 b 561 783 536 831 565 810 z m 631 783 b 513 883 639 835 590 883 b 361 783 435 883 369 835 b 479 683 353 732 401 683 b 631 783 557 683 622 732 z "},"Ű":{"ha":729,"x_min":0,"x_max":0,"o":"m 857 807 b 807 849 864 849 828 849 l 628 849 b 564 807 607 849 571 849 b 614 764 557 764 593 764 l 656 764 l 576 290 b 375 69 551 142 447 69 b 249 290 301 69 224 142 l 328 764 l 369 764 b 433 807 390 764 426 764 b 383 849 440 849 404 849 l 204 849 b 140 807 183 849 147 849 b 190 764 133 764 169 764 l 232 764 l 151 283 b 361 -15 124 113 222 -15 b 671 283 500 -15 643 113 l 751 764 l 793 764 b 857 807 815 764 850 764 z m 506 1113 b 438 1117 492 1133 461 1135 l 314 1019 b 299 951 292 1001 283 971 b 368 947 314 931 343 929 l 490 1044 b 506 1113 513 1063 521 1093 z m 775 1113 b 707 1117 761 1133 731 1135 l 583 1019 b 568 951 561 1001 553 971 b 638 947 583 931 613 929 l 760 1044 b 775 1113 782 1063 790 1093 z "},"ű":{"ha":729,"x_min":0,"x_max":0,"o":"m 718 43 b 669 85 725 85 689 85 l 607 85 l 683 542 b 638 599 690 585 685 599 l 536 599 b 472 556 514 599 479 599 b 521 514 465 514 501 514 l 583 514 l 533 218 b 353 76 513 93 397 76 b 258 167 243 76 251 122 l 321 542 b 275 599 328 585 322 599 l 174 599 b 110 556 151 599 117 599 b 158 514 103 514 139 514 l 221 514 l 161 158 b 331 -8 139 25 229 -8 b 504 44 388 -8 447 6 b 553 0 499 0 528 0 l 654 0 b 718 43 676 0 711 0 z m 463 851 b 394 856 449 872 418 874 l 271 758 b 256 690 249 740 240 710 b 324 686 269 669 300 668 l 447 783 b 463 851 469 801 478 832 z m 732 851 b 664 856 718 872 688 874 l 540 758 b 525 690 518 740 510 710 b 593 686 539 669 569 668 l 717 783 b 732 851 739 801 747 832 z "},"Ų":{"ha":729,"x_min":0,"x_max":0,"o":"m 857 807 b 807 849 864 849 828 849 l 628 849 b 564 807 607 849 571 849 b 614 764 557 764 593 764 l 656 764 l 576 290 b 375 69 551 142 447 69 b 249 290 301 69 224 142 l 328 764 l 369 764 b 433 807 390 764 426 764 b 383 849 440 849 404 849 l 204 849 b 140 807 183 849 147 849 b 190 764 133 764 169 764 l 232 764 l 151 283 b 326 -12 125 126 207 7 b 232 -150 281 -49 240 -99 b 347 -282 222 -210 260 -282 b 500 -200 400 -282 458 -246 b 501 -149 511 -187 511 -158 b 449 -156 490 -142 458 -147 b 365 -207 431 -178 393 -207 b 314 -153 340 -207 308 -186 b 411 -10 324 -94 360 -42 b 671 283 532 15 646 133 l 751 764 l 793 764 b 857 807 815 764 850 764 z "},"ų":{"ha":729,"x_min":0,"x_max":0,"o":"m 700 -200 b 701 -149 711 -187 711 -158 b 649 -156 690 -142 658 -147 b 565 -207 631 -178 593 -207 b 514 -153 540 -207 508 -186 b 629 0 524 -87 569 -31 l 654 0 b 718 43 676 0 711 0 b 669 85 725 85 689 85 l 607 85 l 683 542 b 638 599 690 585 685 599 l 536 599 b 472 556 514 599 479 599 b 521 514 465 514 501 514 l 583 514 l 533 218 b 353 76 513 93 397 76 b 258 167 243 76 251 122 l 321 542 b 275 599 328 585 322 599 l 174 599 b 110 556 151 599 117 599 b 158 514 103 514 139 514 l 221 514 l 161 158 b 331 -8 139 25 229 -8 b 504 44 388 -8 447 6 b 546 0 500 4 522 0 b 432 -150 493 -36 442 -92 b 547 -282 422 -210 460 -282 b 700 -200 600 -282 658 -246 z "},"Ŵ":{"ha":729,"x_min":0,"x_max":0,"o":"m 847 806 b 797 849 854 849 818 849 l 688 849 b 625 806 665 849 632 849 b 674 764 618 764 653 764 l 708 764 l 569 301 b 515 106 544 217 522 144 l 514 106 b 500 478 519 194 500 469 b 449 510 493 510 461 510 b 389 479 435 510 407 510 b 250 106 382 469 271 192 l 249 106 b 256 214 250 113 253 139 l 275 764 l 310 764 b 372 806 331 764 365 764 b 324 849 379 849 346 849 l 214 849 b 150 806 193 849 157 849 b 194 764 143 764 182 764 l 196 764 l 175 38 b 224 -11 174 -11 207 -11 b 282 17 236 -11 264 -11 b 432 407 288 26 417 351 l 433 407 b 451 24 428 344 450 26 b 501 -11 456 -11 492 -11 b 567 38 518 -11 551 -11 l 788 764 b 847 806 803 764 840 764 z m 710 1001 l 556 1061 b 529 1061 549 1064 539 1064 l 356 1001 b 368 924 303 983 315 908 l 526 969 l 671 924 b 710 1001 718 908 756 983 z "},"ŵ":{"ha":729,"x_min":0,"x_max":0,"o":"m 799 557 b 747 599 806 599 772 599 l 588 599 b 522 557 563 599 529 599 b 574 514 515 514 547 514 l 642 514 l 503 100 l 501 100 b 488 257 501 136 494 200 b 426 360 476 344 475 360 b 367 329 413 360 386 360 b 263 100 360 319 272 128 l 261 100 l 258 514 l 326 514 b 392 556 351 514 385 514 b 340 599 399 599 367 599 l 181 599 b 115 557 156 599 122 599 b 179 514 108 514 138 514 l 185 47 b 240 -6 185 15 185 -6 b 342 92 296 -6 303 7 b 411 264 397 214 401 233 l 413 264 b 435 18 407 192 432 29 b 489 -6 447 -6 472 -6 b 560 47 540 -6 549 17 l 721 514 b 799 557 763 514 792 514 z m 676 753 l 528 858 b 486 858 517 867 500 867 l 306 754 b 336 685 254 725 286 657 l 494 771 l 622 685 b 676 753 664 657 718 724 z "},"Ŷ":{"ha":729,"x_min":0,"x_max":0,"o":"m 836 806 b 788 849 843 849 810 849 l 643 849 b 581 807 622 849 588 849 b 638 764 574 764 604 764 l 436 436 b 346 764 429 507 354 735 b 417 807 379 764 410 764 b 368 849 424 849 389 849 l 224 849 b 161 807 203 849 168 849 b 210 764 154 764 188 764 l 239 764 l 374 339 l 331 85 l 296 85 b 233 43 275 85 240 85 b 282 0 226 0 260 0 l 447 0 b 510 42 468 0 503 0 b 461 85 517 85 483 85 l 426 85 l 469 339 l 744 764 l 774 764 b 836 806 794 764 829 764 z m 710 1001 l 556 1061 b 529 1061 549 1064 539 1064 l 356 1001 b 368 924 303 983 315 908 l 526 969 l 671 924 b 710 1001 718 908 756 983 z "},"ŷ":{"ha":729,"x_min":0,"x_max":0,"o":"m 788 556 b 739 599 794 599 761 599 l 576 599 b 514 557 556 599 521 599 b 563 514 507 514 540 514 l 601 514 l 451 218 b 396 99 425 167 413 142 l 394 99 b 379 181 392 125 385 154 l 306 514 l 340 514 b 403 556 361 514 396 514 b 354 599 410 599 376 599 l 192 599 b 129 556 169 599 136 599 b 178 514 122 514 157 514 l 221 514 l 335 18 b 338 0 339 4 338 0 b 260 -151 338 0 283 -117 b 135 -232 207 -228 156 -231 b 147 -201 135 -232 144 -219 b 97 -142 153 -167 132 -142 b 26 -203 60 -142 32 -167 b 122 -317 17 -261 54 -317 b 363 -118 261 -317 354 -133 l 683 514 l 725 514 b 788 556 746 514 781 514 z m 676 753 l 528 858 b 486 858 517 867 500 867 l 306 754 b 336 685 254 725 286 657 l 494 771 l 622 685 b 676 753 664 657 718 724 z "},"Ÿ":{"ha":729,"x_min":0,"x_max":0,"o":"m 836 806 b 788 849 843 849 810 849 l 643 849 b 581 807 622 849 588 849 b 638 764 574 764 604 764 l 436 436 b 346 764 429 507 354 735 b 417 807 379 764 410 764 b 368 849 424 849 389 849 l 224 849 b 161 807 203 849 168 849 b 210 764 154 764 188 764 l 239 764 l 374 339 l 331 85 l 296 85 b 233 43 275 85 240 85 b 282 0 226 0 260 0 l 447 0 b 510 42 468 0 503 0 b 461 85 517 85 483 85 l 426 85 l 469 339 l 744 764 l 774 764 b 836 806 794 764 829 764 z m 456 983 b 403 1046 461 1019 438 1046 b 331 983 368 1046 336 1019 b 382 921 325 949 347 921 b 456 983 417 921 450 949 z m 726 983 b 674 1046 732 1019 708 1046 b 601 983 639 1046 607 1019 b 653 921 596 949 618 921 b 726 983 688 921 721 949 z "},"Ź":{"ha":729,"x_min":0,"x_max":0,"o":"m 678 57 l 699 185 b 661 242 703 211 708 242 b 603 185 613 242 608 213 l 586 85 l 204 85 l 774 758 b 794 801 792 779 793 788 b 746 849 803 849 772 849 l 282 849 b 215 792 236 849 224 838 l 199 690 b 236 633 194 664 189 633 b 294 690 285 633 290 663 l 307 764 l 665 764 l 96 90 b 75 47 78 69 76 61 b 124 0 67 0 97 0 l 613 0 b 678 57 658 0 671 13 z m 692 1072 b 650 1121 696 1100 678 1121 b 624 1114 650 1121 639 1121 l 425 1031 b 383 990 404 1022 388 1015 b 419 935 381 979 383 935 b 446 942 429 935 436 938 l 644 1024 b 692 1072 681 1039 689 1057 z "},"ź":{"ha":729,"x_min":0,"x_max":0,"o":"m 669 57 l 683 138 b 644 194 688 164 692 194 b 588 138 596 194 592 165 l 578 85 l 204 85 l 707 496 b 746 551 740 524 742 528 b 697 599 754 599 724 599 l 225 599 b 158 542 179 599 167 588 l 147 478 b 186 421 143 451 139 421 b 243 478 235 421 239 450 l 250 514 l 596 514 l 93 103 b 54 47 60 75 58 71 b 103 0 46 0 76 0 l 629 0 b 669 57 661 8 665 36 z m 649 815 b 608 864 653 843 636 864 b 581 857 608 864 597 864 l 382 774 b 340 733 361 765 344 758 b 376 678 339 722 340 678 b 403 685 386 678 394 681 l 601 767 b 649 815 638 782 646 800 z "},"Ż":{"ha":729,"x_min":0,"x_max":0,"o":"m 678 57 l 699 185 b 661 242 703 211 708 242 b 603 185 613 242 608 213 l 586 85 l 204 85 l 774 758 b 794 801 792 779 793 788 b 746 849 803 849 772 849 l 282 849 b 215 792 236 849 224 838 l 199 690 b 236 633 194 664 189 633 b 294 690 285 633 290 663 l 307 764 l 665 764 l 96 90 b 75 47 78 69 76 61 b 124 0 67 0 97 0 l 613 0 b 678 57 658 0 671 13 z m 603 1006 b 544 1075 608 1044 583 1075 b 464 1006 506 1075 469 1044 b 521 936 457 967 482 936 b 603 1006 560 936 596 967 z "},"ż":{"ha":729,"x_min":0,"x_max":0,"o":"m 669 57 l 683 138 b 644 194 688 164 692 194 b 588 138 596 194 592 165 l 578 85 l 204 85 l 707 496 b 746 551 740 524 742 528 b 697 599 754 599 724 599 l 225 599 b 158 542 179 599 167 588 l 147 478 b 186 421 143 451 139 421 b 243 478 235 421 239 450 l 250 514 l 596 514 l 93 103 b 54 47 60 75 58 71 b 103 0 46 0 76 0 l 629 0 b 669 57 661 8 665 36 z m 564 771 b 506 840 569 810 544 840 b 425 771 467 840 431 810 b 482 701 418 732 443 701 b 564 771 521 701 557 732 z "},"Ž":{"ha":729,"x_min":0,"x_max":0,"o":"m 678 57 l 699 185 b 661 242 703 211 708 242 b 603 185 613 242 608 213 l 586 85 l 204 85 l 774 758 b 794 801 792 779 793 788 b 746 849 803 849 772 849 l 282 849 b 215 792 236 849 224 838 l 199 690 b 236 633 194 664 189 633 b 294 690 285 633 290 663 l 307 764 l 665 764 l 96 90 b 75 47 78 69 76 61 b 124 0 67 0 97 0 l 613 0 b 678 57 658 0 671 13 z m 706 983 b 693 1061 758 1001 746 1076 l 535 1015 l 390 1061 b 351 983 343 1076 306 1001 l 506 924 b 532 924 513 921 522 921 z "},"ž":{"ha":729,"x_min":0,"x_max":0,"o":"m 669 57 l 683 138 b 644 194 688 164 692 194 b 588 138 596 194 592 165 l 578 85 l 204 85 l 707 496 b 746 551 740 524 742 528 b 697 599 754 599 724 599 l 225 599 b 158 542 179 599 167 588 l 147 478 b 186 421 143 451 139 421 b 243 478 235 421 239 450 l 250 514 l 596 514 l 93 103 b 54 47 60 75 58 71 b 103 0 46 0 76 0 l 629 0 b 669 57 661 8 665 36 z m 683 788 b 651 857 733 817 701 885 l 494 771 l 365 857 b 311 789 324 885 269 818 l 460 683 b 501 683 471 675 488 675 z "},"ſ":{"ha":729,"x_min":0,"x_max":0,"o":"m 736 774 b 617 857 750 857 639 857 b 368 672 506 857 388 793 l 356 599 l 217 599 b 153 556 194 599 160 599 b 201 514 146 514 181 514 l 342 514 l 269 85 l 129 85 b 65 43 108 85 72 85 b 115 0 58 0 94 0 l 492 0 b 556 42 513 0 549 0 b 506 85 563 85 526 85 l 365 85 l 463 664 b 615 772 481 772 574 772 b 667 713 614 767 618 713 b 736 774 694 713 729 735 z "},"Ǝ":{"ha":729,"x_min":0,"x_max":0,"o":"m 704 42 b 654 85 711 85 676 85 l 613 85 l 726 764 l 768 764 b 832 807 789 764 825 764 b 782 849 839 849 803 849 l 264 849 b 199 792 217 849 206 835 l 182 690 b 221 633 178 663 172 633 b 278 690 268 633 274 664 l 290 764 l 631 764 l 583 482 l 401 482 b 365 561 411 539 414 561 b 310 504 318 561 314 531 l 288 375 b 325 318 283 349 278 318 b 388 397 374 318 378 340 l 569 397 l 517 85 l 146 85 l 163 181 b 124 238 167 208 172 238 b 67 181 76 238 71 207 l 46 57 b 92 0 39 13 46 0 l 640 0 b 704 42 661 0 697 0 z "},"ƒ":{"ha":729,"x_min":0,"x_max":0,"o":"m 736 774 b 617 857 750 857 639 857 b 368 672 506 857 388 793 l 356 599 l 217 599 b 153 556 194 599 160 599 b 201 514 146 514 181 514 l 342 514 l 269 85 l 129 85 b 65 43 108 85 72 85 b 115 0 58 0 94 0 l 492 0 b 556 42 513 0 549 0 b 506 85 563 85 526 85 l 365 85 l 438 514 l 607 514 b 669 556 628 514 663 514 b 621 599 676 599 643 599 l 451 599 l 463 664 b 615 772 481 772 574 772 b 667 713 614 767 618 713 b 736 774 694 713 729 735 z "},"Ơ":{"ha":729,"x_min":0,"x_max":0,"o":"m 836 893 b 783 988 843 935 835 986 b 701 918 740 986 707 953 b 735 853 697 889 710 863 b 703 832 725 840 714 833 b 507 864 656 864 578 864 b 256 794 417 864 313 864 b 149 424 199 724 169 551 b 133 54 128 297 99 125 b 360 -15 165 -15 269 -15 b 613 54 451 -15 554 -15 b 719 424 669 125 699 297 b 744 761 738 535 763 679 b 836 893 793 786 828 839 z m 625 442 b 544 129 607 335 583 188 b 374 69 507 75 436 69 b 226 129 311 69 244 75 b 247 442 206 188 229 335 b 325 725 264 539 286 672 b 493 779 363 778 432 779 b 643 725 556 779 622 778 b 625 442 664 672 642 539 z "},"ơ":{"ha":729,"x_min":0,"x_max":0,"o":"m 697 299 b 656 510 710 376 696 451 b 749 643 704 533 740 588 b 694 736 756 685 749 736 b 614 667 653 735 619 703 b 647 603 610 639 622 613 b 613 581 638 589 625 581 b 590 574 606 581 596 578 b 464 610 554 597 511 610 b 249 518 388 610 310 575 b 129 299 183 458 143 381 b 176 82 115 218 132 140 b 361 -8 218 26 285 -8 b 578 82 439 -8 517 26 b 697 299 642 140 683 218 z m 603 311 b 521 146 593 251 565 192 b 375 78 481 104 428 78 b 256 146 324 78 282 104 b 226 311 225 192 217 251 b 308 463 236 367 265 421 b 450 525 347 500 400 525 b 574 463 501 525 546 500 b 603 311 603 421 613 367 z "},"Ư":{"ha":729,"x_min":0,"x_max":0,"o":"m 878 894 b 825 988 885 936 876 986 b 743 918 782 986 749 953 b 771 856 739 892 749 868 b 746 842 763 850 756 846 b 726 849 742 846 733 849 l 610 849 b 564 810 588 849 568 831 l 563 803 b 596 764 560 781 574 764 l 654 764 l 574 283 b 499 129 564 225 539 171 b 374 69 461 92 417 69 b 272 129 332 69 296 92 b 247 283 246 171 238 225 l 328 764 l 386 764 b 431 803 408 764 428 781 l 432 810 b 400 849 436 831 422 849 l 186 849 b 140 810 164 849 144 831 l 139 803 b 172 764 136 781 150 764 l 231 764 l 150 283 b 189 74 138 206 150 132 b 360 -15 226 19 289 -15 b 561 74 432 -15 504 19 b 671 283 621 132 658 206 l 750 758 b 878 894 813 776 868 829 z "},"ư":{"ha":729,"x_min":0,"x_max":0,"o":"m 718 39 l 719 46 b 685 85 722 68 707 85 l 607 85 l 678 507 b 814 644 744 525 803 575 b 760 736 821 685 813 736 b 679 667 718 736 685 703 b 706 606 675 642 685 618 b 675 590 697 600 686 594 b 654 597 669 594 663 597 l 518 597 b 472 558 496 597 476 581 l 471 551 b 504 513 468 531 482 513 l 582 513 l 529 203 b 357 78 518 133 442 78 b 268 97 313 78 286 82 b 254 153 256 107 250 126 l 322 558 b 290 597 326 581 313 597 l 154 597 b 108 558 133 597 113 581 l 107 551 b 140 513 104 531 119 513 l 219 513 l 158 153 b 194 29 151 104 160 58 b 336 -8 231 -1 278 -8 b 503 44 396 -8 454 11 l 503 39 b 536 0 499 18 514 0 l 671 0 b 718 39 693 0 714 18 z "},"ǝ":{"ha":729,"x_min":0,"x_max":0,"o":"m 694 301 b 426 611 724 471 606 611 b 151 451 243 611 157 486 b 194 413 146 413 186 413 b 244 443 219 413 231 417 b 403 526 288 514 364 526 b 603 338 507 526 600 457 l 189 338 b 124 286 160 338 133 338 b 344 -8 97 128 164 -8 b 694 301 510 -8 667 131 z m 588 254 b 358 76 550 153 456 76 b 218 254 286 76 206 111 z "},"Ǧ":{"ha":729,"x_min":0,"x_max":0,"o":"m 744 333 b 694 375 751 375 715 375 l 529 375 b 467 333 508 375 474 375 b 515 290 460 290 493 290 l 574 290 b 378 69 531 135 451 69 b 219 424 265 69 185 219 b 499 779 254 636 390 779 b 628 597 547 779 629 747 b 668 557 626 574 632 557 b 726 614 717 557 721 586 l 758 807 b 726 864 763 829 768 864 b 658 801 697 864 688 849 b 507 864 617 843 565 864 b 124 425 340 864 165 676 b 360 -15 81 169 194 -15 b 538 58 439 -15 504 26 b 576 0 532 28 528 0 b 633 57 624 0 629 31 l 672 290 b 744 333 706 290 738 290 z m 706 983 b 693 1061 758 1001 746 1076 l 535 1015 l 390 1061 b 351 983 343 1076 306 1001 l 506 924 b 532 924 513 921 522 921 z "},"ǧ":{"ha":729,"x_min":0,"x_max":0,"o":"m 797 539 b 708 614 803 571 783 614 b 553 565 693 614 625 613 b 425 607 533 581 489 607 b 158 385 294 607 178 503 b 181 253 149 325 165 279 b 138 158 163 231 144 200 b 153 58 129 110 143 75 b 21 -114 39 -4 24 -99 b 311 -318 1 -233 133 -318 b 668 -114 489 -318 649 -232 b 599 44 676 -62 664 7 b 404 85 583 54 529 85 l 307 85 b 268 88 296 85 278 85 b 225 107 247 88 239 88 b 217 157 213 126 217 157 b 232 196 218 163 224 182 b 350 161 235 193 282 161 b 617 385 478 161 596 261 b 601 506 624 426 618 467 b 686 529 633 522 667 528 b 732 482 688 492 718 482 b 797 539 756 482 790 499 z m 521 385 b 364 244 508 306 436 244 b 254 383 289 244 242 310 b 411 524 268 463 339 524 b 521 385 486 524 533 458 z m 588 -114 b 325 -235 578 -175 464 -235 b 101 -114 186 -235 92 -175 b 175 -17 106 -89 126 -44 b 328 6 214 6 226 6 b 588 -114 451 6 608 6 z m 633 788 b 601 857 683 817 651 885 l 444 771 l 315 857 b 261 789 274 885 219 818 l 410 683 b 451 683 421 675 438 675 z "},"Ǫ":{"ha":729,"x_min":0,"x_max":0,"o":"m 721 424 b 508 864 788 825 765 864 b 149 424 251 864 215 826 b 313 -15 86 49 101 -8 b 221 -150 268 -50 229 -100 b 336 -282 211 -210 249 -282 b 489 -200 389 -282 447 -246 b 490 -149 500 -187 500 -158 b 438 -156 479 -142 447 -147 b 354 -207 419 -178 382 -207 b 303 -153 329 -207 297 -186 b 392 -15 311 -97 346 -47 b 721 424 621 -11 657 39 z m 626 436 b 568 176 613 350 596 251 b 375 69 540 99 499 69 b 218 168 253 69 224 99 b 246 436 214 239 233 360 b 303 681 261 522 276 617 b 494 779 335 763 381 779 b 653 690 599 779 644 767 b 626 436 658 625 642 521 z "},"ǫ":{"ha":729,"x_min":0,"x_max":0,"o":"m 699 300 b 465 611 728 474 621 611 b 129 300 310 611 158 474 b 319 -4 103 140 190 18 b 214 -150 269 -40 224 -94 b 329 -282 204 -210 242 -282 b 482 -200 382 -282 440 -246 b 483 -149 493 -187 493 -158 b 431 -156 472 -142 440 -147 b 347 -207 413 -178 375 -207 b 296 -153 322 -207 290 -186 b 400 -6 306 -92 344 -37 b 699 300 540 14 672 139 z m 604 310 b 376 76 583 181 479 76 b 226 310 274 76 206 181 b 451 526 247 436 353 526 b 604 310 551 526 625 436 z "},"Ǵ":{"ha":729,"x_min":0,"x_max":0,"o":"m 744 333 b 694 375 751 375 715 375 l 529 375 b 467 333 508 375 474 375 b 515 290 460 290 493 290 l 574 290 b 378 69 531 135 451 69 b 219 424 265 69 185 219 b 499 779 254 636 390 779 b 628 597 547 779 629 747 b 668 557 626 574 632 557 b 726 614 717 557 721 586 l 758 807 b 726 864 763 829 768 864 b 658 801 697 864 688 849 b 507 864 617 843 565 864 b 124 425 340 864 165 676 b 360 -15 81 169 194 -15 b 538 58 439 -15 504 26 b 576 0 532 28 528 0 b 633 57 624 0 629 31 l 672 290 b 744 333 706 290 738 290 z m 692 1072 b 650 1121 696 1100 678 1121 b 624 1114 650 1121 639 1121 l 425 1031 b 383 990 404 1022 388 1015 b 419 935 381 979 383 935 b 446 942 429 935 436 938 l 644 1024 b 692 1072 681 1039 689 1057 z "},"ǵ":{"ha":729,"x_min":0,"x_max":0,"o":"m 797 539 b 708 614 803 571 783 614 b 553 565 693 614 625 613 b 425 607 533 581 489 607 b 158 385 294 607 178 503 b 181 253 149 325 165 279 b 138 158 163 231 144 200 b 153 58 129 110 143 75 b 21 -114 39 -4 24 -99 b 311 -318 1 -233 133 -318 b 668 -114 489 -318 649 -232 b 599 44 676 -62 664 7 b 404 85 583 54 529 85 l 307 85 b 268 88 296 85 278 85 b 225 107 247 88 239 88 b 217 157 213 126 217 157 b 232 196 218 163 224 182 b 350 161 235 193 282 161 b 617 385 478 161 596 261 b 601 506 624 426 618 467 b 686 529 633 522 667 528 b 732 482 688 492 718 482 b 797 539 756 482 790 499 z m 521 385 b 364 244 508 306 436 244 b 254 383 289 244 242 310 b 411 524 268 463 339 524 b 521 385 486 524 533 458 z m 588 -114 b 325 -235 578 -175 464 -235 b 101 -114 186 -235 92 -175 b 175 -17 106 -89 126 -44 b 328 6 214 6 226 6 b 588 -114 451 6 608 6 z m 599 815 b 558 864 603 843 586 864 b 531 857 558 864 547 864 l 332 774 b 290 733 311 765 294 758 b 326 678 289 722 290 678 b 353 685 336 678 344 681 l 551 767 b 599 815 588 782 596 800 z "},"Ǻ":{"ha":729,"x_min":0,"x_max":0,"o":"m 697 42 b 681 81 700 60 696 74 b 621 85 672 85 642 85 l 574 811 b 508 865 571 864 551 865 b 425 813 468 865 446 865 l 135 85 b 75 82 115 85 83 85 b 44 42 58 74 47 60 b 97 0 38 0 74 0 l 239 0 b 304 42 264 0 297 0 b 233 85 311 85 283 85 l 290 229 l 515 229 l 522 85 b 438 42 472 85 444 85 b 489 0 431 0 464 0 l 631 0 b 697 42 654 0 690 0 z m 508 314 l 325 314 l 489 750 z m 592 965 b 518 918 588 939 550 918 b 461 965 486 918 457 939 b 533 1013 465 992 501 1013 b 592 965 565 1013 596 992 z m 661 965 b 543 1065 669 1017 621 1065 b 392 965 465 1065 400 1017 b 510 865 383 914 432 865 b 661 965 588 865 653 914 z m 718 1231 b 676 1279 722 1258 704 1279 b 650 1272 676 1279 665 1279 l 451 1189 b 410 1149 431 1181 414 1174 b 446 1093 407 1138 410 1093 b 472 1100 456 1093 463 1096 l 671 1182 b 718 1231 707 1197 715 1215 z "},"ǻ":{"ha":729,"x_min":0,"x_max":0,"o":"m 735 43 b 686 85 742 85 707 85 b 606 96 628 85 615 92 l 656 396 b 415 611 671 494 615 611 b 197 510 356 611 214 611 b 250 446 190 468 217 446 b 321 510 271 446 311 458 b 353 525 324 521 325 522 b 403 526 372 526 390 526 b 557 385 508 526 574 483 b 106 178 311 381 128 311 b 304 -8 90 82 163 -8 b 515 44 356 -8 443 1 b 658 0 539 1 606 0 b 735 43 697 0 728 0 z m 524 186 b 456 100 519 154 514 125 b 328 76 401 76 339 76 b 201 178 242 76 193 124 b 543 303 214 246 342 297 z m 561 783 b 488 736 557 757 519 736 b 431 783 456 736 426 757 b 504 831 435 810 472 831 b 561 783 536 831 565 810 z m 631 783 b 513 883 639 835 590 883 b 361 783 435 883 369 835 b 479 683 353 732 401 683 b 631 783 557 683 622 732 z m 688 1049 b 647 1097 692 1076 675 1097 b 619 1090 647 1097 636 1097 l 421 1007 b 379 967 400 999 383 992 b 415 911 378 956 379 911 b 442 918 425 911 433 914 l 640 1000 b 688 1049 676 1015 685 1033 z "},"Ǽ":{"ha":729,"x_min":0,"x_max":0,"o":"m 703 57 l 724 181 b 694 238 726 200 733 238 b 646 181 656 238 649 200 l 629 85 l 458 85 l 511 397 l 671 397 b 733 439 692 397 726 397 b 685 482 740 482 707 482 l 525 482 l 572 764 l 732 764 l 719 690 b 749 633 717 671 710 633 b 797 690 788 633 794 671 l 814 792 b 768 849 821 835 815 849 l 378 849 b 315 807 357 849 322 849 b 364 764 308 764 342 764 l 113 85 b 39 42 76 85 46 85 b 88 0 32 0 67 0 l 186 0 b 249 42 207 0 242 0 b 192 85 256 85 224 85 l 256 254 l 410 254 l 381 85 b 318 43 361 85 325 85 b 368 0 311 0 346 0 l 638 0 b 703 57 683 0 696 13 z m 424 339 l 286 339 l 443 764 l 494 764 z m 692 1072 b 650 1121 696 1100 678 1121 b 624 1114 650 1121 639 1121 l 425 1031 b 383 990 404 1022 388 1015 b 419 935 381 979 383 935 b 446 942 429 935 436 938 l 644 1024 b 692 1072 681 1039 689 1057 z "},"ǽ":{"ha":729,"x_min":0,"x_max":0,"o":"m 725 151 b 693 190 729 172 715 190 b 649 156 663 190 653 164 b 560 76 625 101 590 76 b 450 265 499 76 442 147 l 689 265 b 754 324 739 265 747 281 b 628 611 785 508 728 611 b 463 511 579 611 517 583 b 319 611 440 571 394 611 b 140 510 192 611 149 556 b 193 446 133 468 160 446 b 264 508 204 446 250 450 b 265 521 265 513 264 517 b 301 526 265 526 285 526 b 390 390 369 526 404 478 l 382 344 b 74 164 226 343 93 279 b 203 -8 60 82 103 -8 b 399 88 272 -8 351 26 b 539 -8 406 74 449 -8 b 725 151 657 -8 721 124 z m 679 349 l 464 349 b 614 526 488 438 554 526 b 679 349 656 526 694 482 z m 369 263 b 354 186 365 247 361 226 b 311 106 350 160 346 131 b 225 76 275 79 235 76 b 151 165 168 76 144 124 b 369 263 161 225 258 258 z m 649 815 b 608 864 653 843 636 864 b 581 857 608 864 597 864 l 382 774 b 340 733 361 765 344 758 b 376 678 339 722 340 678 b 403 685 386 678 394 681 l 601 767 b 649 815 638 782 646 800 z "},"Ǿ":{"ha":729,"x_min":0,"x_max":0,"o":"m 721 424 b 685 843 768 708 769 804 b 722 925 721 914 722 925 b 685 967 729 964 685 967 b 636 925 656 967 644 943 l 604 861 b 508 864 569 864 540 864 b 149 424 251 864 215 826 b 119 204 138 361 124 271 b 185 6 113 96 119 36 b 147 -76 149 -65 147 -76 b 185 -118 140 -115 185 -118 b 233 -76 214 -118 225 -94 l 264 -12 b 361 -15 300 -15 329 -15 b 721 424 617 -15 654 22 z m 643 425 b 582 163 629 340 611 229 b 375 69 544 79 485 69 b 322 71 339 69 336 69 b 307 74 315 71 307 74 l 639 750 b 643 425 664 728 690 707 z m 563 775 l 231 99 b 226 424 206 121 179 142 b 288 686 240 508 258 619 b 494 779 325 769 385 779 b 547 778 531 779 533 779 b 563 775 554 778 563 775 z m 674 1072 b 632 1121 678 1100 660 1121 b 606 1114 632 1121 621 1121 l 407 1031 b 365 990 386 1022 369 1015 b 401 935 363 979 365 935 b 428 942 411 935 418 938 l 626 1024 b 674 1072 663 1039 671 1057 z "},"ǿ":{"ha":729,"x_min":0,"x_max":0,"o":"m 793 751 b 756 793 799 779 772 793 b 714 767 733 793 724 779 l 579 586 b 465 611 558 596 521 611 b 113 300 297 611 140 469 b 185 58 99 219 115 129 l 67 -100 b 35 -153 54 -117 36 -142 b 72 -194 29 -181 56 -194 b 114 -168 94 -194 106 -179 l 251 15 b 363 -8 294 -6 338 -8 b 715 300 526 -8 686 128 b 644 542 731 393 703 479 l 779 722 b 793 751 792 739 793 747 z m 638 300 b 376 76 617 175 499 76 b 307 88 339 76 332 79 l 589 469 b 638 300 639 418 646 350 z m 525 514 l 239 131 b 190 300 188 188 182 251 b 451 526 211 425 329 526 b 525 514 490 526 499 524 z m 642 815 b 601 864 646 843 629 864 b 574 857 601 864 590 864 l 375 774 b 333 733 354 765 338 758 b 369 678 332 722 333 678 b 396 685 379 678 388 681 l 594 767 b 642 815 631 782 639 800 z "},"Ȁ":{"ha":729,"x_min":0,"x_max":0,"o":"m 697 42 b 681 81 700 60 696 74 b 621 85 672 85 642 85 l 574 811 b 508 865 571 864 551 865 b 425 813 468 865 446 865 l 135 85 b 75 82 115 85 83 85 b 44 42 58 74 47 60 b 97 0 38 0 74 0 l 239 0 b 304 42 264 0 297 0 b 233 85 311 85 283 85 l 290 229 l 515 229 l 522 85 b 438 42 472 85 444 85 b 489 0 431 0 464 0 l 631 0 b 697 42 654 0 690 0 z m 508 314 l 325 314 l 489 750 z m 707 951 b 714 1019 728 971 731 1001 l 624 1117 b 553 1113 606 1135 575 1133 b 546 1044 532 1093 529 1063 l 638 947 b 707 951 654 929 686 931 z m 438 951 b 444 1019 458 971 461 1001 l 354 1117 b 283 1113 336 1135 306 1133 b 276 1044 263 1093 260 1063 l 368 947 b 438 951 385 929 417 931 z "},"ȁ":{"ha":729,"x_min":0,"x_max":0,"o":"m 735 43 b 686 85 742 85 707 85 b 606 96 628 85 615 92 l 656 396 b 415 611 671 494 615 611 b 197 510 356 611 214 611 b 250 446 190 468 217 446 b 321 510 271 446 311 458 b 353 525 324 521 325 522 b 403 526 372 526 390 526 b 557 385 508 526 574 483 b 106 178 311 381 128 311 b 304 -8 90 82 163 -8 b 515 44 356 -8 443 1 b 658 0 539 1 606 0 b 735 43 697 0 728 0 z m 524 186 b 456 100 519 154 514 125 b 328 76 401 76 339 76 b 201 178 242 76 193 124 b 543 303 214 246 342 297 z m 704 690 b 711 758 725 710 728 740 l 621 856 b 550 851 603 874 572 872 b 543 783 529 832 526 801 l 633 686 b 704 690 651 668 682 669 z m 435 690 b 442 758 456 710 458 740 l 351 856 b 281 851 333 874 303 872 b 274 783 260 832 257 801 l 364 686 b 435 690 382 668 413 669 z "},"Ȅ":{"ha":729,"x_min":0,"x_max":0,"o":"m 707 57 l 728 181 b 690 238 732 207 738 238 b 632 181 642 238 636 208 l 615 85 l 244 85 l 297 397 l 479 397 b 514 318 469 340 465 318 b 571 375 561 318 567 349 l 593 504 b 554 561 597 531 601 561 b 493 482 506 561 503 539 l 311 482 l 358 764 l 699 764 l 686 690 b 724 633 682 664 676 633 b 782 690 772 633 778 663 l 799 792 b 753 849 806 835 800 849 l 235 849 b 171 807 214 849 178 849 b 221 764 164 764 200 764 l 263 764 l 149 85 l 107 85 b 43 42 85 85 50 85 b 93 0 36 0 72 0 l 642 0 b 707 57 688 0 700 13 z m 747 951 b 754 1019 768 971 771 1001 l 664 1117 b 593 1113 646 1135 615 1133 b 586 1044 572 1093 569 1063 l 678 947 b 747 951 694 929 726 931 z m 478 951 b 485 1019 499 971 501 1001 l 394 1117 b 324 1113 376 1135 346 1133 b 317 1044 303 1093 300 1063 l 408 947 b 478 951 425 929 457 931 z "},"ȅ":{"ha":729,"x_min":0,"x_max":0,"o":"m 669 151 b 628 190 676 190 636 190 b 576 160 603 190 590 186 b 418 76 535 89 457 76 b 219 265 314 76 222 146 l 633 265 b 697 317 663 265 689 265 b 476 611 724 475 657 611 b 126 301 311 611 156 472 b 394 -8 99 132 215 -8 b 669 151 578 -8 664 117 z m 604 349 l 235 349 b 463 526 271 450 365 526 b 604 349 535 526 615 492 z m 704 690 b 711 758 725 710 728 740 l 621 856 b 550 851 603 874 572 872 b 543 783 529 832 526 801 l 633 686 b 704 690 651 668 682 669 z m 435 690 b 442 758 456 710 458 740 l 351 856 b 281 851 333 874 303 872 b 274 783 260 832 257 801 l 364 686 b 435 690 382 668 413 669 z "},"Ȉ":{"ha":729,"x_min":0,"x_max":0,"o":"m 626 42 b 576 85 633 85 597 85 l 426 85 l 540 764 l 690 764 b 754 806 711 764 747 764 b 704 849 761 849 725 849 l 308 849 b 244 807 288 849 251 849 b 294 764 238 764 274 764 l 444 764 l 331 85 l 181 85 b 117 43 160 85 124 85 b 167 0 110 0 146 0 l 563 0 b 626 42 583 0 619 0 z m 747 951 b 754 1019 768 971 771 1001 l 664 1117 b 593 1113 646 1135 615 1133 b 586 1044 572 1093 569 1063 l 678 947 b 747 951 694 929 726 931 z m 478 951 b 485 1019 499 971 501 1001 l 394 1117 b 324 1113 376 1135 346 1133 b 317 1044 303 1093 300 1063 l 408 947 b 478 951 425 929 457 931 z "},"ȉ":{"ha":729,"x_min":0,"x_max":0,"o":"m 639 42 b 589 85 646 85 610 85 l 443 85 l 519 542 b 474 599 526 585 521 599 l 276 599 b 213 557 256 599 219 599 b 263 514 206 514 242 514 l 419 514 l 347 85 l 179 85 b 115 42 157 85 122 85 b 165 0 108 0 144 0 l 575 0 b 639 42 596 0 632 0 z m 704 690 b 711 758 725 710 728 740 l 621 856 b 550 851 603 874 572 872 b 543 783 529 832 526 801 l 633 686 b 704 690 651 668 682 669 z m 435 690 b 442 758 456 710 458 740 l 351 856 b 281 851 333 874 303 872 b 274 783 260 832 257 801 l 364 686 b 435 690 382 668 413 669 z "},"Ȍ":{"ha":729,"x_min":0,"x_max":0,"o":"m 721 424 b 508 864 788 825 765 864 b 149 424 251 864 215 826 b 361 -15 82 22 104 -15 b 721 424 617 -15 654 22 z m 626 436 b 568 176 613 350 596 251 b 375 69 540 99 499 69 b 218 168 253 69 224 99 b 246 436 214 239 233 360 b 303 681 261 522 276 617 b 494 779 335 763 381 779 b 653 690 599 779 644 767 b 626 436 658 625 642 521 z m 747 951 b 754 1019 768 971 771 1001 l 664 1117 b 593 1113 646 1135 615 1133 b 586 1044 572 1093 569 1063 l 678 947 b 747 951 694 929 726 931 z m 478 951 b 485 1019 499 971 501 1001 l 394 1117 b 324 1113 376 1135 346 1133 b 317 1044 303 1093 300 1063 l 408 947 b 478 951 425 929 457 931 z "},"ȍ":{"ha":729,"x_min":0,"x_max":0,"o":"m 699 300 b 465 611 728 474 621 611 b 129 300 310 611 158 474 b 363 -8 100 124 210 -8 b 699 300 515 -8 669 125 z m 604 310 b 376 76 583 181 479 76 b 226 310 274 76 206 181 b 451 526 247 436 353 526 b 604 310 551 526 625 436 z m 704 690 b 711 758 725 710 728 740 l 621 856 b 550 851 603 874 572 872 b 543 783 529 832 526 801 l 633 686 b 704 690 651 668 682 669 z m 435 690 b 442 758 456 710 458 740 l 351 856 b 281 851 333 874 303 872 b 274 783 260 832 257 801 l 364 686 b 435 690 382 668 413 669 z "},"Ȑ":{"ha":729,"x_min":0,"x_max":0,"o":"m 747 129 b 706 174 754 174 721 174 b 651 132 692 174 660 174 b 614 69 650 121 638 69 b 599 207 575 69 586 133 b 608 338 613 294 615 306 b 554 422 597 378 571 407 b 704 615 654 474 694 558 b 474 849 724 735 638 849 l 228 849 b 165 806 206 849 172 849 b 214 764 158 764 193 764 l 249 764 l 135 85 l 100 85 b 38 42 78 85 44 85 b 86 0 31 0 65 0 l 251 0 b 314 42 272 0 307 0 b 265 85 321 85 288 85 l 231 85 l 281 382 l 389 382 b 494 343 415 382 457 382 b 506 225 521 314 515 283 b 503 49 490 135 483 93 b 601 -15 519 7 554 -15 b 747 129 689 -15 738 76 z m 608 615 b 394 467 597 547 521 467 l 294 467 l 344 764 l 444 764 b 608 615 572 764 619 682 z m 707 951 b 714 1019 728 971 731 1001 l 624 1117 b 553 1113 606 1135 575 1133 b 546 1044 532 1093 529 1063 l 638 947 b 707 951 654 929 686 931 z m 438 951 b 444 1019 458 971 461 1001 l 354 1117 b 283 1113 336 1135 306 1133 b 276 1044 263 1093 260 1063 l 368 947 b 438 951 385 929 417 931 z "},"ȑ":{"ha":729,"x_min":0,"x_max":0,"o":"m 764 521 b 646 607 768 549 761 607 b 390 494 575 607 482 582 l 399 542 b 353 599 406 585 400 599 l 200 599 b 138 557 179 599 144 599 b 186 514 131 514 164 514 l 299 514 l 226 85 l 114 85 b 51 43 93 85 58 85 b 100 0 44 0 78 0 l 463 0 b 526 42 483 0 519 0 b 476 85 533 85 497 85 l 322 85 l 351 258 b 646 522 374 389 478 522 b 694 461 642 489 660 461 b 764 521 725 461 757 483 z m 704 690 b 711 758 725 710 728 740 l 621 856 b 550 851 603 874 572 872 b 543 783 529 832 526 801 l 633 686 b 704 690 651 668 682 669 z m 435 690 b 442 758 456 710 458 740 l 351 856 b 281 851 333 874 303 872 b 274 783 260 832 257 801 l 364 686 b 435 690 382 668 413 669 z "},"Ȕ":{"ha":729,"x_min":0,"x_max":0,"o":"m 857 807 b 807 849 864 849 828 849 l 628 849 b 564 807 607 849 571 849 b 614 764 557 764 593 764 l 656 764 l 576 290 b 375 69 551 142 447 69 b 249 290 301 69 224 142 l 328 764 l 369 764 b 433 807 390 764 426 764 b 383 849 440 849 404 849 l 204 849 b 140 807 183 849 147 849 b 190 764 133 764 169 764 l 232 764 l 151 283 b 361 -15 124 113 222 -15 b 671 283 500 -15 643 113 l 751 764 l 793 764 b 857 807 815 764 850 764 z m 747 951 b 754 1019 768 971 771 1001 l 664 1117 b 593 1113 646 1135 615 1133 b 586 1044 572 1093 569 1063 l 678 947 b 747 951 694 929 726 931 z m 478 951 b 485 1019 499 971 501 1001 l 394 1117 b 324 1113 376 1135 346 1133 b 317 1044 303 1093 300 1063 l 408 947 b 478 951 425 929 457 931 z "},"ȕ":{"ha":729,"x_min":0,"x_max":0,"o":"m 718 43 b 669 85 725 85 689 85 l 607 85 l 683 542 b 638 599 690 585 685 599 l 536 599 b 472 556 514 599 479 599 b 521 514 465 514 501 514 l 583 514 l 533 218 b 353 76 513 93 397 76 b 258 167 243 76 251 122 l 321 542 b 275 599 328 585 322 599 l 174 599 b 110 556 151 599 117 599 b 158 514 103 514 139 514 l 221 514 l 161 158 b 331 -8 139 25 229 -8 b 504 44 388 -8 447 6 b 553 0 499 0 528 0 l 654 0 b 718 43 676 0 711 0 z m 704 690 b 711 758 725 710 728 740 l 621 856 b 550 851 603 874 572 872 b 543 783 529 832 526 801 l 633 686 b 704 690 651 668 682 669 z m 435 690 b 442 758 456 710 458 740 l 351 856 b 281 851 333 874 303 872 b 274 783 260 832 257 801 l 364 686 b 435 690 382 668 413 669 z "}}}
